<?xml version="1.0" encoding="utf-8"?>
<!-- Generator: Adobe Illustrator 16.0.0, SVG Export Plug-In . SVG Version: 6.00 Build 0)  -->
<!DOCTYPE svg PUBLIC "-//W3C//DTD SVG 1.1//EN" "http://www.w3.org/Graphics/SVG/1.1/DTD/svg11.dtd">
<svg version="1.1" id="Calque_1" xmlns="http://www.w3.org/2000/svg" xmlns:xlink="http://www.w3.org/1999/xlink" x="0px" y="0px"
	 width="40px" height="40px" viewBox="0 0 40 40" enable-background="new 0 0 40 40" xml:space="preserve">
<circle fill="#0FAC8D" cx="20" cy="20.193" r="18.193"/>
<g>
	<path fill="#E32D22" d="M30.687,17.432c0-5.906-4.787-10.695-10.694-10.695c-5.907,0-10.695,4.789-10.695,10.695H30.687z"/>
	<path fill="#E32D22" d="M31.968,19.273c-0.061-0.179-0.092-0.368-0.092-0.566c0-0.791,0.508-1.462,1.217-1.708v-0.018l-2.434-1.656
		c0.125,0.655,0.191,1.33,0.191,2.021c0,0.658-0.061,1.303-0.174,1.928H31.968z"/>
	<path fill="#E32D22" d="M35.2,22.616l-2.225-3.128l0.99-1.837l2.119,4.889L35.2,22.616z"/>
	<path fill="#E32D22" d="M32.778,19.896c-0.693-0.401-0.928-1.288-0.527-1.98c0.402-0.692,1.289-0.928,1.98-0.526L32.778,19.896z"/>
	<path fill="#E32D22" d="M34.993,27.867l0.158-4.85l1.092-0.077l-0.883,4.952L34.993,27.867z"/>
	<path fill="#E32D22" d="M35.712,22.371c0.283-0.032,0.539,0.172,0.572,0.456c0.033,0.283-0.172,0.54-0.455,0.572L35.712,22.371z"/>
	<path fill="#E32D22" d="M35.542,23.432c-0.283,0.033-0.539-0.172-0.572-0.455c-0.033-0.284,0.172-0.541,0.455-0.573L35.542,23.432z
		"/>
	<path fill="#E32D22" d="M8.033,19.273c0.059-0.179,0.092-0.368,0.092-0.566c0-0.791-0.509-1.462-1.217-1.708v-0.018l2.434-1.656
		c-0.125,0.655-0.191,1.33-0.191,2.021c0,0.658,0.06,1.303,0.174,1.928H8.033z"/>
	<path fill="#E32D22" d="M3.914,22.54l2.121-4.889l0.989,1.837l-2.226,3.128L3.914,22.54z"/>
	<path fill="#E32D22" d="M7.222,19.896c0.691-0.401,0.928-1.288,0.525-1.98c-0.4-0.692-1.287-0.928-1.979-0.526L7.222,19.896z"/>
	<path fill="#E32D22" d="M4.64,27.893L3.756,22.94l1.092,0.077l0.159,4.85L4.64,27.893z"/>
	<path fill="#E32D22" d="M4.289,22.371c-0.283-0.032-0.541,0.172-0.572,0.456c-0.033,0.283,0.172,0.54,0.455,0.572L4.289,22.371z"/>
	<path fill="#E32D22" d="M4.458,23.432c0.283,0.033,0.539-0.172,0.571-0.455c0.033-0.284-0.171-0.541-0.454-0.573L4.458,23.432z"/>
	<g>
		<path fill="#E32D22" d="M14.983,8.182c-0.459-0.655-1.362-0.813-2.018-0.354s-0.813,1.362-0.354,2.018L14.983,8.182z"/>
		<polygon fill="#E32D22" points="11.601,5.88 13.388,8 12.984,8.283 		"/>
		<circle fill="#E32D22" cx="11.667" cy="5.976" r="0.243"/>
	</g>
	<g>
		<path fill="#E32D22" d="M25.038,8.149c0.459-0.654,1.363-0.813,2.018-0.354c0.656,0.46,0.814,1.363,0.355,2.019L25.038,8.149z"/>
		<polygon fill="#E32D22" points="28.421,5.848 26.634,7.969 27.038,8.251 		"/>
		<circle fill="#E32D22" cx="28.354" cy="5.944" r="0.243"/>
	</g>
	<path fill="#F6B59D" d="M12.054,16.376c0-2.946,3.555-6.563,7.938-6.563c4.383,0,7.938,3.616,7.938,6.563"/>
	<path fill="#E32D22" d="M17.99,11.723c0.481,0,0.893,0.171,1.233,0.514c0.341,0.341,0.514,0.753,0.514,1.233
		c0,0.498-0.167,0.918-0.502,1.26c-0.333,0.341-0.749,0.512-1.245,0.512c-0.498,0-0.918-0.171-1.26-0.512
		c-0.342-0.342-0.512-0.762-0.512-1.26c0-0.48,0.174-0.893,0.523-1.233C17.091,11.894,17.507,11.723,17.99,11.723z M22.019,11.723
		c0.482,0,0.895,0.171,1.236,0.514c0.342,0.341,0.512,0.753,0.512,1.233c0,0.498-0.166,0.918-0.5,1.26
		c-0.336,0.341-0.75,0.512-1.248,0.512c-0.495,0-0.915-0.171-1.257-0.512c-0.342-0.342-0.512-0.762-0.512-1.26
		c0-0.48,0.175-0.893,0.523-1.233C21.123,11.894,21.539,11.723,22.019,11.723z"/>
	<path fill="#E32D22" d="M30.687,17.396c0,5.907-4.787,10.695-10.694,10.695c-5.907,0-10.695-4.788-10.695-10.695H30.687z"/>
	<g>
		<path fill="#E32D22" d="M33.452,28.289L33.452,28.289L33.452,28.289c-0.037,0.085,0.049,0.208,0.195,0.274
			c0.145,0.066,0.295,0.051,0.334-0.034l0,0l0,0l0.43-0.946l-0.527-0.24L33.452,28.289z"/>
		<path fill="#E32D22" d="M34.12,28.603L34.12,28.603L34.12,28.603c-0.039,0.085,0.049,0.209,0.193,0.275
			c0.146,0.066,0.297,0.051,0.334-0.034v-0.002h0.002l0.43-0.945l-0.527-0.239L34.12,28.603z"/>
		<path fill="#E32D22" d="M34.812,28.826L34.812,28.826L34.812,28.826c-0.039,0.087,0.049,0.209,0.193,0.275
			c0.146,0.066,0.297,0.051,0.334-0.034l0,0h0.002l0.43-0.946l-0.529-0.24L34.812,28.826z"/>
		<path fill="#E32D22" d="M33.675,27.375c0.227-0.57,0.875-0.848,1.445-0.62c0.57,0.229,0.848,0.876,0.619,1.445L33.675,27.375z"/>
		<path fill="#E32D22" d="M33.315,26.979L33.315,26.979L33.315,26.979c-0.094,0.012-0.152,0.149-0.133,0.31
			c0.02,0.159,0.111,0.278,0.205,0.267l0,0l0,0l1.031-0.13l-0.072-0.576L33.315,26.979z"/>
	</g>
	<g>
		<path fill="#E32D22" d="M6.515,28.289L6.515,28.289L6.515,28.289c0.038,0.085-0.049,0.208-0.193,0.274
			c-0.146,0.066-0.297,0.051-0.336-0.034l0,0l0,0l-0.43-0.946l0.528-0.24L6.515,28.289z"/>
		<path fill="#E32D22" d="M5.847,28.603L5.847,28.603L5.847,28.603c0.039,0.085-0.049,0.209-0.193,0.275
			c-0.146,0.066-0.297,0.051-0.334-0.034v-0.002H5.318l-0.43-0.945l0.528-0.239L5.847,28.603z"/>
		<path fill="#E32D22" d="M5.156,28.826L5.156,28.826L5.156,28.826c0.039,0.087-0.049,0.209-0.193,0.275
			c-0.146,0.066-0.295,0.051-0.335-0.034l0,0l0,0l-0.43-0.946l0.528-0.24L5.156,28.826z"/>
		<path fill="#E32D22" d="M6.292,27.375c-0.229-0.57-0.875-0.848-1.444-0.62C4.278,26.983,4,27.631,4.228,28.2L6.292,27.375z"/>
		<path fill="#E32D22" d="M6.652,26.979L6.652,26.979L6.652,26.979c0.094,0.012,0.152,0.149,0.133,0.31
			c-0.02,0.159-0.111,0.278-0.205,0.267l0,0l0,0l-1.03-0.13l0.072-0.576L6.652,26.979z"/>
	</g>
	<g>
		<g>
			<path fill="#E32D22" d="M25.999,27.686c0.379-0.017,0.699,0.278,0.717,0.657c0.016,0.38-0.277,0.7-0.658,0.716L25.999,27.686z"/>
			<path fill="#E32D22" d="M25.677,29.076c-0.379,0.017-0.699-0.278-0.717-0.656c-0.016-0.38,0.277-0.701,0.656-0.717L25.677,29.076
				z"/>
			<polygon fill="#E32D22" points="26.147,30.123 25.571,30.123 25.417,28.397 26.3,28.397 			"/>
			<path fill="#E32D22" d="M27.808,31.766c0-1.087-0.883-1.969-1.971-1.969c-1.086,0-1.969,0.882-1.969,1.969H27.808z"/>
			<polygon fill="#E32D22" points="26.614,28.034 25.062,28.034 24.647,24.81 27.028,24.81 			"/>
		</g>
		<g>
			<path fill="#E32D22" d="M14.308,27.686c0.379-0.017,0.701,0.278,0.717,0.657c0.018,0.38-0.277,0.7-0.657,0.716L14.308,27.686z"/>
			<path fill="#E32D22" d="M13.986,29.076c-0.379,0.017-0.699-0.278-0.717-0.656c-0.016-0.38,0.277-0.701,0.657-0.717L13.986,29.076
				z"/>
			<polygon fill="#E32D22" points="14.457,30.123 13.88,30.123 13.727,28.397 14.611,28.397 			"/>
			<path fill="#E32D22" d="M16.117,31.766c0-1.087-0.882-1.969-1.97-1.969c-1.087,0-1.97,0.882-1.97,1.969H16.117z"/>
			<polygon fill="#E32D22" points="14.923,28.034 13.371,28.034 12.957,24.81 15.337,24.81 			"/>
		</g>
	</g>
</g>
</svg>
