<svg xmlns="http://www.w3.org/2000/svg" viewBox="0 0 43.46 42.4"><defs><style>.cls-1{fill:#e22c20;}</style></defs><title>Octocat</title><g id="Calque_2" data-name="Calque 2"><g id="Calque_1-2" data-name="Calque 1"><path class="cls-1" d="M40.55,10.82a21.64,21.64,0,0,0-7.91-7.91A21.25,21.25,0,0,0,21.73,0,21.26,21.26,0,0,0,10.82,2.92a21.64,21.64,0,0,0-7.91,7.91A21.26,21.26,0,0,0,0,21.73,21.12,21.12,0,0,0,4.14,34.5a21.28,21.28,0,0,0,10.71,7.85,1.26,1.26,0,0,0,1.13-.2,1.11,1.11,0,0,0,.37-.85q0-.08,0-1.53t0-2.52l-.65.11a8.21,8.21,0,0,1-1.57.1,11.87,11.87,0,0,1-2-.2,4.38,4.38,0,0,1-1.9-.85A3.58,3.58,0,0,1,9,34.69L8.71,34a7.06,7.06,0,0,0-.89-1.44,3.44,3.44,0,0,0-1.23-1.08l-.2-.14A2.11,2.11,0,0,1,6,31a1.5,1.5,0,0,1-.25-.4c-.06-.13,0-.24.14-.33a1.81,1.81,0,0,1,.82-.13l.57.08A4.12,4.12,0,0,1,8.7,31a4.57,4.57,0,0,1,1.37,1.47,5,5,0,0,0,1.57,1.77,3.34,3.34,0,0,0,1.85.61,8.12,8.12,0,0,0,1.61-.14,5.67,5.67,0,0,0,1.27-.42,4.59,4.59,0,0,1,1.39-2.92,19.29,19.29,0,0,1-2.9-.51,11.44,11.44,0,0,1-2.66-1.1,7.62,7.62,0,0,1-2.28-1.89,9.12,9.12,0,0,1-1.48-3,14.13,14.13,0,0,1-.58-4.24,8.26,8.26,0,0,1,2.24-5.83A7.59,7.59,0,0,1,10.3,9a4,4,0,0,1,2.43.38,17.16,17.16,0,0,1,2.36,1.09c.5.3.9.56,1.2.76a20.43,20.43,0,0,1,10.87,0l1.08-.68a15.21,15.21,0,0,1,2.6-1.24A3.72,3.72,0,0,1,33.13,9a7.54,7.54,0,0,1,.23,5.77A8.25,8.25,0,0,1,35.6,20.6,14.27,14.27,0,0,1,35,24.86a8.72,8.72,0,0,1-1.5,3,7.91,7.91,0,0,1-2.29,1.88,11.52,11.52,0,0,1-2.66,1.1,19.29,19.29,0,0,1-2.9.51,5,5,0,0,1,1.47,4v6a1.13,1.13,0,0,0,.35.85,1.23,1.23,0,0,0,1.12.2A21.28,21.28,0,0,0,39.32,34.5a21.11,21.11,0,0,0,4.15-12.77,21.29,21.29,0,0,0-2.92-10.91Zm0,0"/></g></g></svg>