<svg xmlns="http://www.w3.org/2000/svg" viewBox="0 0 156.64 89.98"><defs><style>.cls-1{fill:#e22c20;}.cls-2{fill:#f4b39b;}.cls-3{fill:#fff;}</style></defs><title>logo</title><g id="Calque_2" data-name="Calque 2"><g id="Calque_1-2" data-name="Calque 1"><path class="cls-1" d="M117.57,42.74h0a39.23,39.23,0,0,0-11.65-27.82,5.29,5.29,0,0,0-.8-6.71l3.76-6.54A.88.88,0,0,0,110,1.4a.89.89,0,1,0-1.46-1,.88.88,0,0,0,.13,1.15L103.83,7.3a5.29,5.29,0,0,0-6.34,1.26,39.18,39.18,0,0,0-38.32,0A5.29,5.29,0,0,0,52.81,7.3L48,1.53A.88.88,0,0,0,48.09.38a.89.89,0,1,0-.32,1.29L51.52,8.2a5.29,5.29,0,0,0-.8,6.71A39.23,39.23,0,0,0,39.07,42.74h0s0,0,0,.07,0,0,0,.07h0a39.25,39.25,0,0,0,13.47,29.5l.65,5.06a2.28,2.28,0,0,0,1.39,3.41l.23,2.57a6.58,6.58,0,0,0-5.6,6.5H62.37a6.58,6.58,0,0,0-5.46-6.48l.24-2.69a2.29,2.29,0,0,0,1.57-2.27,2.26,2.26,0,0,0-.33-1.08l.1-.74a39.17,39.17,0,0,0,39.68,0l.1.77a2.28,2.28,0,0,0,1.39,3.41l.23,2.57a6.58,6.58,0,0,0-5.6,6.5h13.16A6.58,6.58,0,0,0,102,83.44l.24-2.69a2.27,2.27,0,0,0,1.24-3.35l.65-5a39.25,39.25,0,0,0,13.47-29.51h0s0,0,0-.07S117.57,42.76,117.57,42.74ZM55.15,78.67l-.05-1.21h1.28l.05,1.21Zm45.07,0-.05-1.21h1.28l.05,1.21Z"/><path class="cls-2" d="M49.5,36.8c0-10.82,13-24.09,29.13-24.09S107.77,26,107.77,36.8"/><path class="cls-1" d="M71.28,19.72a6.43,6.43,0,0,1,6.41,6.41,6.36,6.36,0,0,1-1.84,4.62,6.14,6.14,0,0,1-4.57,1.88,6.42,6.42,0,0,1-6.5-6.5,6.11,6.11,0,0,1,1.93-4.53A6.32,6.32,0,0,1,71.28,19.72Zm14.79,0a6.42,6.42,0,0,1,6.41,6.41,6.36,6.36,0,0,1-1.84,4.62,6.15,6.15,0,0,1-4.58,1.88,6.42,6.42,0,0,1-6.5-6.5A6.11,6.11,0,0,1,81.5,21.6,6.32,6.32,0,0,1,86.08,19.72Z"/><path class="cls-3" d="M61.5,52.34H47.41a5.36,5.36,0,0,0,2,2.87,5.5,5.5,0,0,0,3.34,1.08,5.34,5.34,0,0,0,4-1.86l2.81,1.63a8.66,8.66,0,0,1-6.79,3.43,8.78,8.78,0,0,1-6.21-15,8.75,8.75,0,0,1,15,6.23Zm-3.43-3.2a5.47,5.47,0,0,0-2-2.87,5.58,5.58,0,0,0-8.66,2.87Z"/><path class="cls-3" d="M79.73,54.13Q76.5,59.5,71.58,59.5a8.41,8.41,0,0,1-6.2-2.56,8.76,8.76,0,0,1,6.2-15q4.85,0,8.13,5.28L77,48.95q-2.34-3.79-5.4-3.79a5.33,5.33,0,0,0-3.93,1.62,5.62,5.62,0,0,0,0,7.89,5.33,5.33,0,0,0,3.93,1.62q3.12,0,5.43-3.81Z"/><path class="cls-3" d="M91.12,59.5H81.07V42h3.2V56.3h6.85Z"/><path class="cls-3" d="M95.66,59.5h-3.2V42h3.2Z"/><path class="cls-3" d="M113.9,54.13q-3.23,5.37-8.16,5.37a8.4,8.4,0,0,1-6.19-2.56,8.84,8.84,0,0,1,0-12.42A8.42,8.42,0,0,1,105.74,42q4.85,0,8.13,5.28l-2.73,1.7q-2.34-3.79-5.4-3.79a5.57,5.57,0,0,0,0,11.14q3.12,0,5.43-3.81Z"/><polygon class="cls-3" points="117.58 89.98 156.64 50.73 117.58 11.48 117.58 89.98"/><path class="cls-1" d="M143.87,38,131.17,50.78,144,63.49h-6.81l-9.3-9.41-.71.71v8.71h-4.64V38h4.64V48.14L137.31,38Z"/><polygon class="cls-3" points="39.06 89.98 0 50.73 39.06 11.48 39.06 89.98"/><path class="cls-1" d="M38.08,50.71a12.35,12.35,0,0,1-3.68,9,12.11,12.11,0,0,1-8.95,3.72l-12.67,0V38H25.45a12,12,0,0,1,8.95,3.7A12.41,12.41,0,0,1,38.08,50.71Zm-4.63,0A7.89,7.89,0,0,0,31.12,45a7.66,7.66,0,0,0-5.67-2.37h-8V58.81h8a7.68,7.68,0,0,0,5.67-2.36A7.81,7.81,0,0,0,33.45,50.73Z"/></g></g></svg>