<svg xmlns="http://www.w3.org/2000/svg" viewBox="0 0 74.82 74.82"><defs><style>.cls-1{fill:#de1580;}.cls-2{fill:#fff;}</style></defs><title>made-in-France</title><g id="Calque_2" data-name="Calque 2"><g id="Calque_1-2" data-name="Calque 1"><circle class="cls-1" cx="37.41" cy="37.41" r="37.41"/><path class="cls-2" d="M18.84,59.55l-2-2L15.5,59l2.36,2.29L17,62.1l-3.41-3.31,4.94-5.09L22,57l-.82.85L18.8,55.57l-1.18,1.21,2,2Z"/><path class="cls-2" d="M24.11,66.56l-1.27-.72-.16-5.46-2.31,4.05-1.27-.72,3.52-6.16,1.27.72L24,63.74l2.32-4.06,1.26.72Z"/><path class="cls-2" d="M35.09,66.4,32.31,66l-.44,2.87-1.44-.22,1.08-7,4.56.7-.18,1.17L32.77,63l-.28,1.81,2.77.43Z"/><path class="cls-2" d="M39.93,66.61l-1.16.1L39,69.29l-1.46.12-.58-7.07,2.63-.22a3,3,0,0,1,2,.4A1.93,1.93,0,0,1,42.36,64a2.19,2.19,0,0,1-.21,1.23,2.14,2.14,0,0,1-.89.85L43,68.89V69l-1.56.13Zm-1.26-1.08,1.17-.1a1.21,1.21,0,0,0,.83-.35,1,1,0,0,0,.24-.8,1.07,1.07,0,0,0-.35-.76,1.18,1.18,0,0,0-.9-.21l-1.17.1Z"/><path class="cls-2" d="M48.86,65.65l-2.41.86,0,1.54L45,68.58l.1-7.57,1.27-.46,4.89,5.79-1.46.52Zm-2.44-.38,1.67-.6-1.73-2.2Z"/><path class="cls-2" d="M58.21,61.77,57,62.62l-5-2.16,2.7,3.8-1.19.85L49.4,59.33l1.19-.85,5,2.16-2.71-3.81L54.1,56Z"/><path class="cls-2" d="M62.15,53.82A2.51,2.51,0,0,1,63,55.61a3,3,0,0,1-.76,2,2.67,2.67,0,0,1-2.07,1.08,3.77,3.77,0,0,1-2.45-1l-.34-.28A4.25,4.25,0,0,1,56.23,56,2.7,2.7,0,0,1,56,54.43a3.22,3.22,0,0,1,2.42-2.58,2.7,2.7,0,0,1,2,.5l-.92,1.13a1.48,1.48,0,0,0-1-.33,1.42,1.42,0,0,0-.87.58,1.24,1.24,0,0,0-.29,1.18,2.93,2.93,0,0,0,1,1.32l.41.34a3.14,3.14,0,0,0,1.52.79,1.22,1.22,0,0,0,1.11-.51,1.44,1.44,0,0,0,.4-1,1.4,1.4,0,0,0-.5-.9Z"/><path class="cls-2" d="M64.37,47.83l-1.2,2.54,1.73.82,1.41-3,1.06.5-2,4.3-6.41-3,2-4.29,1.07.51-1.4,3,1.53.72,1.2-2.54Z"/><path class="cls-2" d="M11.52,29,5,26.21l.86-2a3.3,3.3,0,0,1,1-1.36,2.92,2.92,0,0,1,1.55-.58,3.66,3.66,0,0,1,1.78.32l.3.13A3.69,3.69,0,0,1,12,23.8a2.91,2.91,0,0,1,.64,1.52,3.33,3.33,0,0,1-.27,1.7ZM6.7,25.34,11,27.22l.28-.65a1.58,1.58,0,0,0,0-1.42A2.52,2.52,0,0,0,10,24.1L9.69,24A2.56,2.56,0,0,0,8,23.71a1.57,1.57,0,0,0-1,1Z"/><path class="cls-2" d="M14.45,17.75,12.78,20l1.52,1.13,2-2.63.94.7L14.38,23,8.71,18.77,11.53,15l.94.7-2,2.62,1.35,1,1.67-2.24Zm-5.64-2.3.91-1.23.4,2-.68.91Z"/><path class="cls-2" d="M18.8,15.38l-2.21-5.09,1.24-1,2.68,7-1.16,1L12.92,13.4l1.23-1Z"/><path class="cls-2" d="M25.58,9.59l-2.49,1.27L24,12.55l2.92-1.49.53,1-4.22,2.15L20,8l4.21-2.15.54,1L21.81,8.35l.76,1.5,2.49-1.27Z"/><path class="cls-2" d="M29.55,10.25l3-.79.3,1.13-4.39,1.17L26.64,4.93,28,4.56Z"/><path class="cls-2" d="M39.28,6.86A4.26,4.26,0,0,1,39,8.7,2.78,2.78,0,0,1,38,10a3.11,3.11,0,0,1-3.14.12,2.8,2.8,0,0,1-1.11-1.17,4.13,4.13,0,0,1-.45-1.79V6.77a4.26,4.26,0,0,1,.31-1.85,2.8,2.8,0,0,1,1-1.25,3.11,3.11,0,0,1,3.14-.11,2.8,2.8,0,0,1,1.11,1.18,4.22,4.22,0,0,1,.44,1.82ZM37.8,6.6a3,3,0,0,0-.46-1.67A1.41,1.41,0,0,0,35.08,5a2.94,2.94,0,0,0-.34,1.68V7a3,3,0,0,0,.46,1.66,1.39,1.39,0,0,0,2.27-.06,3,3,0,0,0,.34-1.69Z"/><path class="cls-2" d="M42.59,8.27l-.52,2.43-1.42-.31,1.49-6.9,2.69.58a3.16,3.16,0,0,1,1.31.58,2.14,2.14,0,0,1,.73,1,2.31,2.31,0,0,1,.06,1.26,2,2,0,0,1-1,1.45,3,3,0,0,1-2,.17Zm.25-1.15,1.27.27A1.28,1.28,0,0,0,45,7.31a1,1,0,0,0,.46-.69,1.17,1.17,0,0,0-.12-.89,1.15,1.15,0,0,0-.76-.5l-1.3-.28Z"/><path class="cls-2" d="M49.47,10.38l-1.1,2.23L47.07,12l3.12-6.33,2.47,1.22a3.19,3.19,0,0,1,1.13.88,2.15,2.15,0,0,1,.47,1.15A2.31,2.31,0,0,1,54,10.12a2,2,0,0,1-1.36,1.15,3,3,0,0,1-2-.33ZM50,9.32l1.17.57a1.28,1.28,0,0,0,.91.15,1,1,0,0,0,.61-.56,1.16,1.16,0,0,0,.1-.89,1.14,1.14,0,0,0-.61-.67L51,7.33Z"/><path class="cls-2" d="M58.14,15.41,56,13.63,54.77,15.1l2.53,2.08-.74.9-3.66-3,4.48-5.46,3.65,3-.75.91-2.53-2.07-1.07,1.3,2.16,1.77ZM60.7,9.88l1.18,1-2,.31L59,10.44Z"/><path class="cls-2" d="M42.76,57.23a1.74,1.74,0,0,1-.85-.22L21.22,45.48A12.15,12.15,0,1,1,33.05,24.26l1,.56.54-1A12.15,12.15,0,1,1,55.81,35.69L44.24,56.36a1.72,1.72,0,0,1-1,.81A1.68,1.68,0,0,1,42.76,57.23ZM27.13,23.73a11.15,11.15,0,0,0-9.72,5.71,11.12,11.12,0,0,0,4.32,15.14L42.41,56.11a.7.7,0,0,0,.52.07.69.69,0,0,0,.41-.32L54.92,35.19A11.13,11.13,0,1,0,35.49,24.34l-1,1.87-1.89-1.05A11.12,11.12,0,0,0,27.13,23.73Z"/><path class="cls-2" d="M45.6,28.48a.38.38,0,1,1,.36-.41.38.38,0,0,1-.36.41m1.66,1.17a2.2,2.2,0,0,1,1.13-.53,1.24,1.24,0,0,1,.37,0,2,2,0,0,0-.8-.92,2.24,2.24,0,0,1-.7-.72v0s1-1.2.38-2.15-.85-.42-.91.05-1-.75-1.13,0S44,25.7,44.4,26.58a1.21,1.21,0,0,0,.36.4,3.88,3.88,0,0,0-2.86,2.26A14.38,14.38,0,0,0,41.23,31c-.94,2.88-1.78,3.26-3.26,3.34A5.14,5.14,0,0,1,35.91,34c-.32-.16-2.81-1.45-3.53-3s-3.92-4.59-6.91-3-2.34,2.56,1.09,3.31c3.25.71-3,1.17-.65,3.09s-.08,2,3.13,4.22c3,2.05,1.92,3.22,3.41,4.11h0l.09,0,.33.16h0a9.4,9.4,0,0,0,1.37.39l1.57.35c1.33.07,3.19-1.61,3.89-2.8,1.07-1.91.12-3.34-.63-5.27l.29-.11C40.06,37.37,41.12,39,40,41A6.57,6.57,0,0,1,36.2,44s.64.36,1.16.61a1.94,1.94,0,0,1,1,1.18A6.5,6.5,0,0,0,38.91,47a.8.8,0,0,1-.44,1.14,2.91,2.91,0,0,0-1.12.62.41.41,0,0,0-.11.36.4.4,0,0,0,.23.3.5.5,0,0,0,.55-.08,8.18,8.18,0,0,1,1.79-.71.77.77,0,0,1,.71,0l.25.13a2.38,2.38,0,0,1,.89.68,1.76,1.76,0,0,1,.17.24.61.61,0,0,0,.52.31h.28a.16.16,0,0,0,.12-.06.16.16,0,0,0,0-.13,1.62,1.62,0,0,0-.16-.46.17.17,0,0,1,0-.17.18.18,0,0,1,.14-.09,4.81,4.81,0,0,1,2.11.31.57.57,0,0,0,.58-.09l.06-.05a.33.33,0,0,0,.12-.29.33.33,0,0,0-.17-.26c-1-.57-2.61-.52-3.42-.68a2.93,2.93,0,0,1-2-2.83h0l.16,0c1-.12,1.62-1.09,2.16-2,1-1.69,1.46-1.73,1.46-1.73,2.71-.44,4.11-2.79,4.28-7.2a4.74,4.74,0,0,0-.83-2.83,9.23,9.23,0,0,1-.6-1.19L46.59,30l.15-.06a2.35,2.35,0,0,0,.52-.32"/></g></g></svg>