<svg xmlns="http://www.w3.org/2000/svg" viewBox="0 0 55.47 67.07"><defs><style>.cls-1{fill:#e22c20;}.cls-2{fill:#f4b39b;}.cls-3{fill:#ced517;fill-rule:evenodd;}.cls-4{fill:none;stroke:#fff;stroke-miterlimit:10;stroke-width:0.3px;}.cls-5{fill:#fff;}</style></defs><title>robot-idea</title><g id="Calque_2" data-name="Calque 2"><g id="Calque_1-2" data-name="Calque 1"><path class="cls-1" d="M1.17,24.88"/><path class="cls-1" d="M46,45.29h0a18.11,18.11,0,0,0-5.38-12.85,2.44,2.44,0,0,0-.37-3.1l1.74-3a.41.41,0,0,0,.52-.12.41.41,0,1,0-.67-.47.4.4,0,0,0,.06.53l-2.24,2.66a2.44,2.44,0,0,0-2.93.58A18.08,18.08,0,0,0,19,29.5a2.44,2.44,0,0,0-2.93-.58l-2.24-2.66a.41.41,0,0,0-.51-.63.41.41,0,0,0,.42.69l1.73,3a2.44,2.44,0,0,0-.37,3.1A18.11,18.11,0,0,0,9.72,45.29h0s0,0,0,0,0,0,0,0h0A18.12,18.12,0,0,0,15.94,59l.3,2.34a1.05,1.05,0,0,0,.64,1.58L17,64.07a3,3,0,0,0-2.59,3h6.08a3,3,0,0,0-2.52-3l.11-1.24a1,1,0,0,0,.57-1.55l0-.34A18.08,18.08,0,0,0,37,61l0,.36a1.09,1.09,0,0,0-.16.6,1.06,1.06,0,0,0,.8,1l.11,1.19a3,3,0,0,0-2.59,3h6.08a3,3,0,0,0-2.52-3l.11-1.24a1.06,1.06,0,0,0,.73-1,1.09,1.09,0,0,0-.16-.5l.3-2.32A18.13,18.13,0,0,0,46,45.35h0v-.06ZM17.15,61.88l0-.56h.59l0,.56Zm20.81,0,0-.56h.59l0,.56Z"/><path class="cls-2" d="M14.54,42.55c0-5,6-11.12,13.45-11.12s13.45,6.13,13.45,11.12"/><path class="cls-3" d="M27.24,19.74c-.57,0-1.14,0-1.7,0a1,1,0,0,1-1.07-.92,31.12,31.12,0,0,0-.83-3A26.17,26.17,0,0,0,22.33,13a5.57,5.57,0,1,1,10.4-3.64,5.36,5.36,0,0,1-.64,3.8,16.46,16.46,0,0,0-1.78,4.3c-.1.44-.18.88-.28,1.32a1,1,0,0,1-1.06.92C28.4,19.72,27.82,19.74,27.24,19.74Z"/><path class="cls-3" d="M27.26,21.25c-.61,0-1.21,0-1.81,0-.32,0-.43-.13-.43-.44s.13-.43.44-.43h3.63c.31,0,.45.1.45.42s-.13.46-.46.45C28.47,21.24,27.86,21.25,27.26,21.25Z"/><path class="cls-3" d="M27.27,22.67H25.45c-.31,0-.44-.12-.44-.43s.11-.44.43-.44h3.67c.32,0,.43.14.42.45s-.14.43-.45.43Z"/><path class="cls-3" d="M27.25,24.13H25.44c-.32,0-.43-.14-.43-.45s.14-.44.45-.44h3.63c.31,0,.44.12.45.43s-.14.46-.46.45C28.46,24.12,27.86,24.13,27.25,24.13Z"/><path class="cls-3" d="M28.9,24.79c0,.28-.73.51-1.63.51s-1.63-.23-1.63-.51Z"/><line class="cls-4" x1="26.37" y1="19.74" x2="25.12" y2="14.52"/><polyline class="cls-4" points="25.12 14.52 25.75 13.47 26.53 14.52 27.29 13.47 28.01 14.52 28.83 13.47 29.42 14.52"/><line class="cls-4" x1="29.42" y1="14.52" x2="28.18" y2="19.74"/><rect class="cls-5" x="27.09" width="0.37" height="3.93"/><polygon class="cls-5" points="23.16 5.37 22.84 5.55 20.87 2.15 21.19 1.96 23.16 5.37"/><polygon class="cls-5" points="32.02 5.55 31.71 5.37 33.67 1.96 33.99 2.15 32.02 5.55"/><rect class="cls-5" x="33.32" y="7.63" width="3.94" height="0.37" transform="matrix(0.86, -0.5, 0.5, 0.86, 0.85, 18.79)"/><rect class="cls-5" x="18.7" y="5.84" width="0.37" height="3.93" transform="translate(2.67 20.25) rotate(-59.94)"/><path class="cls-1" d="M21.14,40.32A2.81,2.81,0,0,1,22,38.23a2.91,2.91,0,0,1,2.11-.87,3,3,0,0,1,3,3Z"/><path class="cls-1" d="M32,35.85a3,3,0,0,1,3,3,2.93,2.93,0,0,1-.85,2.13A2.85,2.85,0,0,1,32,41.8a3,3,0,0,1-3-3,2.81,2.81,0,0,1,.89-2.09A2.92,2.92,0,0,1,32,35.85Z"/><path class="cls-1" d="M7.22,48.58a3,3,0,0,0,.15-.94,3,3,0,0,0-2-2.83v0l4-2.75a17.63,17.63,0,0,0-.32,3.35,17.86,17.86,0,0,0,.28,3.2Z"/><path class="cls-1" d="M.33,54l3.52-8.12,1.64,3L1.8,54.13Z"/><path class="cls-1" d="M5.83,49.62a2.41,2.41,0,1,0-2.41-4.16Z"/><path class="cls-1" d="M1.54,62.89.07,54.67l1.81.13.26,8Z"/><path class="cls-1" d="M1,53.73a.86.86,0,1,0-.19,1.7Z"/><path class="cls-1" d="M1.24,55.49a.86.86,0,0,0,.19-1.71Z"/><path class="cls-1" d="M3.76,62.24,5,62.52H5c.16,0,.24.28.18.55s-.23.46-.39.43h0l-.72-.15.5,1.4h0c.05.15-.11.35-.37.44s-.51,0-.57-.11h0L3.1,63.51l-.26.08.56,1.58h0c.05.15-.11.35-.37.44s-.51,0-.57-.11h0l-.58-1.63L1.65,64l.53,1.5h0c.05.15-.11.35-.37.44s-.51,0-.57-.11h0L.69,64.24h0a.37.37,0,0,1,0-.05l0-.08h0a1.9,1.9,0,0,1,3.1-1.86Z"/><path class="cls-2" d="M4.66,64.84a.6.6,0,0,1-.42.4.53.53,0,0,1-.63-.11l-.55-1.54-.14,0,.54,1.52h0c.07.19-.12.42-.41.52a.69.69,0,0,1-.5,0,.29.29,0,0,1-.1-.08h0L1.84,64l-.11,0,.52,1.56a.61.61,0,0,1-.42.4.55.55,0,0,1-.61-.09h0L.65,64.32h0l-.06-.26h0a1.82,1.82,0,0,1,0-.33h0a2,2,0,0,1,3.24-1.54L5,62.45H5c.14,0,.24.2.24.42a1,1,0,0,1,0,.2.68.68,0,0,1-.26.43.28.28,0,0,1-.17.05h0l-.61-.13.46,1.29m-.94.34c0,.1.25.14.48.06s.37-.26.33-.36L4,63.25l.79.17h.08l.06,0a.54.54,0,0,0,.21-.35c0-.23,0-.45-.12-.47l-1.28-.27h0A1.83,1.83,0,0,0,2,61.92a1.85,1.85,0,0,0-1.3,1.8,1.81,1.81,0,0,0,0,.36v0l.56,1.58,0,.07c0,.1.25.15.49.06s.38-.25.33-.36l-.55-1.56.35-.11.57,1.6,0,.09a.17.17,0,0,0,.08.07.56.56,0,0,0,.41,0c.25-.09.37-.26.33-.36l-.58-1.64.38-.11L3.69,65Z"/><path class="cls-1" d="M48.46,41.73a3.06,3.06,0,0,0,1.9,3.84v0l-4.12,2.8A18,18,0,0,0,46.57,45a18.28,18.28,0,0,0-.29-3.26Z"/><path class="cls-1" d="M55.35,36l-3.27,8.39-1.79-3,3.56-5.43Z"/><path class="cls-1" d="M49.93,40.65a2.45,2.45,0,0,0,2.62,4.14Z"/><path class="cls-1" d="M46.15,34.6l8.51.1-.47,1.79-8.1-1.27Z"/><path class="cls-1" d="M55.21,36.1A.87.87,0,0,0,54,34.86Z"/><path class="cls-1" d="M53.63,35.21a.87.87,0,1,0,1.24,1.24Z"/><path class="cls-1" d="M45.74,33.57l-1.07-.73h0c-.13-.09-.36,0-.52.25s-.17.49,0,.58h0l.6.41-1.36.6h0c-.15.07-.18.32-.06.57s.32.4.47.34h0l1.5-.67.12.25-1.53.68h0c-.15.06-.17.32-.06.58s.32.4.47.33h0l1.58-.7.11.21-1.46.65h0c-.15.07-.17.32-.07.58s.33.4.47.34h0l1.5-.67h0l0,0,.08,0h0a1.9,1.9,0,0,0-.79-3.53Z"/></g></g></svg>