<svg xmlns="http://www.w3.org/2000/svg" viewBox="0 0 52.31 41"><defs><style>.cls-1,.cls-4{fill:#e22c20;}.cls-2{fill:#f4b39b;}.cls-3{fill:#ced517;stroke:#ced517;stroke-width:1.2px;}.cls-3,.cls-4{stroke-miterlimit:10;}.cls-4{stroke:#f4b39b;stroke-width:0.2px;}</style></defs><title>robot-observe</title><g id="Calque_2" data-name="Calque 2"><g id="Calque_1-2" data-name="Calque 1"><path class="cls-1" d="M45.09,19.49h0A17.9,17.9,0,0,0,39.78,6.8a2.41,2.41,0,0,0-.37-3.06l1.71-3a.4.4,0,0,0,.52-.12A.41.41,0,1,0,41,.17.4.4,0,0,0,41,.7L38.82,3.33a2.41,2.41,0,0,0-2.89.57,17.86,17.86,0,0,0-17.47,0,2.41,2.41,0,0,0-2.89-.57L13.35.7a.4.4,0,0,0,.06-.52.41.41,0,1,0-.67.47.4.4,0,0,0,.52.12l1.71,3a2.41,2.41,0,0,0-.37,3.06A17.88,17.88,0,0,0,9.3,19.49h0v.06h0A17.9,17.9,0,0,0,15.44,33l.3,2.31a1,1,0,0,0,.63,1.56L16.47,38a3,3,0,0,0-2.55,3h6a3,3,0,0,0-2.49-3l.11-1.23a1,1,0,0,0,.56-1.53l0-.34a17.86,17.86,0,0,0,18.09,0l0,.35a1,1,0,0,0,.63,1.56L37,38a3,3,0,0,0-2.55,3h6A3,3,0,0,0,38,38l.11-1.23a1,1,0,0,0,.72-1,1,1,0,0,0-.15-.49L38.95,33a17.89,17.89,0,0,0,6.14-13.45h0v-.06ZM16.63,35.87l0-.55h.58l0,.55Zm20.55,0,0-.55h.58l0,.55Z"/><path class="cls-1" d="M7.14,22.51a3,3,0,0,0-1.86-3.76v0l4-2.73a17.83,17.83,0,0,0,0,6.52Z"/><path class="cls-1" d="M.33,27.91l3.5-8.07,1.63,3L1.8,28Z"/><path class="cls-1" d="M5.8,23.54A2.39,2.39,0,0,0,3.4,19.4Z"/><path class="cls-1" d="M1.53,36.75.07,28.57l1.8.13.26,8Z"/><path class="cls-1" d="M1,27.63a.85.85,0,0,0-.19,1.7Z"/><path class="cls-1" d="M1.23,29.38a.85.85,0,1,0,.19-1.7Z"/><path class="cls-2" d="M14.32,17.86C14.32,13,20.19,7,27.43,7s13.11,6,13.11,10.84"/><path class="cls-1" d="M24.12,10.17A2.89,2.89,0,0,1,27,13.06a2.85,2.85,0,0,1-.83,2.08,2.76,2.76,0,0,1-2.06.85,2.89,2.89,0,0,1-2.93-2.93,2.76,2.76,0,0,1,.87-2A2.85,2.85,0,0,1,24.12,10.17Zm6.66,0a2.89,2.89,0,0,1,2.89,2.89,2.86,2.86,0,0,1-.83,2.08,2.77,2.77,0,0,1-2.06.85,2.89,2.89,0,0,1-2.92-2.93,2.75,2.75,0,0,1,.86-2A2.85,2.85,0,0,1,30.78,10.17Z"/><path class="cls-1" d="M31.7,9.35a3.71,3.71,0,0,1,3.71,3.71,3.67,3.67,0,0,1-1.07,2.67,3.55,3.55,0,0,1-2.64,1.09,3.72,3.72,0,0,1-3.76-3.76,3.54,3.54,0,0,1,1.11-2.62A3.65,3.65,0,0,1,31.7,9.35Z"/><path class="cls-3" d="M41,13.44a7.11,7.11,0,1,0-6.86,7.36,7.26,7.26,0,0,0,1-.12L39,31.82l.52-.18L35.68,20.57A7.12,7.12,0,0,0,41,13.44ZM34.1,20.33a6.64,6.64,0,1,1,6.4-6.87A6.65,6.65,0,0,1,34.1,20.33Z"/><path class="cls-1" d="M47.27,22.5a3,3,0,0,1,1.88-3.8v0L45.08,15.9a17.72,17.72,0,0,1,.32,3.38,18,18,0,0,1-.29,3.22Z"/><path class="cls-1" d="M47,28l1.33-6.28,3.38-.86L48.06,29Z"/><path class="cls-1" d="M47.58,22a2.42,2.42,0,1,1,4.73-1Z"/><path class="cls-4" d="M38.63,27.16l8.38.59.06,1.9L38.55,28.1Z"/><path class="cls-1" d="M48.27,28.89a.87.87,0,0,1-1.73.13Z"/><path class="cls-1" d="M46.5,28.54a.86.86,0,1,1,1.72-.13Z"/><path class="cls-1" d="M3.81,39c.05.09.26.13.49,0s.35-.29.31-.38L4,37.21l.79.12h.08l.06,0a.54.54,0,0,0,.18-.36c0-.23-.05-.44-.15-.46l-1.29-.19h0A1.83,1.83,0,0,0,.71,37.9a1.76,1.76,0,0,0,.07.36v0l.66,1.53,0,.07c0,.1.25.13.48,0s.36-.27.31-.38L1.61,38l.34-.13.67,1.55,0,.09a.16.16,0,0,0,.08.07.57.57,0,0,0,.4,0c.25-.11.35-.29.31-.38L2.76,37.6l.37-.14L3.79,39Z"/><path class="cls-4" d="M36.16,26.89l1.65-.09,0,.39-1.73.1c-.11,0-.22.18-.21.45a.57.57,0,0,0,.15.38.16.16,0,0,0,.1,0h.1l1.68-.09,0,.36-1.65.09c-.12,0-.22.22-.2.45s.14.42.24.42h.08l1.66-.09h0a1.83,1.83,0,0,0,.5-3.44l0,0-.74-1.07c-.06-.08-.29-.06-.48.07a.54.54,0,0,0-.24.32.16.16,0,0,0,0,.07l0,.07.45.66L36.07,26c-.11,0-.22.18-.21.45s.14.42.24.42Z"/></g></g></svg>