<svg xmlns="http://www.w3.org/2000/svg" viewBox="0 0 65.98 66.44"><defs><style>.cls-1{fill:#e22c20;}.cls-2{fill:#f4b39b;}.cls-3,.cls-4{fill:#ced517;}.cls-4{fill-rule:evenodd;}</style></defs><title>robot-train</title><g id="Calque_2" data-name="Calque 2"><g id="Calque_1-2" data-name="Calque 1"><path class="cls-1" d="M50.59,45.27h0a17.6,17.6,0,0,0-5.23-12.48,2.37,2.37,0,0,0-.36-3l1.69-2.93a.39.39,0,0,0,.51-.12.4.4,0,1,0-.65-.46.39.39,0,0,0,.06.51l-2.18,2.59a2.37,2.37,0,0,0-2.85.56,17.57,17.57,0,0,0-17.19,0,2.38,2.38,0,0,0-2.85-.56l-2.18-2.59a.39.39,0,0,0,.06-.51.4.4,0,1,0-.14.57L21,29.78a2.37,2.37,0,0,0-.36,3,17.6,17.6,0,0,0-5.23,12.48h0s0,0,0,0,0,0,0,0h0a17.61,17.61,0,0,0,6,13.24l.29,2.27a1,1,0,0,0,.62,1.53l.1,1.15a3,3,0,0,0-2.51,2.92h5.9a3,3,0,0,0-2.45-2.91l.11-1.21a1,1,0,0,0,.55-1.5l0-.33a17.57,17.57,0,0,0,17.8,0l0,.35a1,1,0,0,0,.62,1.53l.1,1.15a3,3,0,0,0-2.51,2.92H46a3,3,0,0,0-2.45-2.91l.11-1.21a1,1,0,0,0,.71-1,1.07,1.07,0,0,0-.15-.48l.29-2.25a17.61,17.61,0,0,0,6-13.24h0s0,0,0,0S50.59,45.28,50.59,45.27Zm-28,16.12,0-.55h.58l0,.55Zm20.22,0,0-.55h.57l0,.55Z"/><path class="cls-2" d="M20,42.61C20,37.75,25.9,31.8,33.12,31.8s13.07,6,13.07,10.81"/><path class="cls-1" d="M25.79,39.88a2.71,2.71,0,0,1,.85-2,2.82,2.82,0,0,1,2-.83,2.85,2.85,0,0,1,2.84,2.84Z"/><path class="cls-1" d="M34.43,39.88a2.71,2.71,0,0,1,.85-2,2.81,2.81,0,0,1,2-.83,2.84,2.84,0,0,1,2.84,2.84Z"/><path class="cls-2" d="M36.86,47.92a1.35,1.35,0,0,1,.42-1,1.39,1.39,0,0,1,1-.41,1.4,1.4,0,0,1,1.4,1.4,1.38,1.38,0,0,1-.4,1,1.34,1.34,0,0,1-1,.41,1.4,1.4,0,0,1-1.42-1.42"/><path class="cls-1" d="M13.25,42a2.86,2.86,0,0,1,.15.92,2.94,2.94,0,0,1-2,2.77v0l4,2.69a17.59,17.59,0,0,1,0-6.41Z"/><path class="cls-1" d="M7.94,36.55l3.62,5.08-1.61,3L6.51,36.68Z"/><path class="cls-1" d="M11.88,41A2.36,2.36,0,0,1,9.52,45Z"/><path class="cls-1" d="M8.28,28,8,35.9,6.25,36l1.44-8Z"/><path class="cls-1" d="M7.12,37a.84.84,0,0,1-.19-1.67Z"/><path class="cls-1" d="M7.39,35.23a.84.84,0,0,1,.19,1.67Z"/><path class="cls-1" d="M9.79,28.16l1.05-.7h0c.13-.09.12-.34,0-.56s-.38-.34-.51-.25h0l-.6.4,0-1.45h0c0-.16-.23-.28-.5-.27s-.48.14-.48.3h0l.06,1.61-.26,0-.06-1.64h0c0-.16-.23-.28-.5-.27s-.48.14-.48.3h0l.06,1.69-.23,0-.06-1.56h0c0-.16-.23-.28-.5-.27s-.48.15-.48.31h0l.06,1.6h0s0,0,0,.05v.09h0a1.86,1.86,0,0,0,3.49.58Z"/><path class="cls-3" d="M16.47,27h-1.9V23.11c0-.17-.75-.31-1.66-.31s-1.66.14-1.66.31V27H5.41V23.11c0-.17-.74-.31-1.66-.31s-1.67.14-1.67.31V27H.18c-.1,0-.18.18-.18.4s.08.4.18.4h1.9v3.86c0,.17.75.31,1.67.31s1.66-.14,1.66-.31V27.77h5.83v3.86c0,.17.74.31,1.66.31s1.66-.14,1.66-.31V27.77h1.9c.1,0,.19-.18.19-.4S16.57,27,16.47,27Z"/><path class="cls-1" d="M9.79,28.15l1.05-.7h0c.13-.09.12-.34,0-.56s-.38-.34-.51-.25h0l-.6.4"/><path class="cls-1" d="M52.74,42a2.86,2.86,0,0,0-.15.92,2.94,2.94,0,0,0,2,2.77v0l-4,2.69a17.5,17.5,0,0,0,0-6.41Z"/><path class="cls-1" d="M59.47,36.68,56,44.62l-1.61-3L58,36.55Z"/><path class="cls-1" d="M54.1,41A2.35,2.35,0,0,0,56.46,45Z"/><path class="cls-1" d="M58.29,28l1.44,8L58,35.9,57.7,28Z"/><path class="cls-1" d="M58.86,37a.84.84,0,0,0,.19-1.67Z"/><path class="cls-1" d="M58.59,35.23a.84.84,0,0,0-.19,1.67Z"/><path class="cls-1" d="M56.19,28.16l-1.05-.7h0c-.13-.09-.12-.34,0-.56s.38-.34.51-.25h0l.6.4,0-1.45h0c0-.16.23-.28.5-.27s.48.14.48.3h0l-.06,1.61.26,0,.06-1.64h0c0-.16.23-.28.5-.27s.48.14.48.3h0l-.06,1.69.23,0,.06-1.56h0c0-.16.23-.28.5-.27s.48.15.48.31h0l-.06,1.6h0v.14h0a1.86,1.86,0,0,1-3.49.58Z"/><path class="cls-3" d="M49.51,27h1.9V23.11c0-.17.75-.31,1.67-.31s1.66.14,1.66.31V27h5.83V23.11c0-.17.74-.31,1.66-.31s1.67.14,1.67.31V27h1.9c.1,0,.18.18.18.4s-.08.4-.18.4H63.9v3.86c0,.17-.75.31-1.67.31s-1.66-.14-1.66-.31V27.77H54.74v3.86c0,.17-.74.31-1.66.31s-1.67-.14-1.67-.31V27.77h-1.9c-.1,0-.19-.18-.19-.4S49.41,27,49.51,27Z"/><path class="cls-1" d="M56.19,28.15l-1.05-.7h0c-.13-.09-.12-.34,0-.56s.38-.34.51-.25h0l.6.4"/><path class="cls-4" d="M40.44,25.1l-1.14.21-2,.36-.46.08s-.06,0-.06.08q0,.72,0,1.44v2.91a.69.69,0,0,1-.13.41,1.25,1.25,0,0,1-1.12.56.52.52,0,0,1-.45-.79,1.28,1.28,0,0,1,1.35-.65,1.55,1.55,0,0,1,.2.08V25.23l4-.72v.1q0,1.46,0,2.92c0,.6,0,1.2,0,1.8a1,1,0,0,1-.51.91,1.13,1.13,0,0,1-.81.2.52.52,0,0,1-.4-.79A1.28,1.28,0,0,1,40.27,29l.17.07Z"/><path class="cls-4" d="M35.18,20.42l.17-.38a4,4,0,0,0,.35-1.19,2,2,0,0,0-1.09-2,1.33,1.33,0,0,0-.58-.17v.14c0,1.37,0,2.73,0,4.1A1.27,1.27,0,0,1,33.48,22a1.64,1.64,0,0,1-1.07.34.74.74,0,0,1-.69-.51.71.71,0,0,1,0-.45,1.69,1.69,0,0,1,1.81-1,2.19,2.19,0,0,1,.28.11v-6H34l0,.37a2.15,2.15,0,0,0,.63,1.24c.25.26.5.53.72.81A2.18,2.18,0,0,1,36,18.29a3,3,0,0,1-.15,1,5.31,5.31,0,0,1-.46,1.05A.12.12,0,0,1,35.18,20.42Z"/><path class="cls-4" d="M38.61.59,37.47.8l-2,.36L35,1.24s-.06,0-.06.08q0,.72,0,1.44V5.66a.69.69,0,0,1-.13.41,1.25,1.25,0,0,1-1.12.56.52.52,0,0,1-.45-.79,1.28,1.28,0,0,1,1.35-.65,1.61,1.61,0,0,1,.2.08V.72l4-.72V.11q0,1.46,0,2.91c0,.6,0,1.2,0,1.8a1,1,0,0,1-.51.91,1.13,1.13,0,0,1-.81.2.52.52,0,0,1-.4-.79,1.27,1.27,0,0,1,1.38-.64l.17.07Z"/><path class="cls-4" d="M44.09,43.16l.17-.38a4,4,0,0,0,.35-1.19,2,2,0,0,0-1.09-2,1.35,1.35,0,0,0-.58-.17v.14c0,1.37,0,2.73,0,4.1a1.27,1.27,0,0,1-.56,1.12,1.64,1.64,0,0,1-1.07.34.74.74,0,0,1-.7-.51.72.72,0,0,1,0-.45,1.68,1.68,0,0,1,1.81-.95,2.46,2.46,0,0,1,.28.11v-6h.2c0,.12,0,.24,0,.37a2.14,2.14,0,0,0,.63,1.24c.25.26.5.53.72.81A2.18,2.18,0,0,1,44.86,41a2.94,2.94,0,0,1-.15,1,5.26,5.26,0,0,1-.46,1.05A.12.12,0,0,1,44.09,43.16Z"/><path class="cls-4" d="M46.08,9.3l-1.14.22-2,.4-.46.09s-.06,0-.06.08c0,.52,0,1,0,1.56v3.16a.79.79,0,0,1-.13.45,1.23,1.23,0,0,1-1.12.61.57.57,0,0,1-.45-.86A1.26,1.26,0,0,1,42,14.3l.2.08V9.44l4-.78v.11q0,1.59,0,3.17c0,.65,0,1.3,0,2a1.09,1.09,0,0,1-.51,1,1.06,1.06,0,0,1-.81.22.57.57,0,0,1-.4-.86,1.24,1.24,0,0,1,1.38-.7l.18.08Z"/></g></g></svg>