<svg xmlns="http://www.w3.org/2000/svg" viewBox="0 0 126.48 16.26"><defs><style>.cls-1{fill:#fbfcfc;fill-rule:evenodd;}</style></defs><title>ClassCode</title><g id="Calque_2" data-name="Calque 2"><g id="Calque_1-2" data-name="Calque 1"><path class="cls-1" d="M102.13,7.09c0,2,0,4.07,0,6.11a2.7,2.7,0,0,1-3,3H95.08a2.66,2.66,0,0,1-2.88-2.7q-.08-3.19,0-6.37A2.66,2.66,0,0,1,95,4.41c1.13,0,2.26,0,3.39,0,.57,0,.71-.18.69-.72,0-1,0-2.08,0-3.12,0-.45.15-.58.58-.56.64,0,1.28,0,1.92,0,.44,0,.56.14.56.57C102.12,2.75,102.13,4.92,102.13,7.09Zm-3,3.35c0-.66,0-1.33,0-2s-.25-1-1-1-1.28,0-1.92,0a.84.84,0,0,0-1,.93c0,1.33,0,2.65,0,4,0,.45.21.79.7.8.84,0,1.68,0,2.52,0a.61.61,0,0,0,.67-.72C99.11,11.77,99.12,11.1,99.12,10.44Z"/><path class="cls-1" d="M74.65.51c1.13,0,2.26,0,3.39,0,.41,0,.6.08.58.54,0,.77,0,1.55,0,2.32,0,.45-.15.57-.57.56-1.7,0-3.41,0-5.11,0-1,0-1.19.21-1.2,1.22,0,2.1,0,4.21,0,6.31,0,1.09.23,1.32,1.33,1.32,1.66,0,3.32,0,5,0,.42,0,.59.12.57.57,0,.77,0,1.55,0,2.33,0,.39-.09.54-.51.54-2.28,0-4.56,0-6.84,0a3,3,0,0,1-2.88-2.57,10.8,10.8,0,0,1-.1-1.85c0-2.81-.1-5.63.07-8.43.12-2,1-2.75,3-2.81,1.11,0,2.21,0,3.32,0Z"/><path class="cls-1" d="M13.25,8.39c.06-1.74-.08-3.45.08-5.15s1-2.64,2.74-2.7c2.37-.08,4.74,0,7.11,0,.32,0,.42.12.42.43,0,.77,0,1.55,0,2.32,0,.51-.13.69-.66.68-1.66,0-3.32,0-5,0-1,0-1.24.2-1.24,1.25q0,3.12,0,6.24c0,1.15.22,1.36,1.35,1.36,1.64,0,3.28,0,4.92,0,.45,0,.63.11.61.59,0,.77,0,1.55,0,2.32,0,.43-.15.52-.54.51-2.26,0-4.52,0-6.78,0a3,3,0,0,1-2.93-2.66C13.14,11.81,13.33,10.07,13.25,8.39Z"/><path class="cls-1" d="M40.19,10.34c0,1,0,1.95,0,2.92a2.68,2.68,0,0,1-2.92,2.93h-4c-1.9,0-2.78-.75-3-2.63a12.5,12.5,0,0,1,0-2.91A2.48,2.48,0,0,1,33,8.35c1.22,0,2.43,0,3.65,0,.21,0,.52.13.53-.29s0-.64-.42-.71a3.69,3.69,0,0,0-.66-.05c-1.7,0-3.41,0-5.11,0-.46,0-.63-.12-.6-.59s0-1.24,0-1.86c0-.3.08-.45.41-.45,2.32,0,4.65-.13,7,.08a2.43,2.43,0,0,1,2.45,2.73C40.2,8.26,40.19,9.3,40.19,10.34Zm-5,.8h-1c-.75,0-.9.15-.91.88,0,.92.18,1.22.89,1.24s1.37,0,2.06,0,.87-.3.88-.9c0-1.08-.11-1.23-1.19-1.23Z"/><path class="cls-1" d="M110.07,16.19c-1.06,0-2.13,0-3.19,0a2.52,2.52,0,0,1-2.64-2.37,55.82,55.82,0,0,1,0-6.77,2.56,2.56,0,0,1,2.86-2.65q2,0,4.05,0A2.58,2.58,0,0,1,114,7.35c0,.77.31,1.71-.13,2.26s-1.33.61-2,.88l-4,1.53c-.3.11-.6.2-.5.63a.64.64,0,0,0,.72.53c1.73,0,3.45,0,5.18,0,.64,0,.88.16.8.81s.3,1.69-.16,2.1-1.35.11-2.05.12Zm-2.86-7.46c0,.75,0,.76.72.5s1.66-.6,2.49-.91c.17-.06.46-.06.44-.31s-.27-.36-.49-.37c-.7,0-1.41-.07-2.12,0S107.23,7.91,107.22,8.73Z"/><path class="cls-1" d="M90.26,10.31c0,1,0,2.08,0,3.12a2.56,2.56,0,0,1-2.79,2.76H83a2.4,2.4,0,0,1-2.71-2.39,51.77,51.77,0,0,1,0-6.9c.09-1.64,1-2.43,2.72-2.49,1.5,0,3-.05,4.51,0a2.59,2.59,0,0,1,2.73,2.9C90.27,8.32,90.26,9.31,90.26,10.31Zm-7,0c0,.64,0,1.28,0,1.92s.29.9.95.91,1.33,0,2,0,1-.29,1-1c0-1.24,0-2.47,0-3.71,0-.67-.3-1-1-1s-1.37,0-2.05,0a.84.84,0,0,0-.93,1C83.3,9.05,83.3,9.7,83.3,10.34Z"/><path class="cls-1" d="M45.38,16.19c-1,0-2,0-3.05,0-.38,0-.51-.13-.5-.5,0-.64,0-1.28,0-1.92,0-.47.15-.62.61-.61,1.37,0,2.74,0,4.12,0h.53c.42,0,.68-.23.67-.65a.64.64,0,0,0-.7-.71H44.67A2.67,2.67,0,0,1,41.93,9q0-.9,0-1.79a2.52,2.52,0,0,1,2.65-2.83c1.95-.06,3.9,0,5.84,0,.35,0,.47.13.46.47,0,.71,0,1.42,0,2.12,0,.4-.17.47-.52.47-1.42,0-2.83,0-4.25,0a5.17,5.17,0,0,0-.53,0c-.4,0-.68.25-.67.68s.29.62.71.62h2.32a2.73,2.73,0,0,1,2.89,3c0,.58,0,1.15,0,1.73A2.62,2.62,0,0,1,48,16.19Z"/><path class="cls-1" d="M56,16.19c-1,0-1.95,0-2.92,0-.48,0-.69-.11-.65-.62a10.82,10.82,0,0,0,0-1.66c0-.57.12-.78.73-.76,1.44,0,2.88,0,4.32,0,.33,0,.68,0,.84-.39a.69.69,0,0,0-.64-1c-.75,0-1.5,0-2.26,0a2.68,2.68,0,0,1-2.89-2.88q0-.83,0-1.66a2.54,2.54,0,0,1,2.7-2.85c1.92-.05,3.85,0,5.78,0,.4,0,.48.17.48.52,0,.66,0,1.33,0,2,0,.45-.15.56-.57.55-1.42,0-2.83,0-4.25,0a3,3,0,0,0-.59,0,.61.61,0,0,0-.55.71.58.58,0,0,0,.62.56h2.39a2.73,2.73,0,0,1,2.9,3c0,.58,0,1.15,0,1.73a2.62,2.62,0,0,1-2.76,2.73Z"/><path class="cls-1" d="M25.22,8.16c0-2.48,0-5,0-7.43,0-.54.15-.76.71-.71a9.5,9.5,0,0,0,1.59,0c.6-.05.79.14.78.76,0,4.29,0,8.58,0,12.88,0,.69,0,1.37,0,2.06,0,.37-.11.51-.49.5-.66,0-1.33,0-2,0-.48,0-.59-.16-.59-.61C25.23,13.11,25.22,10.63,25.22,8.16Z"/><path class="cls-1" d="M120.59,5.63c.27.16,0,.66.15.54.33-.27.88.63,1-.25,0-.18.25,0,.29.06.28.81.87.48,1.4.4.21.17-.27.51.13.59.24.05.32-.17.36-.39s.11-.25.21-.16.36,0,.35.23c0,.52.22.34.47.22s.55,0,.82.22a2,2,0,0,1,.6,2.33,3.68,3.68,0,0,1-1.07,1.75,8.71,8.71,0,0,1-2.48,1.38,1,1,0,0,0-.53.52c-.21.34-.46.58-.89.41-.24-.1-.16.11-.22.19-.2.27-.05.72-.46.88,0,0-.06.14,0,.16.55.56-.11.63-.36.78a2.69,2.69,0,0,0-.46.34,1.19,1.19,0,0,1-1.56.12.73.73,0,0,1-.19-1,11.93,11.93,0,0,1,2.19-3.12c.72-.78,1.62-1.37,2.27-2.22.17-.23.14-.19-.07-.32-1.29-.79-3-.75-4.09-1.91-.35-.36-.7-1.58-.32-1.85a3,3,0,0,1,1.34-.67.23.23,0,0,1,.27.24C119.72,5.84,120.1,5.88,120.59,5.63Zm4.34,2.46c.15-.11.34-.2.35-.42s-.12-.17-.24-.19-.33.1-.31.31S124.72,8.07,124.93,8.09Z"/><path class="cls-1" d="M6.51,8c0,.48-.31.47-.7.64s-.91,0-1.34.11-.3.32-.28.53c0,.53-.11.87-.68.94-.07,0-.14.1-.21.15a4.54,4.54,0,0,0,1.95.82c.29.06.27.31.42.44.53.46,1.41.17,1.82.92.12.22.06.46.27.67.34-.61.6-.25.91.06A5.33,5.33,0,0,1,9.9,14.74c.12.26.33.68-.06.79s-.87.75-1.29,0c-.17-.31-.54-.46-.42-1,.07-.29-.44,0-.63-.22a.28.28,0,0,0-.42.17c0,.11.13.29-.1.31s-.27-.14-.3-.3c-.07-.36,0-.75-.68-.59a1.34,1.34,0,0,1-1.24-.69c-.26.51-.58.33-1,.14-.83-.37-1.56-1-2.59-.88-.8.09-1.27-1-1.13-1.75C.27,9.5,1.42,9.26,2.1,8.53S3.33,7.46,3.87,6.85a7.61,7.61,0,0,1,1.08-.74c.31-.25.3.29.6.13-.44-.8.17-.94.75-1.14a1,1,0,0,0,.32-.23c.37-.34.94-.24,1,.23s.35.17.51.25c.15-.37.26-.19.42,0s.12.58.45.11c.11-.15.21.13.2.26a1.38,1.38,0,0,1-1,1.41,1,1,0,0,0-.65.53c-.22.41-.52.43-.88.18C6.47,7.8,6.43,7.85,6.51,8Z"/><path class="cls-1" d="M62.9,6.49c.29-.62.5-1.13.76-1.61a.76.76,0,0,0-.17-1.12,1.85,1.85,0,0,1-.33-2.26,1.9,1.9,0,0,1,1.95-1,2,2,0,0,1,1.55,2.59c-.4,1.07-1,2.09-1.44,3.13a.4.4,0,0,1-.42.24Z"/></g></g></svg>