<svg xmlns="http://www.w3.org/2000/svg" viewBox="0 0 108.06 46.11"><defs><style>.cls-1{fill:#fff;fill-rule:evenodd;}</style></defs><title>Colombbus</title><g id="Calque_2" data-name="Calque 2"><g id="Calque_1-2" data-name="Calque 1"><path class="cls-1" d="M29.76,27.89a6.89,6.89,0,0,1,.3-2.69,4.6,4.6,0,0,1,5.1-2.78,4.47,4.47,0,0,1,3.55,4.42,17.81,17.81,0,0,1-.12,3.06A4.46,4.46,0,0,1,29.76,29Q29.76,28.43,29.76,27.89Zm6.68,0h0c0-.39,0-.78,0-1.17a2.31,2.31,0,0,0-2.06-2.28,2.12,2.12,0,0,0-2.29,2,15.79,15.79,0,0,0,0,2.76,2.17,2.17,0,0,0,4.33,0A10.41,10.41,0,0,0,36.44,27.93Z"/><path class="cls-1" d="M49.4,18.88c0,.69,0,1.37,0,2.06,0,.53-.19.75-.71.77H47.9a.7.7,0,0,1-.76-.78c0-.86,0-1.72,0-2.58,0-.09,0-.18,0-.26,0-1.43-.39-1.93-1.77-2.28l-13.3-3.36L13.3,7.69l-3.23-.81c-1-.25-1.71.25-1.66,1.3a17.55,17.55,0,0,0,.37,2.25q1,5.57,2.08,11.14l2.43,13c.21,1.13.39,2.26.65,3.38a4.16,4.16,0,0,0,.55,1.29A1.56,1.56,0,0,0,16,40l9.81-.82,7.53-.62c2.81-.24,5.62-.47,8.43-.73,1.31-.12,2.63-.26,3.93-.47,1.11-.18,1.38-.58,1.41-1.71,0-.35,0-.7,0-1a.37.37,0,0,1,.41-.38H49c.25,0,.4.12.39.35-.05,1.18-.08,2.37-.21,3.54a1.89,1.89,0,0,1-1.37,1.63,29,29,0,0,1-3.25.82c-4.3.81-8.6,1.58-12.91,2.37L18.33,45.32c-1.45.26-2.9.52-4.35.71a5.49,5.49,0,0,1-2.48-.14,3.19,3.19,0,0,1-1.78-1.62A12.8,12.8,0,0,1,8.59,41Q6.87,33.62,5.15,26.25,2.88,16.58.6,6.93a14.54,14.54,0,0,1-.6-4A3.41,3.41,0,0,1,.47,1.2,2.7,2.7,0,0,1,2.8,0a12.5,12.5,0,0,1,4.37.7L35.39,9.53c2.34.73,4.68,1.47,7,2.19,1.27.39,2.57.7,3.84,1.12a7.89,7.89,0,0,1,1.76.88,3,3,0,0,1,1.38,2.48c.05.9,0,1.79,0,2.69Z"/><path class="cls-1" d="M69.75,29.47c0,1,0,2,0,3,0,.49-.21.71-.7.72h-.75c-.58,0-.82-.23-.82-.81q0-2.73,0-5.47a2.43,2.43,0,0,0-.73-1.82,2,2,0,0,0-2.07-.52,2.16,2.16,0,0,0-1.53,1.69,3.12,3.12,0,0,0-.07.7c0,1.81,0,3.62,0,5.43,0,.59-.21.8-.81.8H61.6c-.56,0-.8-.24-.8-.79,0-1.59,0-3.17,0-4.76a6.56,6.56,0,0,0-.11-1.48,2.15,2.15,0,0,0-2.41-1.66,2.21,2.21,0,0,0-1.85,2.14c0,1.9,0,3.79,0,5.69,0,.67-.2.86-.87.86h-.64c-.54,0-.77-.23-.77-.78,0-1.25,0-2.5,0-3.74a20.27,20.27,0,0,1,.06-2.39A4.25,4.25,0,0,1,57,22.66a4.2,4.2,0,0,1,4.48.74c.38.32.54.32,1,0a4.42,4.42,0,0,1,7.15,2.37,9.49,9.49,0,0,1,.14,1.89C69.77,28.25,69.75,28.86,69.75,29.47Z"/><path class="cls-1" d="M71.34,26V19.73c0-.73.14-.87.87-.87h.71c.52,0,.69.18.71.7s0,.9,0,1.35,0,.75,0,1.12.12.58.59.46a4.43,4.43,0,0,1,4.33,1.11,4.18,4.18,0,0,1,1.39,3.16,21,21,0,0,1-.08,3,4.38,4.38,0,0,1-4.71,3.7c-1-.08-2.06-.17-3.09-.27-.53,0-.72-.27-.72-.8Q71.33,29.21,71.34,26Zm2.29,2.2c0,.76,0,1.52,0,2.28a.66.66,0,0,0,.67.74c.35,0,.69.07,1,.08a2.2,2.2,0,0,0,2.27-2,20.9,20.9,0,0,0,0-2.84,2.17,2.17,0,0,0-2.88-1.88,1.51,1.51,0,0,0-1.1,1.51C73.62,26.81,73.63,27.52,73.63,28.23Z"/><path class="cls-1" d="M81.29,26V19.8c0-.83.11-.94,1-.94h.6c.56,0,.72.16.72.71,0,.77,0,1.55,0,2.32s.09.72.72.58A4.51,4.51,0,0,1,89.9,27a19.17,19.17,0,0,1-.09,2.8,4.38,4.38,0,0,1-4.71,3.69c-1-.08-2-.17-3-.26-.62-.06-.78-.24-.79-.85Zm2.28,2.25c0,.74,0,1.47,0,2.21a.68.68,0,0,0,.71.78c.32,0,.64.07,1,.08a2.22,2.22,0,0,0,2.32-2.13c0-.87,0-1.74,0-2.62a2.15,2.15,0,0,0-.93-1.71,2.08,2.08,0,0,0-2.23-.16,1.6,1.6,0,0,0-.85,1.69C83.59,27,83.57,27.64,83.57,28.27Z"/><path class="cls-1" d="M43.82,27.89a6.91,6.91,0,0,1,.3-2.69,4.6,4.6,0,0,1,5.1-2.78,4.47,4.47,0,0,1,3.55,4.42,17.52,17.52,0,0,1-.12,3.06A4.46,4.46,0,0,1,43.82,29Zm6.68,0h0c0-.39,0-.77,0-1.16a2.31,2.31,0,0,0-2.06-2.28,2.12,2.12,0,0,0-2.29,2,15.78,15.78,0,0,0,0,2.76,2.17,2.17,0,0,0,4.33,0A10.31,10.31,0,0,0,50.5,27.92Z"/><path class="cls-1" d="M91.24,26.18c0-1,0-2,0-3,0-.54.21-.74.75-.75h.82c.49,0,.71.24.71.76,0,1.8,0,3.6,0,5.39a3.27,3.27,0,0,0,.23,1.2,2.14,2.14,0,0,0,2.4,1.24,2.18,2.18,0,0,0,1.76-2.17c0-1.87,0-3.74,0-5.62,0-.62.19-.8.8-.81h.82a.62.62,0,0,1,.64.64c0,2,.06,4,0,6a4.47,4.47,0,0,1-8.93-.23C91.23,28,91.24,27.1,91.24,26.18Z"/><path class="cls-1" d="M21,27.67a11.23,11.23,0,0,1,.21-2,4.29,4.29,0,0,1,3.3-3.22,4.22,4.22,0,0,1,4.37,1.36c.39.43.36.66-.11,1l-.69.51c-.43.31-.56.3-.91-.1a2,2,0,0,0-1.48-.77,2.17,2.17,0,0,0-2.34,2.07c0,.88,0,1.77,0,2.66A2.26,2.26,0,0,0,25,31.28a2.12,2.12,0,0,0,2.34-1,.51.51,0,0,1,.82-.2q.45.26.89.55c.33.21.37.41.15.75a4.58,4.58,0,0,1-4.67,2,4.45,4.45,0,0,1-3.48-3.63C21,29.14,21,28.52,21,27.67Z"/><path class="cls-1" d="M104.49,33.48a3.56,3.56,0,0,1-2.78-1.32c-.33-.42-.28-.67.15-1l.87-.58a.55.55,0,0,1,.8.09A1.17,1.17,0,0,0,105,31a1.27,1.27,0,0,0,.67-1.35,1.36,1.36,0,0,0-1.23-1.07,3.17,3.17,0,0,1-.69-6.21,3,3,0,0,1,3,.74c.38.35.36.59,0,.94l-.58.53c-.45.42-.54.42-1.06.08a.86.86,0,0,0-1.07,0,.92.92,0,0,0-.32,1,.88.88,0,0,0,.82.61,3.5,3.5,0,0,1,2.9,1.67,3.4,3.4,0,0,1,.12,3.63A3.49,3.49,0,0,1,104.49,33.48Z"/><path class="cls-1" d="M42.34,26q0,3.2,0,6.4c0,.56-.2.77-.76.77h-.75c-.51,0-.74-.25-.74-.77q0-4,0-8.05,0-2.4,0-4.79c0-.56.15-.71.71-.72h.82c.57,0,.72.16.72.75q0,2.34,0,4.68Z"/><path class="cls-1" d="M49.47,27.77c0,.4,0,.8,0,1.2a1.17,1.17,0,1,1-2.33,0q0-1.24,0-2.48a1.2,1.2,0,0,1,1.13-1.19,1.22,1.22,0,0,1,1.2,1.21C49.48,26.94,49.47,27.35,49.47,27.77Z"/></g></g></svg>