<svg xmlns="http://www.w3.org/2000/svg" viewBox="0 0 86.58 42.55"><defs><style>.cls-1{fill:#fff;}</style></defs><title>D-Clics-Numeriques</title><g id="Calque_2" data-name="Calque 2"><g id="Calque_1-2" data-name="Calque 1"><polygon class="cls-1" points="0.05 23.86 1.84 23.86 6.05 30.32 6.05 23.86 7.92 23.86 7.92 33.68 6.12 33.68 1.92 27.24 1.92 33.68 0.05 33.68 0.05 23.86"/><path class="cls-1" d="M10.5,23.86h1.88v6.35a3.3,3.3,0,0,0,.14,1.16,1.16,1.16,0,0,0,.47.54,1.5,1.5,0,0,0,.8.2,1.55,1.55,0,0,0,.85-.23,1.19,1.19,0,0,0,.49-.58A4.29,4.29,0,0,0,15.28,30V23.86h1.88v5.86A8.45,8.45,0,0,1,17,31.77a2.91,2.91,0,0,1-.64,1.11,3,3,0,0,1-1.09.79,3.65,3.65,0,0,1-1.43.26A3.46,3.46,0,0,1,12,33.44a2.86,2.86,0,0,1-1.13-1.23,6.51,6.51,0,0,1-.34-2.49Z"/><polygon class="cls-1" points="20.69 23.86 22.51 23.86 24.79 30.71 27.08 23.86 28.9 23.86 30.55 33.68 28.74 33.68 27.69 27.48 25.6 33.68 23.96 33.68 21.89 27.48 20.81 33.68 18.99 33.68 20.69 23.86"/><path class="cls-1" d="M32.46,23.86h5.36v1.83H34.31v1.78h3.51v1.79H34.31v2.59h3.51v1.84H32.46Zm3-3.38h2.16L35.18,23.1H33.87Z"/><path class="cls-1" d="M40.1,23.86h2a6.54,6.54,0,0,1,2.32.29,2.37,2.37,0,0,1,1.11,1,3,3,0,0,1,.42,1.6,2.72,2.72,0,0,1-.46,1.62,2.82,2.82,0,0,1-1.4,1l2.33,4.37h-2l-2.21-4.16H42v4.16H40.1ZM42,27.7h.59a2.26,2.26,0,0,0,1.23-.24.87.87,0,0,0,.34-.77,1,1,0,0,0-.17-.56.93.93,0,0,0-.45-.34,3.39,3.39,0,0,0-1-.1H42Z"/><rect class="cls-1" x="48.18" y="23.86" width="1.86" height="9.82"/><path class="cls-1" d="M61,32.24l1.71,2.21H60.48l-.87-1.12a5.18,5.18,0,0,1-6.08-.94,5.16,5.16,0,0,1,3.65-8.79,4.89,4.89,0,0,1,3.59,1.51,5.24,5.24,0,0,1,.2,7.12m-1.17-1.51a3.41,3.41,0,0,0,.59-2,3.29,3.29,0,0,0-.94-2.37,3.06,3.06,0,0,0-2.28-1,3.1,3.1,0,0,0-2.31.95,3.3,3.3,0,0,0-.93,2.41,3.14,3.14,0,0,0,1.17,2.58,3.21,3.21,0,0,0,2.08.74,3.08,3.08,0,0,0,1.26-.26L56.7,29.59h2.23Z"/><path class="cls-1" d="M64.38,23.86h1.88v6.35a3.31,3.31,0,0,0,.14,1.16,1.16,1.16,0,0,0,.47.54,1.5,1.5,0,0,0,.8.2,1.55,1.55,0,0,0,.85-.23,1.19,1.19,0,0,0,.49-.58A4.25,4.25,0,0,0,69.15,30V23.86H71v5.86a8.46,8.46,0,0,1-.17,2.05,2.9,2.9,0,0,1-.64,1.11,3,3,0,0,1-1.08.79,3.66,3.66,0,0,1-1.43.26,3.46,3.46,0,0,1-1.86-.49,2.86,2.86,0,0,1-1.13-1.23,6.52,6.52,0,0,1-.34-2.49Z"/><polygon class="cls-1" points="73.62 23.86 78.98 23.86 78.98 25.69 75.47 25.69 75.47 27.46 78.98 27.46 78.98 29.26 75.47 29.26 75.47 31.84 78.98 31.84 78.98 33.68 73.62 33.68 73.62 23.86"/><path class="cls-1" d="M86.29,25.19,84.9,26.41a2,2,0,0,0-1.48-1,.91.91,0,0,0-.6.2.58.58,0,0,0-.23.44.76.76,0,0,0,.17.47,12.63,12.63,0,0,0,1.37,1.26q1.07.9,1.3,1.13a3.93,3.93,0,0,1,.81,1.1,2.76,2.76,0,0,1,.24,1.14,2.63,2.63,0,0,1-.84,2,3,3,0,0,1-2.18.79,3.25,3.25,0,0,1-1.83-.51,4.06,4.06,0,0,1-1.33-1.62l1.57-.95q.71,1.3,1.63,1.3a1.21,1.21,0,0,0,.81-.28.84.84,0,0,0,.33-.65,1.12,1.12,0,0,0-.25-.67,7.09,7.09,0,0,0-1.09-1,11,11,0,0,1-2.07-2,2.57,2.57,0,0,1-.47-1.42,2.32,2.32,0,0,1,.78-1.75,2.7,2.7,0,0,1,1.92-.73,3,3,0,0,1,1.4.34,5.09,5.09,0,0,1,1.44,1.24"/><path class="cls-1" d="M.05,36.79h1A3.31,3.31,0,0,1,2.54,37a1.9,1.9,0,0,1,.79.8,2.57,2.57,0,0,1,.31,1.29,2.59,2.59,0,0,1-.17,1,2,2,0,0,1-.48.73,1.7,1.7,0,0,1-.66.4,4.7,4.7,0,0,1-1.24.11h-1Zm.86.83v2.86h.4a2,2,0,0,0,.86-.14,1,1,0,0,0,.44-.46,1.67,1.67,0,0,0,.17-.79A1.5,1.5,0,0,0,2.37,38a1.61,1.61,0,0,0-1.17-.36Z"/><path class="cls-1" d="M7.79,39.89H5.09a.9.9,0,0,0,.31.57,1,1,0,0,0,.65.21,1.13,1.13,0,0,0,.81-.33l.71.33a1.69,1.69,0,0,1-.63.56,2,2,0,0,1-.88.18,1.73,1.73,0,0,1-1.28-.5,1.69,1.69,0,0,1-.5-1.25,1.75,1.75,0,0,1,.49-1.27A1.66,1.66,0,0,1,6,37.89a1.72,1.72,0,0,1,1.29.51,1.83,1.83,0,0,1,.5,1.34Zm-.84-.66a.84.84,0,0,0-.33-.45,1,1,0,0,0-.57-.18,1,1,0,0,0-.62.2,1.09,1.09,0,0,0-.31.43Zm-.79-3.08h1L6,37.36h-.6Z"/><path class="cls-1" d="M11.81,38.65l-.7.38a1.18,1.18,0,0,0-.39-.29,1.2,1.2,0,0,0-.45-.08,1,1,0,0,0-.76.28,1,1,0,0,0-.29.72.92.92,0,0,0,.28.7,1,1,0,0,0,.74.27,1.07,1.07,0,0,0,.88-.39l.66.45a1.81,1.81,0,0,1-1.52.7,1.82,1.82,0,0,1-1.38-.52,1.74,1.74,0,0,1,.42-2.77,2,2,0,0,1,1-.23,2,2,0,0,1,.9.2,1.69,1.69,0,0,1,.65.57"/><path class="cls-1" d="M14.21,37.89a1.8,1.8,0,0,1,.89.24A1.75,1.75,0,0,1,16,39.65a1.76,1.76,0,0,1-.24.89,1.69,1.69,0,0,1-.64.65,1.77,1.77,0,0,1-.9.23A1.67,1.67,0,0,1,13,40.9a1.76,1.76,0,0,1,1.23-3m0,.79a.87.87,0,0,0-.65.27,1,1,0,0,0-.26.7,1,1,0,0,0,.26.71.86.86,0,0,0,.65.27.87.87,0,0,0,.66-.27,1.08,1.08,0,0,0,0-1.41.87.87,0,0,0-.66-.27"/><path class="cls-1" d="M16.73,38h.85v1.61a2.24,2.24,0,0,0,.06.65.57.57,0,0,0,.21.28.59.59,0,0,0,.35.1.6.6,0,0,0,.36-.1.58.58,0,0,0,.22-.29,2.24,2.24,0,0,0,.05-.62V38h.84v1.42a3.48,3.48,0,0,1-.14,1.2,1.31,1.31,0,0,1-.5.61,1.53,1.53,0,0,1-.84.21,1.48,1.48,0,0,1-.89-.25,1.3,1.3,0,0,1-.48-.69,4.16,4.16,0,0,1-.1-1.11Z"/><polygon class="cls-1" points="20.22 37.98 21.08 37.98 21.93 39.95 22.77 37.98 23.62 37.98 22.2 41.33 21.65 41.33 20.22 37.98"/><path class="cls-1" d="M24,38h.72v.42A.89.89,0,0,1,25,38a.75.75,0,0,1,.42-.13.76.76,0,0,1,.34.09l-.26.72a.57.57,0,0,0-.24-.07.39.39,0,0,0-.33.24,2.22,2.22,0,0,0-.13.94v1.52H24Z"/><path class="cls-1" d="M26.58,36.6a.52.52,0,0,1,.38.16.54.54,0,0,1,.16.39.52.52,0,0,1-.16.38.51.51,0,0,1-.38.16.52.52,0,0,1-.38-.16.54.54,0,0,1-.16-.39.54.54,0,0,1,.53-.54M26.16,38H27v3.35h-.84Z"/><path class="cls-1" d="M27.63,38h.72v.42a.89.89,0,0,1,.31-.38.75.75,0,0,1,.42-.13.77.77,0,0,1,.34.09l-.26.72a.57.57,0,0,0-.24-.07.38.38,0,0,0-.33.24,2.22,2.22,0,0,0-.13.94v1.52h-.83Z"/><path class="cls-1" d="M31.83,36.79h1a3.32,3.32,0,0,1,1.47.25,1.9,1.9,0,0,1,.79.8,2.79,2.79,0,0,1,.14,2.25,2,2,0,0,1-.48.73,1.68,1.68,0,0,1-.66.4,4.7,4.7,0,0,1-1.24.11h-1Zm.86.83v2.86h.4a2,2,0,0,0,.86-.14,1,1,0,0,0,.44-.46,1.67,1.67,0,0,0,.17-.79,1.5,1.5,0,0,0-.4-1.12A1.61,1.61,0,0,0,33,37.63Z"/><path class="cls-1" d="M39.57,39.89h-2.7a.89.89,0,0,0,.31.57,1,1,0,0,0,.65.21,1.13,1.13,0,0,0,.81-.33l.71.33a1.69,1.69,0,0,1-.64.56,2,2,0,0,1-.88.18,1.73,1.73,0,0,1-1.28-.5,1.69,1.69,0,0,1-.5-1.25,1.75,1.75,0,0,1,.49-1.27,1.66,1.66,0,0,1,1.24-.51,1.72,1.72,0,0,1,1.29.51,1.83,1.83,0,0,1,.5,1.34Zm-.84-.66a.84.84,0,0,0-.33-.45,1,1,0,0,0-.57-.18,1,1,0,0,0-.62.2,1.09,1.09,0,0,0-.31.43Zm-.79-3.08h1l-1.13,1.21h-.6Z"/><path class="cls-1" d="M43.6,38.65l-.7.38a1,1,0,0,0-.84-.37,1,1,0,0,0-.76.28,1,1,0,0,0-.29.72.92.92,0,0,0,.28.7,1,1,0,0,0,.74.27,1.07,1.07,0,0,0,.88-.39l.66.45a1.81,1.81,0,0,1-1.52.7,1.82,1.82,0,0,1-1.38-.52,1.74,1.74,0,0,1,.42-2.77,2,2,0,0,1,1-.23,2,2,0,0,1,.89.2,1.68,1.68,0,0,1,.65.57"/><path class="cls-1" d="M44.22,38h.72v.42a.89.89,0,0,1,.31-.38.75.75,0,0,1,.42-.13A.77.77,0,0,1,46,38l-.26.72a.57.57,0,0,0-.24-.07.38.38,0,0,0-.33.24,2.2,2.2,0,0,0-.13.94v1.52h-.83Z"/><polygon class="cls-1" points="46.13 37.98 46.98 37.98 47.85 40.08 48.81 37.98 49.68 37.98 47.58 42.55 46.71 42.55 47.4 41.07 46.13 37.98"/><path class="cls-1" d="M51.05,38v.37a1.63,1.63,0,0,1,.49-.34,1.44,1.44,0,0,1,.57-.11,1.46,1.46,0,0,1,1.11.5,1.8,1.8,0,0,1,.46,1.27,1.76,1.76,0,0,1-.47,1.25,1.5,1.5,0,0,1-1.12.5,1.38,1.38,0,0,1-.54-.1,1.62,1.62,0,0,1-.5-.34v1.58h-.83V38Zm.88.69a.88.88,0,0,0-.66.27,1,1,0,0,0-.26.71,1,1,0,0,0,.26.72.87.87,0,0,0,.66.28.85.85,0,0,0,.65-.28,1.1,1.1,0,0,0,0-1.42.86.86,0,0,0-.65-.27"/><polygon class="cls-1" points="54.55 36.74 55.39 36.74 55.39 37.98 55.88 37.98 55.88 38.7 55.39 38.7 55.39 41.33 54.55 41.33 54.55 38.7 54.12 38.7 54.12 37.98 54.55 37.98 54.55 36.74"/><path class="cls-1" d="M59.75,39.89h-2.7a.89.89,0,0,0,.31.57,1,1,0,0,0,.65.21,1.13,1.13,0,0,0,.81-.33l.71.33a1.68,1.68,0,0,1-.63.56,2,2,0,0,1-.88.18,1.73,1.73,0,0,1-1.28-.5,1.69,1.69,0,0,1-.5-1.25,1.75,1.75,0,0,1,.49-1.27A1.66,1.66,0,0,1,58,37.89a1.72,1.72,0,0,1,1.29.51,1.82,1.82,0,0,1,.5,1.34Zm-.84-.66a.85.85,0,0,0-.33-.46A1,1,0,0,0,58,38.6a1,1,0,0,0-.62.2,1.08,1.08,0,0,0-.31.43Z"/><path class="cls-1" d="M60.3,38H61v.42a.89.89,0,0,1,.31-.38.75.75,0,0,1,.42-.13.77.77,0,0,1,.34.09l-.26.72a.57.57,0,0,0-.24-.07.38.38,0,0,0-.33.24,2.2,2.2,0,0,0-.13.94v1.52H60.3Z"/><path class="cls-1" d="M64.5,36.79h1A3.32,3.32,0,0,1,67,37a1.91,1.91,0,0,1,.79.8,2.78,2.78,0,0,1,.14,2.25,2,2,0,0,1-.48.73,1.7,1.7,0,0,1-.66.4,4.7,4.7,0,0,1-1.24.11h-1Zm.86.83v2.86h.4a2,2,0,0,0,.86-.14,1,1,0,0,0,.44-.46,1.66,1.66,0,0,0,.17-.79,1.5,1.5,0,0,0-.4-1.12,1.61,1.61,0,0,0-1.17-.36Z"/><path class="cls-1" d="M69.21,36.6a.52.52,0,0,1,.38.16.53.53,0,0,1,.16.39.52.52,0,0,1-.16.38.5.5,0,0,1-.37.16.51.51,0,0,1-.38-.16.54.54,0,0,1-.16-.39.51.51,0,0,1,.16-.38.51.51,0,0,1,.38-.16M68.79,38h.84v3.35h-.84Z"/><path class="cls-1" d="M70.06,38h.3c0-.44,0-.7,0-.78a.65.65,0,0,1,.23-.44.87.87,0,0,1,.56-.16,1.76,1.76,0,0,1,.59.12v.64a1.21,1.21,0,0,0-.3-.05.32.32,0,0,0-.22.06.27.27,0,0,0,0,.19V38h.53v.71H71.2v2.64h-.84V38.68h-.3Z"/><path class="cls-1" d="M71.89,38h.3c0-.44,0-.7,0-.78a.64.64,0,0,1,.23-.44A.87.87,0,0,1,73,36.6a1.76,1.76,0,0,1,.59.12v.64a1.21,1.21,0,0,0-.3-.05.32.32,0,0,0-.22.06.26.26,0,0,0,0,.19V38h.53v.71H73v2.64h-.84V38.68h-.3Z"/><path class="cls-1" d="M74.11,38H75v1.61a2.24,2.24,0,0,0,.06.65.57.57,0,0,0,.21.28.59.59,0,0,0,.35.1.6.6,0,0,0,.36-.1.58.58,0,0,0,.22-.29,2.22,2.22,0,0,0,.05-.62V38h.84v1.42a3.49,3.49,0,0,1-.14,1.2,1.31,1.31,0,0,1-.5.61,1.53,1.53,0,0,1-.84.21,1.49,1.49,0,0,1-.89-.25,1.31,1.31,0,0,1-.48-.69,4.17,4.17,0,0,1-.1-1.11Z"/><path class="cls-1" d="M80,38.44l-.52.52a.88.88,0,0,0-.58-.31.37.37,0,0,0-.22.06.18.18,0,0,0-.08.15.18.18,0,0,0,.05.12.94.94,0,0,0,.25.16l.31.15a1.81,1.81,0,0,1,.67.49,1,1,0,0,1-.15,1.33,1.26,1.26,0,0,1-.88.3,1.4,1.4,0,0,1-1.17-.57l.52-.56a1.19,1.19,0,0,0,.35.28.76.76,0,0,0,.35.11.42.42,0,0,0,.27-.08.23.23,0,0,0,.1-.19q0-.19-.37-.38l-.28-.14q-.81-.41-.81-1a.88.88,0,0,1,.31-.68,1.11,1.11,0,0,1,.78-.28,1.39,1.39,0,0,1,.61.14,1.36,1.36,0,0,1,.49.41"/><path class="cls-1" d="M84.15,39.89h-2.7a.89.89,0,0,0,.31.57,1,1,0,0,0,.65.21,1.13,1.13,0,0,0,.81-.33l.71.33a1.68,1.68,0,0,1-.63.56,2,2,0,0,1-.88.18,1.73,1.73,0,0,1-1.28-.5,1.69,1.69,0,0,1-.5-1.25,1.75,1.75,0,0,1,.49-1.27,1.66,1.66,0,0,1,1.24-.51,1.72,1.72,0,0,1,1.29.51,1.83,1.83,0,0,1,.5,1.34Zm-.84-.66a.84.84,0,0,0-.33-.46,1,1,0,0,0-.57-.17,1,1,0,0,0-.62.2,1.09,1.09,0,0,0-.31.43Z"/><path class="cls-1" d="M84.7,38h.72v.42a.88.88,0,0,1,.31-.38.75.75,0,0,1,.42-.13.77.77,0,0,1,.34.09l-.26.72a.57.57,0,0,0-.24-.07.38.38,0,0,0-.33.24,2.2,2.2,0,0,0-.13.94v1.52H84.7Z"/><rect class="cls-1" x="18.45" y="8.86" width="7.04" height="3.31"/><path class="cls-1" d="M0,.81H4.12A13.57,13.57,0,0,1,10,1.8,7.72,7.72,0,0,1,13.23,5a10.41,10.41,0,0,1,1.25,5.19,10.45,10.45,0,0,1-.7,3.88A8,8,0,0,1,11.85,17a6.81,6.81,0,0,1-2.67,1.62,19,19,0,0,1-5,.45H0ZM3.45,4.16V15.69H5.07a8.08,8.08,0,0,0,3.46-.55,4.14,4.14,0,0,0,1.76-1.84A6.76,6.76,0,0,0,11,10.12,6,6,0,0,0,9.34,5.61Q7.88,4.16,4.63,4.16Z"/><path class="cls-1" d="M57.1,0a2.08,2.08,0,0,1,1.53.65,2.15,2.15,0,0,1,.64,1.56,2.12,2.12,0,0,1-.63,1.55,2.05,2.05,0,0,1-1.51.64,2.08,2.08,0,0,1-1.54-.65,2.18,2.18,0,0,1-.64-1.58A2.08,2.08,0,0,1,55.58.63,2.08,2.08,0,0,1,57.1,0m-1.7,5.57H58.8V19.08H55.41Z"/><path class="cls-1" d="M75.37,8.3,72.54,9.85a4.19,4.19,0,0,0-3.4-1.48,4.24,4.24,0,0,0-3.08,1.14,3.86,3.86,0,0,0-1.18,2.91A3.74,3.74,0,0,0,66,15.23a4.11,4.11,0,0,0,3,1.09,4.33,4.33,0,0,0,3.54-1.55l2.67,1.83a7.29,7.29,0,0,1-6.14,2.83,7.35,7.35,0,0,1-5.58-2.11,7.1,7.1,0,0,1-1-8.56,6.93,6.93,0,0,1,2.74-2.6,8.17,8.17,0,0,1,3.93-.95,8,8,0,0,1,3.62.8A6.87,6.87,0,0,1,75.37,8.3"/><path class="cls-1" d="M86.34,7.45l-2.1,2.1a3.55,3.55,0,0,0-2.32-1.27,1.46,1.46,0,0,0-.89.24.73.73,0,0,0-.32.6.74.74,0,0,0,.21.5,3.87,3.87,0,0,0,1,.63l1.24.62a7.33,7.33,0,0,1,2.7,2,3.9,3.9,0,0,1,.73,2.36,3.89,3.89,0,0,1-1.32,3,5.07,5.07,0,0,1-3.55,1.21A5.64,5.64,0,0,1,77,17.12l2.09-2.27A4.82,4.82,0,0,0,80.48,16a3.09,3.09,0,0,0,1.42.43A1.7,1.7,0,0,0,83,16.08a.94.94,0,0,0,.41-.75q0-.78-1.48-1.53l-1.14-.57q-3.28-1.65-3.28-4.14a3.59,3.59,0,0,1,1.24-2.74,4.49,4.49,0,0,1,3.16-1.14,5.49,5.49,0,0,1,4.45,2.24"/><path class="cls-1" d="M48.55.35v9.7l-6.8,4.67a5.88,5.88,0,1,1-2-10.56l0-3.33A9.15,9.15,0,1,0,43.6,17.42l5-3.62v5.28h3.39V.35Z"/></g></g></svg>