<svg xmlns="http://www.w3.org/2000/svg" viewBox="0 0 42.56 42.56"><defs><style>.cls-1{fill:#e32c20;}.cls-2{fill:#fff;}</style></defs><title>logo-small</title><g id="Calque_2" data-name="Calque 2"><g id="Calque_1-2" data-name="Calque 1"><path class="cls-1" d="M42.56,21.28v0h0A21.28,21.28,0,0,0,0,21.24H0v.07H0a21.28,21.28,0,0,0,42.56,0h0Z"/><polygon class="cls-2" points="21.28 0 21.28 0 0 21.28 21.28 42.56 21.28 42.56 42.56 21.28 21.28 0"/><path class="cls-1" d="M35.61,14.36l-6.92,6.94,7,6.89H32L26.9,23.09l-.38.38V28.2H24V14.36h2.53v5.51L32,14.36Z"/><path class="cls-1" d="M20.75,21.27a6.69,6.69,0,0,1-2,4.89,6.61,6.61,0,0,1-4.88,2L7,28.2V14.37h6.91a6.53,6.53,0,0,1,4.88,2A6.72,6.72,0,0,1,20.75,21.27Zm-2.52,0A4.27,4.27,0,0,0,17,18.17a4.18,4.18,0,0,0-3.09-1.29H9.48v8.78h4.38a4.35,4.35,0,0,0,4.36-4.38Z"/></g></g></svg>