<svg xmlns="http://www.w3.org/2000/svg" viewBox="0 0 97.33 69.39"><defs><style>.cls-1{fill:#fff;fill-rule:evenodd;}</style></defs><title>Fondation-SNCF</title><g id="Calque_2" data-name="Calque 2"><g id="Calque_1-2" data-name="Calque 1"><path class="cls-1" d="M8,52.25c-.09,1.91-.09,1.92,1.18,1.58q1.18-.32,2.34-.69c.52-.16,1-.05,1.15.45s-.26.76-.69.91a35,35,0,0,1-3.61,1.06.71.71,0,0,0-.66.78c-.16,4-.36,7.92-.53,11.88,0,.56-.16,1-.78,1.13s-.94-.21-1.23-.65a.47.47,0,0,1-.1-.44c.62-1.38.35-2.85.46-4.28.18-2.37.22-4.75.35-7.12,0-.51-.08-.64-.6-.5-1.31.37-2.63.71-3.91,1.19a2.16,2.16,0,0,1-.5.15A.72.72,0,0,1,0,57.19a.65.65,0,0,1,.48-.82c.73-.29,1.47-.58,2.23-.82.92-.29,1.85-.56,2.79-.8.38-.1.5-.26.53-.66.38-4.92.83-9.83,1.7-14.69a26.87,26.87,0,0,1,1.82-6.12A7.87,7.87,0,0,1,11,31.13a2.8,2.8,0,0,1,4.59.19,7.24,7.24,0,0,1,1.31,3.62c.21,1.51.21,3,.29,4.55,0,.64-.31.87-.87.91s-.94-.21-1-.86a31.65,31.65,0,0,0-.4-4.73A4.52,4.52,0,0,0,14,32.71c-.68-.81-1.4-.79-2,.08a12.94,12.94,0,0,0-1.45,3.39A48,48,0,0,0,8.82,45C8.48,47.6,8.16,50.22,8,52.25Z"/><path class="cls-1" d="M64,48.12a1.27,1.27,0,0,1-1.08-1c0-.42.51-.74,1.09-.7l.19,0c.5.06,1.06,0,1.1.74C65.33,47.56,64.56,48.12,64,48.12Z"/><path class="cls-1" d="M31.39,60.72c-.5-.53-.33-1.09-.35-1.65a16.83,16.83,0,0,0-.85-5.78,1,1,0,0,0-1.72-.57,5.46,5.46,0,0,0-1.91,2.06,21.75,21.75,0,0,0-1.35,3.15,2.19,2.19,0,0,1-.39.89c0-1.19,0-2.38,0-3.57a6.79,6.79,0,0,0-.37-2.4,3,3,0,0,0-3.38-2.13,9.57,9.57,0,0,0-2.39.73.87.87,0,0,1-.91-.07.93.93,0,0,0-1.23,0,2.33,2.33,0,0,1-1.79.62c-.42,0-.89.07-.94.62s.36.69.82.83a7.83,7.83,0,0,0-.92,6.28,2.34,2.34,0,0,0,3.53,1.64,5.25,5.25,0,0,0,3-4.26c.26-1.53.66-3.14-1.05-4.3.44-.13.79-.25,1.14-.33,1.53-.36,2.2.13,2.45,1.7a23.54,23.54,0,0,1,.11,3.69,9.49,9.49,0,0,0,.5,3.57c.17.43.33.83.87.86a1.24,1.24,0,0,0,1.2-.66,13.67,13.67,0,0,0,1.25-2.83,18.65,18.65,0,0,1,1.41-3.41,1.8,1.8,0,0,1,.67-.8,14.74,14.74,0,0,1,.46,3.64c0,1.06.05,2.11.07,3.17,0,.34.12.62.47.7A1.11,1.11,0,0,0,31,61.81C31.21,61.48,31.72,61.07,31.39,60.72Zm-14.27-1c-.23.29-.51.63-.92.55s-.54-.48-.65-.85a6.11,6.11,0,0,1-.29-2,5.52,5.52,0,0,1,1-3.35.61.61,0,0,1,.88-.25,2,2,0,0,1,1.38,2A6,6,0,0,1,17.12,59.71Z"/><path class="cls-1" d="M64.38,54.55a2,2,0,0,0-2.08-1.82A17,17,0,0,0,59,53c-.32.12-.39,0-.29-.29.3-1.69.58-3.38.84-5.08.13-.88-.44-1.28-1.3-1a1.92,1.92,0,0,0-1,.77A5,5,0,0,0,56.44,49a17.65,17.65,0,0,0-.54,4.44c0,.49-.05.86-.63,1.05s-.63.74-.07,1,.46.46.25.84-.47.95-.73,1.4a4.1,4.1,0,0,1-1.51,1.54c-.83.48-1.45.22-1.69-.7a3.52,3.52,0,0,1-.11-.78c0-.84,0-1.67.06-2.51,0-.57.15-.62.62-.41a1.18,1.18,0,0,0,.78,0,.77.77,0,0,0,.6-.47c.1-.31-.16-.48-.36-.64a3.29,3.29,0,0,0-3.71-.41,16.11,16.11,0,0,0-4,2.57,6.75,6.75,0,0,0-1.88,2.35,1.74,1.74,0,0,0,.09,1.82,1.55,1.55,0,0,0,1.7.41,7.86,7.86,0,0,0,3.83-2c.12-.1.18-.3.41-.27,0,.29.09.57.15.85a2.42,2.42,0,0,0,3,2.2,4.41,4.41,0,0,0,2.19-1c.37-.33.72-.68,1.13-1.05.17,1.92.37,3.78.5,5.65,0,.66.4.82,1,.81s.92-.3.9-.89c0-.88-.1-1.76-.17-2.63-.15-2-.46-4-.44-6.06,0-.47,0-1,.46-1.22a8.7,8.7,0,0,1,3.39-.78c.75,0,1,.24,1,1a5.73,5.73,0,0,1,0,.73,47.72,47.72,0,0,1-.49,5.72.75.75,0,0,0,.93.93,1.29,1.29,0,0,0,1.15-1,3.53,3.53,0,0,0,.09-1.37,14.72,14.72,0,0,1,0-3.23A7,7,0,0,0,64.38,54.55Zm-17.6,3.9c-.28.13-.53.31-.81.44s-.49.41-.69.17.09-.48.22-.69a10.93,10.93,0,0,1,3-3,3.83,3.83,0,0,1,1.26-.64C49.05,56.3,48.33,57.7,46.78,58.45Z"/><path class="cls-1" d="M91.75,60.3a.8.8,0,0,0-.81-.56,1.31,1.31,0,0,0-.8.26,7.62,7.62,0,0,1-2.07,1A1.62,1.62,0,0,1,86,60a6.27,6.27,0,0,1-.32-.93,25.37,25.37,0,0,1-.53-4.58c0-.49-.07-1-.7-1.11a1.09,1.09,0,0,0-1.25.62,23.17,23.17,0,0,1-2.59,3.5c-.14.17-.28.39-.53.35s-.32-.33-.38-.56a4.24,4.24,0,0,1-.12-.58,20.56,20.56,0,0,1,0-4.29c.07-.8-.16-1-1-1a1.26,1.26,0,0,0-.81.39c-1.19,1.12-2.38,2.22-3.65,3.26-.27.22-.47.3-.78,0a1.79,1.79,0,0,0-1.36-.4,7.2,7.2,0,0,0-5,2.69,1,1,0,0,0-.12,1.29,1.16,1.16,0,0,1,.14.86,1.84,1.84,0,0,0,1.29,2.18,5,5,0,0,0,6.38-4.43c0-.17-.07-.36.08-.5l2.75-2.41a11,11,0,0,0,.16,3.19c.46,2.07,1.91,2.64,3.68,1.46a5.73,5.73,0,0,0,1.09-1c.3-.34.59-.69.93-1.09,0,.19.06.32.08.44a10.37,10.37,0,0,0,.85,3.64,3.14,3.14,0,0,0,3.47,1.68A10.82,10.82,0,0,0,91.34,61C91.61,60.88,91.85,60.67,91.75,60.3Zm-21.17.09c-.69.22-1-.33-1.57-.81a7.93,7.93,0,0,0,3.34-1.1C72.37,59.18,71.52,60.1,70.58,60.4Z"/><path class="cls-1" d="M42.55,61.37a16.67,16.67,0,0,1-.67-1.57c-1.2-3.44-1.07-7-.71-10.52.16-1.62.4-3.23.6-4.85a.73.73,0,0,0-.72-.91c-.53-.07-1,.06-1.07.69s-.14,1-.21,1.57a41.67,41.67,0,0,1-1.33,6.59c-.1.33-.19.56-.64.57a3.12,3.12,0,0,0-2,.94,10.12,10.12,0,0,0-3,5.59c-.19,1,.19,1.29,1.17,1.09a2.43,2.43,0,0,0,.55-.22,9,9,0,0,0,2.89-2.26A15.54,15.54,0,0,0,39,55.55a1,1,0,0,1,.17.66,16.51,16.51,0,0,0,1,4.3A12.9,12.9,0,0,0,41,62.18a1.13,1.13,0,0,0,1.47.31C43,62.18,42.74,61.79,42.55,61.37ZM35.22,57.9a5.76,5.76,0,0,1,2.21-3.26A7.68,7.68,0,0,1,35.22,57.9Z"/><path class="cls-1" d="M96.44,15.91a68.91,68.91,0,0,0-7.86-4.3A59.63,59.63,0,0,0,82.27,9a11,11,0,0,0-2.14-.79,15,15,0,0,0-2.36-.81,6.52,6.52,0,0,0-1.61-.52,20.4,20.4,0,0,0-2.23-.67,4.54,4.54,0,0,0-1.35-.38,13.63,13.63,0,0,0-2.5-.67,2.14,2.14,0,0,0-.3-.12l-2.91-.67a14.94,14.94,0,0,0-2.51-.56,8,8,0,0,0-1.86-.37c-.43-.25-1-.06-1.4-.27A10.29,10.29,0,0,0,59,2.76a24,24,0,0,0-3.06-.51,17.9,17.9,0,0,0-2.78-.41,20.39,20.39,0,0,0-3.25-.41,1.38,1.38,0,0,0-.64-.12l-2.33-.24L44.13.81A17.79,17.79,0,0,0,41.63.62,7.82,7.82,0,0,0,39.77.49,4,4,0,0,0,38.44.4L36.85.29,35,.23A5,5,0,0,0,33.55.15a28.74,28.74,0,0,0-2.91,0A41,41,0,0,0,26.3,0a19.77,19.77,0,0,0-2.94.1c-.29,0-.57,0-.86,0-1.44,0-1.76.37-1.76,1.82v36.6a2.83,2.83,0,0,0,0,.53c.09.5.27.94.85,1a.78.78,0,0,0,.24.09l8.94,0s0,0,0-.07h0a.19.19,0,0,0,0,.07l.59,0H88.84c.21,0,.44.07.64-.08h0c.63-.08.77-.6.92-1.08q3.38-10.57,6.75-21.14C97.49,16.83,97.37,16.51,96.44,15.91Zm-47,2.44c0,.05,0,.1,0,.15A.23.23,0,0,1,49.47,18.36ZM40.67,32.1v0h0a8.71,8.71,0,0,1-3.27,2,6.21,6.21,0,0,1-2.82.71,3.49,3.49,0,0,0-.78.09,14.45,14.45,0,0,1-3.28-.08,19.2,19.2,0,0,1-2.39-.4c-.72-.19-1.45-.36-2.16-.61a1.71,1.71,0,0,1-.62-.36c-1.16-.54-1.16-.54-.64-1.7a3.18,3.18,0,0,0,.1-.3c.1-.2.06-.43.14-.64.26-.65.51-.78,1.15-.48.41.19.91.21,1.23.6a5.39,5.39,0,0,0,1.72.51,5.73,5.73,0,0,1,1.74.15c.54.13,1.1,0,1.64.12a14.09,14.09,0,0,0,2.07-.1A3.74,3.74,0,0,0,36.28,31a1.3,1.3,0,0,0,.21-2.24,10.28,10.28,0,0,0-1.84-1.25,13.33,13.33,0,0,0-1.79-.84l-1.74-.92c-.58-.41-1.29-.63-1.69-1.29a1.31,1.31,0,0,0-.13-.15c-2.37-2-1.46-4.44.28-5.74.3-.22.61-.42.92-.63L33,17.06l1.85-.29,2.25-.13H38.7l1.58.18c.06,0,.11.08.17.08.67,0,.73.29.53.81a.87.87,0,0,1-.15.52.54.54,0,0,0-.07.11c-.14.39-.17.88-.44,1.13s-.77-.15-1.19-.06c-.65-.19-1.27.18-1.92.09-.4-.06-.82,0-1.23,0a5.49,5.49,0,0,0-2.8.83c-1,.7-1,1.44,0,2.12a25.68,25.68,0,0,0,2.62,1.38c.57.27,1.15.52,1.72.8a3.51,3.51,0,0,1,.89.65,11.08,11.08,0,0,1,2.86,2.26A1.83,1.83,0,0,1,42,29.19,3.52,3.52,0,0,1,40.67,32.1Zm50.1-12.94c-.11.4-.31.5-.7.5-2.42,0-4.84,0-7.27,0-.24,0-.48,0-.72,0a.34.34,0,0,1-.28.16c-.82-.09-1,.47-1.21,1.09s-.42,1.53-.71,2.27c-.16.41,0,.53.4.56.6,0,1.23-.2,1.79.19,1.65,0,3.3,0,4.94,0,.47,0,.63.08.44.57A14.18,14.18,0,0,0,87,26.19a.55.55,0,0,1-.64.47c-1.49,0-3,0-4.48,0h0c-.62.42-1.32.15-2,.21-1.17,0-1.18,0-1.49,1.09-.26,1-.61,1.88-.9,2.83-.18.61-.41,1.21-.57,1.83a1.54,1.54,0,0,1-1.23,1.22c-.3.07-.59.17-.89.25a24.74,24.74,0,0,1-3.84.7,15.3,15.3,0,0,1-3.18.1,21,21,0,0,1-2.63-.4,18.24,18.24,0,0,1-2.59-.95A13.57,13.57,0,0,1,60.26,32a8.5,8.5,0,0,1-1.88-3.51A10.57,10.57,0,0,0,57.85,30c-.43,1.26-.78,2.55-1.22,3.8a1.45,1.45,0,0,1-.34.69,12.25,12.25,0,0,1-2.82.1c-1.69,0-1.5,0-1.94-1.41a41.2,41.2,0,0,0-1.86-4.79,25.74,25.74,0,0,0-2.22-4.23,22.87,22.87,0,0,0-1.62-2.68c-.23.58-.38,1.1-.54,1.62-.62,1.87-1.15,3.76-1.85,5.6-.24.29-.52.31-.66,0-.26-.65-.72-1.18-1-1.81h0l0,0c0-.05-.06-.11-.1-.14-1.06-.57-.91-1.37-.53-2.3s.58-1.8.86-2.7c.49-1.49,1-3,1.46-4.48.1-.33.32-.3.56-.3h3.43l2.38,3.2c1,1.65,2,3.32,2.88,5,.52,1.22,1.1,2.41,1.59,3.82h.11l1.74-5.55c.64-2,1.3-4,1.92-6a.59.59,0,0,1,.69-.5c1,0,2,0,3.07.06h0l-1.2,3.74.11.09,1.79-1.54s0,0,0-.07l.12,0c.51-.44,1.19-.6,1.71-1l2.82-1,2.46-.43,3.2,0,0,0,.13,0,1.3.09c1.19.2,1.19.2.76,1.42a4.89,4.89,0,0,0-.25.74c-.12.66-.46,1-1.15.81a17.21,17.21,0,0,1-2.71.07,13.9,13.9,0,0,0-1.55.13,11.93,11.93,0,0,0-1.6.35,9,9,0,0,0-2.43,1.16,5.89,5.89,0,0,0-2.77,5.79A4.41,4.41,0,0,0,65.62,31a6.63,6.63,0,0,0,1.88.48,7.85,7.85,0,0,0,1.66.1c.61,0,1.22,0,1.82,0,2.34-.33,1.75.14,2.5-2a3.15,3.15,0,0,0,.09-.38,2.57,2.57,0,0,1,.3-.83,1,1,0,0,1,.25-.28l2-6.21c.5-1.53,1-3.07,1.5-4.61A.39.39,0,0,1,78,16.9l13.35,0,.06,0C91.23,17.69,91,18.41,90.78,19.15Z"/></g></g></svg>