<svg xmlns="http://www.w3.org/2000/svg" viewBox="0 0 85.57 45.2"><defs><style>.cls-1{fill:#fff;fill-rule:evenodd;}</style></defs><title>France-IOI</title><g id="Calque_2" data-name="Calque 2"><g id="Calque_1-2" data-name="Calque 1"><path class="cls-1" d="M52,25.35c.16.32.31.65.48,1a5.23,5.23,0,0,0,2.15,2.08.45.45,0,0,1,.28.53c-.15.71-.27,1.43-.48,2.12a18.3,18.3,0,0,1-.86,2.37,18.84,18.84,0,0,1-3,4.94,15.38,15.38,0,0,1-2.59,2.4,12,12,0,0,1-3.11,1.56,10.36,10.36,0,0,1-3.64.51,10,10,0,0,1-3.5-.8,13.74,13.74,0,0,1-6-5,16.63,16.63,0,0,1-2-3.87,34.78,34.78,0,0,1-1.18-3.65,21.55,21.55,0,0,1-.52-3.5c-.1-1.33-.06-2.67-.06-4,0-.44.1-.53.49-.52.57,0,.64.08.64.54s0,.65,0,1,.13.49.48.52c.62.06,1.24.15,1.86.23.28,0,.26.24.26.44,0,.82,0,1.64.06,2.45A4,4,0,0,0,32.08,28a1.62,1.62,0,0,0,1.33.84c.38,0,.54.26.64.62.29,1,.62,2,.93,3a10.92,10.92,0,0,0,1.68,3.14,7.17,7.17,0,0,0,3.51,2.79,4.53,4.53,0,0,0,3.2-.13,8.65,8.65,0,0,0,4.2-4.15,16.81,16.81,0,0,0,1.68-4.62c.11-.5.27-.63.77-.63h1.21c.46,0,.57-.12.57-.58,0-.88,0-1.77,0-2.65,0-.09,0-.17,0-.26Z"/><path class="cls-1" d="M51.87,21.94c0-.51-.09-1-.07-1.54a2.1,2.1,0,0,0-1.88-1.9c-.39,0-.56-.2-.65-.53-.26-.89-.46-1.81-.8-2.67a20.49,20.49,0,0,0-1.35-2.78,8.39,8.39,0,0,0-2.71-2.9A4.79,4.79,0,0,0,40.18,9a7,7,0,0,0-3.75,3.11,20.45,20.45,0,0,0-1.6,3.09,18.79,18.79,0,0,0-.77,2.64c-.12.48-.27.63-.77.63H28.85c-.46,0-.57-.13-.44-.56.31-1,.57-2.1,1-3.11a17.67,17.67,0,0,1,5.79-8.07,11.66,11.66,0,0,1,3.63-1.8,9.94,9.94,0,0,1,4.81-.23,12.26,12.26,0,0,1,2.45.85A11.94,11.94,0,0,1,50.49,9,19.46,19.46,0,0,1,53,12.78a16.65,16.65,0,0,1,1.26,3.28c.2.78.38,1.56.58,2.33.08.31-.07.48-.33.62a4.93,4.93,0,0,0-2.29,2.49A4.39,4.39,0,0,1,52,22Z"/><path class="cls-1" d="M13.09,14.48c0-2.3,0-4.6,0-6.9a2.28,2.28,0,0,0-1.17-2A8.68,8.68,0,0,0,7,4.25c-.36,0-.46-.11-.48-.47C6.47,2.89,6.36,2,6.26,1.1,6.2.57,6.29.51,6.8.64s1.29.3,1.94.41c1.73.3,3.45.61,5.18.86,2,.28,3.94.52,5.91.71,1.45.13,2.9.14,4.36.21.39,0,.46.13.4.52q-.19,1.23-.33,2.47c0,.41-.18.49-.59.44a6.45,6.45,0,0,0-3.56.27A1.55,1.55,0,0,0,19.1,8c0,2.85,0,5.69,0,8.54,0,.44,0,.88,0,1.32s-.15.52-.52.52c-1.27,0-2.54,0-3.82.06-.57,0-.64.09-.62.67,0,.88,0,1.77,0,2.65,0,.43-.32.4-.61.41s-.5-.08-.49-.44c0-2.43,0-4.86,0-7.29Z"/><path class="cls-1" d="M71.06,21.15a6.25,6.25,0,0,0-.45-.7,5.1,5.1,0,0,0-3.27-1.92c-.55-.07-1.11,0-1.66-.08a.56.56,0,0,1-.36-.3,1.27,1.27,0,0,1,0-.5c0-3.17,0-6.34,0-9.51a1.9,1.9,0,0,0-1.6-2A8.67,8.67,0,0,0,61,6c-.53,0-.62,0-.69-.58s-.19-1.31-.3-2c-.08-.49,0-.55.48-.58,1.83-.11,3.66-.21,5.48-.37,1.12-.1,2.24-.27,3.36-.44.62-.09,1.23-.21,1.83-.36,1.16-.27,2.31-.57,3.47-.86C75.13.68,75.67.55,76.2.4a1.26,1.26,0,0,0,.44-.28c.2-.18.38-.16.41.1A3.69,3.69,0,0,1,77,1q-.1,1.2-.21,2.4c0,.47-.14.54-.6.58A6.39,6.39,0,0,0,72,5.85a2.64,2.64,0,0,0-.73,1.95q0,6.13,0,12.24c0,.37-.07.73-.1,1.1Z"/><path class="cls-1" d="M19.11,32.72c0,1.87,0,3.74,0,5.61a1.43,1.43,0,0,0,1.19,1.49,19.83,19.83,0,0,0,2.14.34c.52.06.59.12.56.65s0,1.19-.06,1.79c0,.44-.1.53-.52.56-1.8.11-3.6.18-5.4.35-1.41.13-2.81.34-4.21.57s-2.7.51-4,.78a5.16,5.16,0,0,0-.74.24c-.44.16-.57.09-.65-.36-.14-.82-.26-1.64-.39-2.46-.05-.33.16-.43.43-.47a20.09,20.09,0,0,0,2.22-.4,6.85,6.85,0,0,0,3.14-1.52,1.12,1.12,0,0,0,.3-.71c0-4.5,0-9,0-13.49,0-.18.06-.49.14-.51a1.78,1.78,0,0,1,.79,0c.08,0,.15.25.15.39,0,.89,0,1.77,0,2.65,0,.49.11.6.59.6h1.75c.46,0,.57-.11.57-.58,0-.86,0-1.71,0-2.57,0-.47.1-.55.56-.5.27,0,.54,0,.81.06.52,0,.56.05.57.56.05,2.3.07,4.6.12,6.89Z"/><path class="cls-1" d="M71.16,26.29a6,6,0,0,1,.1.79q0,5.91,0,11.81a1.29,1.29,0,0,0,.65,1.28,11.27,11.27,0,0,0,1.91.92c1,.32,2.11.52,3.16.76a.37.37,0,0,1,.34.46c-.11.87-.21,1.75-.32,2.63,0,.3-.25.29-.47.23-.45-.13-.89-.28-1.34-.37-1.51-.31-3-.65-4.55-.87-1.77-.25-3.56-.42-5.34-.58-1.15-.1-2.31-.13-3.46-.18-.44,0-.54-.13-.55-.57,0-.61,0-1.22-.07-1.83s.07-.56.52-.62A20.41,20.41,0,0,0,64,39.78a1.44,1.44,0,0,0,1.3-1.65c0-2.91,0-5.82,0-8.73,0-.4.09-.46.48-.46a13.55,13.55,0,0,0,1.82-.08,3.59,3.59,0,0,0,2-.92C70.12,27.43,70.61,26.87,71.16,26.29Z"/><path class="cls-1" d="M74.35,24.32H63.87c-.16,0-.44.06-.46.16a.83.83,0,0,0,.13.53,3.14,3.14,0,0,0,1.57,1.5A2.89,2.89,0,0,0,68.38,26,2,2,0,0,1,70,25.65c.25,0,.25.23.13.41a4.48,4.48,0,0,1-5.49,1.65A4.39,4.39,0,0,1,62.23,22a4.3,4.3,0,0,1,2.58-2.49A4.4,4.4,0,0,1,70,21.27a5.06,5.06,0,0,1,.52,1.2.67.67,0,0,0,.74.53H84.75c.67,0,1,.42.73,1a.83.83,0,0,1-.64.31c-1.17,0-2.34,0-3.51,0h-7ZM68.85,23c.39,0,.52-.24.31-.56a6.61,6.61,0,0,0-.51-.73,3,3,0,0,0-3.94-.6,3.19,3.19,0,0,0-1.13,1.25.7.7,0,0,0-.11.48c0,.09.28.15.43.15.8,0,1.61,0,2.42,0"/><path class="cls-1" d="M7.51,24.33H.65c-.53,0-.64-.08-.65-.48C0,23.1.07,23,.65,23H14.5c.43,0,.53-.1.53-.53,0-.91,0-1.82,0-2.73,0-.33.09-.46.44-.45,1.92,0,3.85,0,5.77,0,.47,0,.51,0,.51.49,0,.7.16.82-.81.81-1.27,0-2.55,0-3.82,0-.65,0-.81.16-.81.8,0,.32,0,.65,0,1,0,.51.11.63.61.63h4.25c.53,0,.58.05.58.58,0,.1,0,.21,0,.31,0,.34-.13.45-.46.45-1.44,0-2.88,0-4.33,0-.55,0-.65.1-.65.67,0,.82,0,1.64,0,2.46,0,.18-.13.48-.24.5a3,3,0,0,1-.94,0s-.09-.23-.09-.35c0-.88,0-1.77,0-2.65,0-.54,0-.59-.57-.59H7.51Z"/><path class="cls-1" d="M36.2,19.31h3.43a1.28,1.28,0,0,1,1.32,1.12A3.3,3.3,0,0,1,41,21q0,3.18,0,6.36c0,.6-.07.68-.67.68H34.17A1.51,1.51,0,0,1,33,27.69a1.27,1.27,0,0,1-.43-1c0-.78,0-1.56,0-2.34a1.15,1.15,0,0,1,1-1.2c.55-.05,1.12-.05,1.67-.06H39c.68,0,.78-.13.71-.82a4.36,4.36,0,0,1,0-.89c.06-.6-.07-.78-.69-.78H32.78c-.46,0-.53-.07-.53-.51,0-.79-.15-.81.79-.79s2.11,0,3.16,0Zm.61,5.1H34.47c-.42,0-.56.14-.57.56s0,.78,0,1.17a.48.48,0,0,0,.52.54h4.76a.47.47,0,0,0,.52-.54c0-.39,0-.78,0-1.17s-.11-.57-.59-.57Z"/><path class="cls-1" d="M42.72,23.64c0-1.29,0-2.57,0-3.86,0-.36.13-.49.48-.49l6.43,0A1.33,1.33,0,0,1,51,20.61c0,2.34,0,4.68,0,7a.33.33,0,0,1-.34.38h-.43c-.46,0-.56-.13-.56-.59q0-2.83,0-5.65c0-.86-.3-1.17-1.17-1.17H44.7c-.52,0-.64.12-.64.65,0,2.1,0,4.21,0,6.31,0,.24-.08.38-.31.41a2.34,2.34,0,0,1-.39,0c-.6,0-.66-.08-.66-.66,0-1.23,0-2.47,0-3.7Z"/><path class="cls-1" d="M57,19.29a4.2,4.2,0,0,1,2.93,1.14c.33.3.32.43,0,.71l-.26.23a.41.41,0,0,1-.62,0,3,3,0,0,0-3.34-.57,2.83,2.83,0,0,0-1.45,1.3,3.06,3.06,0,0,0,1,4.16,2.78,2.78,0,0,0,2.75.27,6.46,6.46,0,0,0,1.15-.76c.19-.15.36-.21.56-.06.77.56.94.55.11,1.26a4.36,4.36,0,0,1-4.19.9A4.19,4.19,0,0,1,53,25.67a4.24,4.24,0,0,1-.25-3.43,4.13,4.13,0,0,1,2.53-2.63,4.51,4.51,0,0,1,1.7-.32Z"/><path class="cls-1" d="M23.6,23.64V19.82c0-.44.08-.51.53-.51,1.9,0,3.8,0,5.69,0a1.38,1.38,0,0,1,1.45,1.34c0,.52,0,1,0,1.56a.38.38,0,0,1-.44.43c-.72,0-.92.17-.87-.82.06-1.21,0-1.21-1.2-1.21h-3c-.73,0-.89.16-.89.9,0,2,0,4.05,0,6.08,0,.3-.12.44-.4.45a3.73,3.73,0,0,1-.47,0c-.34,0-.49-.18-.49-.55,0-1.27,0-2.55,0-3.82Z"/><path class="cls-1" d="M32.81,21.37c.16.13.42.23.46.39s-.12.46-.44.49c-.1,0-.18.13-.28.18s-.2.11-.27.09-.12-.15-.15-.24a.75.75,0,0,1,0-.23C32.12,21.51,32.18,21.46,32.81,21.37Z"/><path class="cls-1" d="M18,22.23a5.81,5.81,0,0,1-.68-.3.34.34,0,0,1-.09-.3.3.3,0,0,1,.23-.16c.4,0,.8,0,1.2,0a.35.35,0,0,1,.24.2c0,.06-.07.2-.14.24C18.53,22,18.28,22.13,18,22.23Z"/><path class="cls-1" d="M66.34,25.32a2.51,2.51,0,0,1,.5,0c.09,0,.23.12.23.2s-.1.25-.17.26a8,8,0,0,1-1.14,0c-.07,0-.16-.19-.17-.29s.15-.15.25-.17a2.69,2.69,0,0,1,.5,0Z"/><path class="cls-1" d="M55.45,23.66c-.1.18-.2.52-.3.52-.37,0-.27-.35-.29-.59a.15.15,0,0,1,0-.08l.28-.48.22.47a.32.32,0,0,1,0,.11Z"/><path class="cls-1" d="M67.6,22a2.82,2.82,0,0,1-.58.17,6.35,6.35,0,0,1-1.12,0c-.15,0-.28-.17-.42-.26a1.45,1.45,0,0,1,.32-.26A1.68,1.68,0,0,1,67.6,22Z"/></g></g></svg>