<svg xmlns="http://www.w3.org/2000/svg" xmlns:xlink="http://www.w3.org/1999/xlink" viewBox="0 0 160.32 50.96"><defs><style>.cls-1{fill:none;}.cls-2{fill:#fff;}.cls-3{clip-path:url(#clip-path);}</style><clipPath id="clip-path"><rect class="cls-1" x="44.17" y="13.7" width="32.22" height="12.5"/></clipPath></defs><title>lEurope-sengage</title><g id="Calque_2" data-name="Calque 2"><g id="Calque_1-2" data-name="Calque 1"><path class="cls-2" d="M95.89,4.25V41.48h64.44V4.25ZM141.68,15.3l.57-1.76.56,1.76h1.88l-1.52,1.14.59,1.81-1.51-1.11-1.51,1.11.59-1.81-1.53-1.14Zm-27.29-.17.57-1.76.56,1.76h1.88l-1.52,1.14.59,1.8L115,17l-1.51,1.11.6-1.8-1.53-1.14ZM110.88,22h1.87l.57-1.76.55,1.76h1.88l-1.52,1.14.59,1.81-1.51-1.11-1.51,1.11.6-1.81Zm5.75,10.3-1.51-1.11-1.51,1.11.6-1.8-1.53-1.14h1.88l.57-1.76.55,1.76h1.88L116,30.49Zm4.9,5.88L120,37.07l-1.51,1.11.6-1.8-1.53-1.14h1.88l.57-1.76.56,1.76h1.88l-1.52,1.14Zm.23-27.46.59,1.8-1.51-1.11-1.51,1.11.59-1.8L118.4,9.58h1.87l.57-1.76.56,1.76h1.88Zm8.07,28.66-1.47-1.08-1.47,1.08.58-1.76L126,36.52h1.83l.56-1.71.54,1.71h1.83l-1.48,1.11Zm-.55-31.11.59,1.8L128.36,9l-1.51,1.11.6-1.8-1.53-1.14h1.87l.57-1.76.55,1.76h1.88ZM136,9.75,136.53,8l.55,1.76H139l-1.52,1.14.59,1.8-1.51-1.11L135,12.69l.59-1.8-1.53-1.14Zm2.46,27.57L137,36.23l-1.47,1.08.58-1.76-1.49-1.11h1.83l.55-1.71.54,1.71h1.83l-1.48,1.11Zm5-5-1.51-1.11-1.51,1.11.6-1.8-1.53-1.14h1.88l.57-1.76.56,1.76h1.88l-1.52,1.14Zm1.64-7.19L143.56,24,142,25.11l.6-1.8-1.53-1.14H143l.57-1.76.56,1.76H146l-1.52,1.14Z"/><path class="cls-2" d="M100.76,43.34h.45v2a2.29,2.29,0,0,1-.11.81,1,1,0,0,1-.42.49,1.46,1.46,0,0,1-.79.19,1.62,1.62,0,0,1-.78-.16.94.94,0,0,1-.43-.48,2.2,2.2,0,0,1-.13-.85v-2H99v2a2,2,0,0,0,.08.65.63.63,0,0,0,.28.32,1,1,0,0,0,.49.11.93.93,0,0,0,.7-.22,1.29,1.29,0,0,0,.21-.86Z"/><polygon class="cls-2" points="104.86 43.34 104.86 46 103.08 43.34 102.63 43.34 102.63 46.73 103.05 46.73 103.05 44.07 104.83 46.73 105.29 46.73 105.29 43.34 104.86 43.34"/><rect class="cls-2" x="106.8" y="43.34" width="0.45" height="3.39"/><path class="cls-2" d="M109,45.08a1.35,1.35,0,0,0,.33,1A1.15,1.15,0,0,0,111,46a1.44,1.44,0,0,0,.33-1,1.76,1.76,0,0,0-.14-.72,1,1,0,0,0-.41-.48,1.11,1.11,0,0,0-.6-.17,1.14,1.14,0,0,0-.82.33,1.46,1.46,0,0,0-.34,1.09m-.46,0a1.83,1.83,0,0,1,.46-1.32,1.53,1.53,0,0,1,1.17-.48,1.64,1.64,0,0,1,.85.22,1.48,1.48,0,0,1,.57.62,2.05,2.05,0,0,1,.2.91,2,2,0,0,1-.21.92,1.43,1.43,0,0,1-.59.62,1.69,1.69,0,0,1-.82.21,1.6,1.6,0,0,1-.85-.23,1.47,1.47,0,0,1-.57-.63,1.92,1.92,0,0,1-.2-.85"/><polygon class="cls-2" points="115.29 43.34 115.29 46 113.51 43.34 113.05 43.34 113.05 46.73 113.48 46.73 113.48 44.07 115.26 46.73 115.72 46.73 115.72 43.34 115.29 43.34"/><polygon class="cls-2" points="119.14 43.34 119.14 46.73 121.67 46.73 121.67 46.33 119.59 46.33 119.59 45.18 121.47 45.18 121.47 44.78 119.59 44.78 119.59 43.74 121.59 43.74 121.59 43.34 119.14 43.34"/><path class="cls-2" d="M125.18,43.34h.45v2a2.32,2.32,0,0,1-.11.81,1,1,0,0,1-.42.49,1.47,1.47,0,0,1-.79.19,1.62,1.62,0,0,1-.78-.16.94.94,0,0,1-.43-.48,2.27,2.27,0,0,1-.13-.85v-2h.45v2a1.92,1.92,0,0,0,.08.65.63.63,0,0,0,.28.32,1,1,0,0,0,.49.11.93.93,0,0,0,.71-.22,1.29,1.29,0,0,0,.21-.86Z"/><path class="cls-2" d="M127.51,44.83h1a1.36,1.36,0,0,0,.48-.06.49.49,0,0,0,.26-.2.53.53,0,0,0,.09-.3.5.5,0,0,0-.17-.39.81.81,0,0,0-.55-.16h-1.07Zm-.45,1.89V43.34h1.5a2,2,0,0,1,.69.09.75.75,0,0,1,.38.32,1,1,0,0,1,.14.51.85.85,0,0,1-.23.61,1.2,1.2,0,0,1-.72.32,1.21,1.21,0,0,1,.27.17,2.33,2.33,0,0,1,.37.45l.59.92h-.56L129,46c-.13-.2-.24-.36-.32-.47a1,1,0,0,0-.23-.23.67.67,0,0,0-.2-.09l-.25,0h-.52v1.5Z"/><path class="cls-2" d="M131.47,45.08a1.35,1.35,0,0,0,.33,1,1.15,1.15,0,0,0,1.66,0,1.43,1.43,0,0,0,.33-1,1.74,1.74,0,0,0-.14-.72,1,1,0,0,0-.41-.48,1.11,1.11,0,0,0-.6-.17,1.14,1.14,0,0,0-.82.33,1.46,1.46,0,0,0-.34,1.09m-.46,0a1.84,1.84,0,0,1,.45-1.32,1.54,1.54,0,0,1,1.17-.48,1.64,1.64,0,0,1,.85.22,1.48,1.48,0,0,1,.57.62,2.05,2.05,0,0,1,.2.91A2,2,0,0,1,134,46a1.43,1.43,0,0,1-.59.62,1.7,1.7,0,0,1-.82.21,1.6,1.6,0,0,1-.86-.23,1.49,1.49,0,0,1-.57-.63,1.9,1.9,0,0,1-.19-.85"/><path class="cls-2" d="M135.94,45h.88a.92.92,0,0,0,.62-.16.58.58,0,0,0,.18-.45.61.61,0,0,0-.11-.36.51.51,0,0,0-.28-.2,1.93,1.93,0,0,0-.42,0h-.87Zm-.45,1.78V43.34h1.28a3,3,0,0,1,.52,0,1,1,0,0,1,.42.16.84.84,0,0,1,.27.33,1,1,0,0,1,.1.46,1.06,1.06,0,0,1-.27.73,1.33,1.33,0,0,1-1,.3h-.87v1.38Z"/><path class="cls-2" d="M139.33,43.34v3.39h2.53v-.4h-2.08V45.17h1.87v-.4h-1.87v-1h2v-.4Zm1.23-.86-.31.65h.34l.51-.65Z"/><polygon class="cls-2" points="143.16 43.34 143.16 46.73 145.69 46.73 145.69 46.33 143.6 46.33 143.6 45.18 145.48 45.18 145.48 44.78 143.6 44.78 143.6 43.74 145.61 43.74 145.61 43.34 143.16 43.34"/><polygon class="cls-2" points="149.21 43.34 149.21 46 147.43 43.34 146.97 43.34 146.97 46.73 147.4 46.73 147.4 44.07 149.18 46.73 149.64 46.73 149.64 43.34 149.21 43.34"/><polygon class="cls-2" points="153.3 43.34 153.3 46 151.52 43.34 151.06 43.34 151.06 46.73 151.49 46.73 151.49 44.07 153.27 46.73 153.73 46.73 153.73 43.34 153.3 43.34"/><polygon class="cls-2" points="155.16 43.34 155.16 46.73 157.69 46.73 157.69 46.33 155.61 46.33 155.61 45.18 157.49 45.18 157.49 44.78 155.61 44.78 155.61 43.74 157.61 43.74 157.61 43.34 155.16 43.34"/><path class="cls-2" d="M10.63,11.34c.29,1.25-.67,2.56-2.28,3.4a.2.2,0,0,1-.2-.26,2.23,2.23,0,0,0,1.11-2.09c-.08-.34-.12-.26-.47-.37a1.06,1.06,0,0,1-.64-.73,1,1,0,0,1,.77-1.23,1.47,1.47,0,0,1,1.71,1.29"/><path class="cls-2" d="M3.36,26.7A6.29,6.29,0,0,1,0,25.84l.68-1.36a5.16,5.16,0,0,0,2.74.82c1.4,0,2.4-.63,2.4-1.68,0-2.78-5.14-1.79-5.14-5.77,0-1.62,1.17-3,3.76-3a7,7,0,0,1,2.85.6V17a6.65,6.65,0,0,0-2.78-.67c-1.15,0-2.11.39-2.11,1.44,0,2.54,5.25,1.88,5.25,5.6,0,2.37-2,3.34-4.29,3.34"/><path class="cls-2" d="M62.46,26.48,62,25.38a4.81,4.81,0,0,1-3.46,1.32,3.36,3.36,0,0,1-3.48-3.47c0-2.22,1.56-3.58,4.56-3.68l2.29-.07V19c0-1.94-1-2.59-2.44-2.59a4.57,4.57,0,0,0-3,1.06l-.72-1.27a6.28,6.28,0,0,1,4-1.31c2.16,0,3.88.93,3.88,3.84v3.43c0,3.21.09,4,.24,4.35H62.46M61.91,21l-2.25.07c-2,.08-2.85.77-2.85,2A2,2,0,0,0,59,25.21a3.8,3.8,0,0,0,2.89-1.31Z"/><path class="cls-2" d="M78.25,21.1c0,2.17,1.24,4.07,3.76,4.07a5.35,5.35,0,0,0,2.68-.8l.53,1.19a6,6,0,0,1-3.57,1.14c-3.54,0-5.26-2.89-5.26-6.12s1.87-5.73,4.6-5.73c2.92,0,4.52,2.33,4.52,5.84v.41H78.25M81,16.34c-1.68,0-2.73,1.47-2.73,3.29H83.6C83.6,18,82.72,16.34,81,16.34Z"/><path class="cls-2" d="M41.4,26.37v-7c0-1.4-.24-3-2-3a5.78,5.78,0,0,0-3.53,1.77v8H34.16V15H35.6l.24,1.34a6.51,6.51,0,0,1,4-1.64c1.63,0,3.25,1.18,3.25,4v7.61H41.4"/><path class="cls-2" d="M52,.65c.15.62-.32,1.27-1.12,1.68a.09.09,0,0,1-.09-.13,1.08,1.08,0,0,0,.53-1c0-.17-.05-.13-.23-.19a.45.45,0,0,1-.31-.35A.51.51,0,0,1,51.13,0,.74.74,0,0,1,52,.65"/><path class="cls-2" d="M49.51,9.88a.94.94,0,0,1-1-1.06V1.07h.89V8.41c0,.56.13.65.48.65a1.11,1.11,0,0,0,.31,0l.11.65a1.44,1.44,0,0,1-.77.2"/><polyline class="cls-2" points="53.41 9.75 53.41 1.67 57.37 1.67 57.02 2.51 54.3 2.51 54.3 5.2 57 5.2 57 6.04 54.3 6.04 54.3 8.93 57.41 8.93 57.41 9.75 53.41 9.75"/><path class="cls-2" d="M62.75,9.75l-.24-.6a2.9,2.9,0,0,1-1.87.73c-.79,0-1.77-.41-1.77-2V3.95h.89V7.76c0,1,.41,1.34,1.13,1.34a2.12,2.12,0,0,0,1.55-.77V3.95h.89V7.33a9.54,9.54,0,0,0,.12,2.43h-.71"/><path class="cls-2" d="M67.77,4.85a1.76,1.76,0,0,0-.55-.09,2.1,2.1,0,0,0-1.28.71V9.75h-.89V3.95h.73l.12.67a2.25,2.25,0,0,1,1.67-.8,1.15,1.15,0,0,1,.59.17l-.39.86"/><path class="cls-2" d="M72.92,9.16a2.51,2.51,0,0,1-1.84.73,2.44,2.44,0,0,1-1.8-.71,3.25,3.25,0,0,1-.81-2.31,3.23,3.23,0,0,1,.81-2.3,2.41,2.41,0,0,1,1.81-.75,2.46,2.46,0,0,1,1.84.75,3.29,3.29,0,0,1,.81,2.3,3.27,3.27,0,0,1-.83,2.3M71.09,4.56c-1.09,0-1.72.9-1.72,2.26S70,9.1,71.11,9.1s1.72-.9,1.72-2.28S72.21,4.56,71.09,4.56Z"/><path class="cls-2" d="M76.89,9.88a2.63,2.63,0,0,1-1-.19v3H75V4.21a5.27,5.27,0,0,1,1.91-.39,2.7,2.7,0,0,1,2.86,3,2.9,2.9,0,0,1-2.9,3.1m0-5.26a3,3,0,0,0-1,.15V8.88a2,2,0,0,0,.93.23,2,2,0,0,0,2-2.3A1.92,1.92,0,0,0,76.91,4.62Z"/><path class="cls-2" d="M81.74,7A1.91,1.91,0,0,0,83.66,9.1,2.73,2.73,0,0,0,85,8.67l.28.61a3.06,3.06,0,0,1-1.84.6c-1.81,0-2.69-1.49-2.69-3.14s1-2.93,2.36-2.93,2.32,1.18,2.32,3V7H81.74m1.41-2.45a1.51,1.51,0,0,0-1.4,1.68h2.73C84.48,5.44,84,4.56,83.15,4.56Z"/><path class="cls-2" d="M66.22,41.05a1,1,0,0,0,1.13,1.06,2,2,0,0,0,1.48-.65V40l-1.16,0C66.63,40.07,66.22,40.42,66.22,41.05Z"/><path class="cls-2" d="M46.88,37.58a1.51,1.51,0,0,0-1.4,1.68h2.73C48.22,38.46,47.76,37.58,46.88,37.58Z"/><path class="cls-2" d="M83.08,37.58a1.51,1.51,0,0,0-1.4,1.68h2.73C84.42,38.46,84,37.58,83.08,37.58Z"/><path class="cls-2" d="M74.48,26.2a2.51,2.51,0,0,1,1.31,2.28c0,1.87-1.68,3.68-5.62,3.68-3.42,0-5.34-1.51-5.34-3.38a3,3,0,0,1,1.71-2.58H53.83a2.49,2.49,0,0,1,1.31,2.28c0,1.87-1.67,3.68-5.62,3.68-3.42,0-5.34-1.51-5.34-3.38a3,3,0,0,1,1.72-2.58h-10a14.78,14.78,0,0,1-13.64,8.66,14.86,14.86,0,0,1-13-7.45V44.66H86.48V26.2ZM49.19,40H45.47a1.89,1.89,0,0,0,1.92,2.07,2.7,2.7,0,0,0,1.37-.41l.28.62a3.19,3.19,0,0,1-1.84.58c-1.81,0-2.69-1.47-2.69-3.14s1-2.93,2.36-2.93,2.32,1.19,2.32,3Zm5.08,2.74h-.89V39.21c0-.73-.12-1.55-1-1.55a2.91,2.91,0,0,0-1.81.92v4.2h-.89V37h.73l.13.69a3.3,3.3,0,0,1,2.06-.84c.84,0,1.67.6,1.67,2.05Zm7.33-7.24H58.87v2.73h2.69v.82H58.87v3.7H58V34.69h4Zm2.88,2.24a2.06,2.06,0,0,0-1.28.69v4.31H62.3V37H63l.13.67a2.27,2.27,0,0,1,1.65-.82,1.11,1.11,0,0,1,.59.17l-.39.88A1.34,1.34,0,0,0,64.47,37.77Zm4.64,5-.23-.56a2.51,2.51,0,0,1-1.79.67,1.72,1.72,0,0,1-1.77-1.77c0-1.14.8-1.83,2.33-1.89l1.17,0v-.28c0-1-.52-1.31-1.25-1.31a2.43,2.43,0,0,0-1.52.52l-.37-.63a3.27,3.27,0,0,1,2.05-.67,1.76,1.76,0,0,1,2,2v1.77a8.73,8.73,0,0,0,.12,2.22Zm6.22,0h-.89V39.21c0-.73-.12-1.55-1-1.55a2.91,2.91,0,0,0-1.81.92v4.2h-.89V37h.73l.13.69a3.3,3.3,0,0,1,2.07-.84c.84,0,1.67.6,1.67,2.05Zm3.18.11a2.69,2.69,0,0,1-2.69-2.95,2.85,2.85,0,0,1,2.86-3.12,3.15,3.15,0,0,1,1.48.37V38a2.91,2.91,0,0,0-1.52-.43c-1.21,0-1.92,1-1.92,2.28s.71,2.24,1.91,2.24a2.54,2.54,0,0,0,1.44-.43l.28.63A3.41,3.41,0,0,1,78.51,42.88ZM85.39,40H81.67A1.89,1.89,0,0,0,83.6,42.1,2.74,2.74,0,0,0,85,41.69l.27.62a3.15,3.15,0,0,1-1.82.58c-1.81,0-2.7-1.47-2.7-3.14s1-2.93,2.36-2.93,2.32,1.19,2.32,3Z"/><path class="cls-2" d="M66.63,28.57c0,1.18,1.44,2.11,3.65,2.11s3.56-.8,3.56-2c0-2-4.09-1.77-5.57-2.17C67.64,26.85,66.63,27.5,66.63,28.57Z"/><path class="cls-2" d="M46,28.57c0,1.18,1.44,2.11,3.64,2.11s3.57-.8,3.57-2c0-2-4.1-1.77-5.58-2.17C47,26.85,46,27.5,46,28.57Z"/><path class="cls-2" d="M34.17,26.2a11.88,11.88,0,0,1-8.1,6.07c-4.11.91-8.74-1.92-11.17-5.7A67,67,0,0,0,23.82,23c3.82-2.11,8.85-7.65,8.25-11.65a12.43,12.43,0,0,0-3.89-2.71A13.59,13.59,0,0,0,19.07,8,13.32,13.32,0,0,0,9.34,20.3v.06a1.12,1.12,0,0,1,0,.2v.51a2.19,2.19,0,0,0,0,.3v0c0,.3,0,.62.07.91a.32.32,0,0,0,0,.11c0,.06,0,.09,0,.15a13.92,13.92,0,0,0,.37,1.9s0,.06,0,.09a13.88,13.88,0,0,0,.73,2v0a13.78,13.78,0,0,0,1.09,1.94l.05.07v0a12.29,12.29,0,0,0,.87,1.12,13.42,13.42,0,0,0,13.78,4.14,15.85,15.85,0,0,0,9.54-7.67ZM28,11.49l.76-2.39.77,2.37H32l-2,1.46.76,2.35-2-1.45-2,1.45.76-2.35-2-1.46ZM17.53,13.77l1.71-5.32,1.71,5.32h5.57L22,17l1.69,5.25L19.24,19,14.8,22.26,16.49,17,12,13.77ZM12.82,25.13l-2,1.46.76-2.35-2-1.45h2.49l.76-2.37.77,2.37h2.49l-2,1.45.76,2.35Z"/><g class="cls-3"><path class="cls-2" d="M49.51,32.15c-3.42,0-5.34-1.51-5.34-3.38,0-1.25.87-2.17,2.16-2.84a1.44,1.44,0,0,1-.79-1.38,3.15,3.15,0,0,1,1.29-2.16A3.89,3.89,0,0,1,45,19a4.4,4.4,0,0,1,6.21-3.73.24.24,0,0,0,.29,0,3.77,3.77,0,0,1,3.16-.8L54.11,16a2.37,2.37,0,0,0-1.65.06A3.83,3.83,0,0,1,53.77,19a4.13,4.13,0,0,1-4.45,4.18,3.91,3.91,0,0,1-1.44-.24,1.75,1.75,0,0,0-.57,1.31c0,1.66,7.82,0,7.82,4.24,0,1.87-1.67,3.68-5.62,3.68m-1.89-5.67c-.63.37-1.63,1-1.63,2.11s1.44,2.09,3.64,2.09,3.57-.8,3.57-2C53.2,26.61,49.1,26.87,47.62,26.48Zm1.72-10.12A2.46,2.46,0,0,0,46.75,19a2.53,2.53,0,0,0,2.58,2.71A2.48,2.48,0,0,0,51.95,19,2.51,2.51,0,0,0,49.34,16.36Z"/><path class="cls-2" d="M70.16,32.15c-3.42,0-5.34-1.51-5.34-3.38,0-1.25.87-2.17,2.16-2.84a1.45,1.45,0,0,1-.8-1.38,3.21,3.21,0,0,1,1.29-2.16A3.88,3.88,0,0,1,65.6,19a4.13,4.13,0,0,1,4.21-4.12,4.24,4.24,0,0,1,2,.39.22.22,0,0,0,.28,0,3.77,3.77,0,0,1,3.16-.8L74.76,16a2.37,2.37,0,0,0-1.65.06A3.83,3.83,0,0,1,74.42,19,4.13,4.13,0,0,1,70,23.17a4,4,0,0,1-1.44-.24,1.75,1.75,0,0,0-.57,1.31c0,1.66,7.83,0,7.83,4.24,0,1.87-1.68,3.68-5.62,3.68m-1.89-5.67c-.63.37-1.64,1-1.64,2.11s1.44,2.09,3.65,2.09,3.56-.8,3.56-2C73.84,26.61,69.75,26.87,68.27,26.48ZM70,16.36A2.46,2.46,0,0,0,67.4,19,2.53,2.53,0,0,0,70,21.68,2.48,2.48,0,0,0,72.6,19,2.52,2.52,0,0,0,70,16.36Z"/></g><path class="cls-2" d="M86.28,49.58a1.9,1.9,0,0,1-1.29,1,1.85,1.85,0,0,1-1.79-.91,10.38,10.38,0,0,0,1.43-.57c.61-.34,1.41-1.22,1.32-1.86a2,2,0,0,0-.62-.44,2.15,2.15,0,0,0-3,1.86h0v0h0v.12h0c0,.05,0,.1,0,.15v0a2.17,2.17,0,0,0,.06.31h0a2.47,2.47,0,0,0,.12.31h0a1.93,1.93,0,0,0,.18.31v0h0l.13.17a2.14,2.14,0,0,0,2.2.66,2.54,2.54,0,0,0,1.53-1.23Zm-1-2.35.12-.38.12.38h.4l-.32.23.12.38-.32-.23-.32.23.12-.38-.32-.23Zm-1.67.37.27-.85.27.85h.89l-.72.52.27.84-.71-.51-.71.51.27-.84-.72-.52Zm-.75,1.81-.32.23.12-.37L82.35,49h.4l.12-.39L83,49h.4l-.33.23.12.37Z"/><path class="cls-2" d="M59.33,50.07v-.76l-.59,0c-.5,0-.75.19-.75.53a.53.53,0,0,0,.14.38.56.56,0,0,0,.43.16,1,1,0,0,0,.76-.34m.52.67h-.38l-.12-.29a1.25,1.25,0,0,1-.91.35.89.89,0,0,1-.64-.24.87.87,0,0,1-.27-.66.86.86,0,0,1,.3-.7,1.45,1.45,0,0,1,.89-.27l.6,0v-.14c0-.45-.21-.68-.64-.68a1.24,1.24,0,0,0-.78.28L57.73,48a1.73,1.73,0,0,1,1-.34.89.89,0,0,1,1,1v.9a5.43,5.43,0,0,0,.06,1.14"/><polygon class="cls-2" points="62.48 47.77 61.53 50.15 61.52 50.15 60.67 47.77 60.2 47.77 61.33 50.76 61.69 50.76 62.92 47.77 62.48 47.77"/><path class="cls-2" d="M65.1,48.95a1,1,0,0,0-.17-.58.6.6,0,0,0-.52-.28.64.64,0,0,0-.52.25,1,1,0,0,0-.2.61Zm.49.39h-1.9a1.14,1.14,0,0,0,.24.75.92.92,0,0,0,.74.32,1.28,1.28,0,0,0,.7-.21l.14.31a1.42,1.42,0,0,1-.94.3,1.23,1.23,0,0,1-1-.48,1.79,1.79,0,0,1-.35-1.12,1.67,1.67,0,0,1,.34-1.07,1.06,1.06,0,0,1,.87-.43,1,1,0,0,1,.88.41,1.84,1.84,0,0,1,.31,1.12Z"/><path class="cls-2" d="M68.47,50.52a1.67,1.67,0,0,1-.94.29,1.26,1.26,0,0,1-1-.46,1.58,1.58,0,0,1-.35-1.05,1.69,1.69,0,0,1,.36-1.11,1.35,1.35,0,0,1,1.1-.49,1.49,1.49,0,0,1,.75.19v.43a1.4,1.4,0,0,0-.77-.22.88.88,0,0,0-.72.33,1.29,1.29,0,0,0-.26.84,1.25,1.25,0,0,0,.26.83.87.87,0,0,0,.71.32,1.35,1.35,0,0,0,.74-.23Z"/><path class="cls-2" d="M71.53,50.7a.87.87,0,0,1-.39.1q-.52,0-.52-.55v-4h.46v3.75a.59.59,0,0,0,0,.24.22.22,0,0,0,.21.09l.16,0Z"/><path class="cls-2" d="M73.82,48.95a1,1,0,0,0-.17-.58.61.61,0,0,0-.51-.28.64.64,0,0,0-.52.25,1,1,0,0,0-.2.61Zm.5.39h-1.9a1.14,1.14,0,0,0,.25.75.91.91,0,0,0,.74.32,1.26,1.26,0,0,0,.7-.21l.14.31a1.41,1.41,0,0,1-.94.3,1.23,1.23,0,0,1-1-.48,1.78,1.78,0,0,1-.34-1.12,1.67,1.67,0,0,1,.33-1.07,1.07,1.07,0,0,1,.87-.43,1,1,0,0,1,.87.41,1.83,1.83,0,0,1,.31,1.12Z"/><polygon class="cls-2" points="76.77 46.61 76.77 50.74 77.23 50.74 77.23 48.86 78.61 48.86 78.61 48.43 77.23 48.43 77.23 47.03 78.61 47.03 78.8 46.61 76.77 46.61"/><path class="cls-2" d="M76.93,46.77h1.62l0,.11H77.07v1.72h1.38v.11H77.07v1.88h-.14Zm-.31-.32V50.9h.77V49h1.38v-.74H77.39V47.19h1.32l.33-.75Z"/><path class="cls-2" d="M81.88,49.73a1,1,0,0,1-.37.77,1.45,1.45,0,0,1-.94.29,2,2,0,0,1-1.13-.33l.22-.37a1.49,1.49,0,0,0,.9.29,1,1,0,0,0,.55-.14.53.53,0,0,0,.27-.48.88.88,0,0,0-.46-.72l-.87-.55a1.13,1.13,0,0,1-.46-.9,1,1,0,0,1,.32-.74,1.25,1.25,0,0,1,.87-.29,2,2,0,0,1,.92.2v.49a1.57,1.57,0,0,0-.9-.26.93.93,0,0,0-.52.13.48.48,0,0,0-.23.43.88.88,0,0,0,.48.7l.88.57a1.13,1.13,0,0,1,.48.91"/><path class="cls-2" d="M79.66,50.42a1.86,1.86,0,0,0,.91.22,1.28,1.28,0,0,0,.83-.26.78.78,0,0,0,.31-.65,1,1,0,0,0-.41-.78l-.87-.56a1,1,0,0,1-.55-.83.65.65,0,0,1,.29-.56,1.1,1.1,0,0,1,.61-.16,1.82,1.82,0,0,1,.74.15v-.12a1.91,1.91,0,0,0-.76-.14A1.09,1.09,0,0,0,80,47a.79.79,0,0,0-.27.62,1,1,0,0,0,.4.77l.86.55a1,1,0,0,1,.54.85.69.69,0,0,1-.34.61,1.19,1.19,0,0,1-.64.17,1.66,1.66,0,0,1-.85-.22Zm.91.54a2.16,2.16,0,0,1-1.22-.35l-.13-.09.39-.65.14.1a1.33,1.33,0,0,0,.81.26.86.86,0,0,0,.47-.12.37.37,0,0,0,.2-.34.73.73,0,0,0-.39-.59L80,48.63a1.28,1.28,0,0,1-.52-1,1.1,1.1,0,0,1,.37-.86,1.41,1.41,0,0,1,1-.33,2.12,2.12,0,0,1,1,.22l.08,0v.88l-.25-.16a1.44,1.44,0,0,0-.81-.24.81.81,0,0,0-.44.1.33.33,0,0,0-.15.3c0,.19.13.38.4.57l.89.57a1.29,1.29,0,0,1,.53,1,1.11,1.11,0,0,1-.43.9,1.62,1.62,0,0,1-1,.33"/></g></g></svg>