<svg xmlns="http://www.w3.org/2000/svg" viewBox="0 0 147.12 17.48"><defs><style>.cls-1{fill:#fff;}.cls-2{fill:none;stroke:#fff;stroke-width:0.73px;}</style></defs><title>Mairie-de-Paris</title><g id="Calque_2" data-name="Calque 2"><g id="Calque_1-2" data-name="Calque 1"><path class="cls-1" d="M136.85.25c10.95,3.25,0,12.3,0,12.3,0-6-8.44-7.72-8.44-7.72L136.85.25H125.14v17h11.71c-9.08-1.68-9.94-7.23-9.94-7.23l1.92-2.5c-.69,2.33,3.54,4.77,8,5.06h0c4.46-.29,8.71-2.73,8-5.06l1.92,2.5s-.87,5.56-9.94,7.23h9.9V.25Z"/><rect class="cls-2" x="0.37" y="0.37" width="146.38" height="16.75"/><path class="cls-1" d="M28.91,6.87c-.45.94-.86,1.9-1.25,2.88h2.44C29.71,8.77,29.33,7.81,28.91,6.87Z"/><path class="cls-1" d="M94.12,6.87c-.45.94-.86,1.9-1.24,2.88h2.44C94.92,8.77,94.55,7.81,94.12,6.87Z"/><path class="cls-1" d="M88.53,6.91c0-1.23-.65-1.63-1.41-1.63-.22,0-.41,0-.56,0,0,1.14,0,2.27,0,3.4C87.43,8.7,88.53,8.48,88.53,6.91Z"/><path class="cls-1" d="M66.36,12.26c2,0,3.27-1.23,3.27-3.75a2.94,2.94,0,0,0-3-3.22,13.26,13.26,0,0,0-1.39.06c0,.23,0,1.71,0,2.36V9.86c0,.65,0,2.13,0,2.36C65.46,12.24,65.82,12.26,66.36,12.26Z"/><path class="cls-1" d="M104.42,6.87c0-1.43-.61-1.59-2.06-1.59,0,1.1,0,2.19,0,3.29l.29,0A1.59,1.59,0,0,0,104.42,6.87Z"/><path class="cls-1" d="M43.6,6.87c0-1.43-.61-1.59-2.06-1.59,0,1.1,0,2.19,0,3.29l.29,0A1.59,1.59,0,0,0,43.6,6.87Z"/><path class="cls-1" d="M.37,17.12H125.14V.37H.37ZM113,7a2.71,2.71,0,0,1,3-2.59,3.67,3.67,0,0,1,2.19.59,11.13,11.13,0,0,0-.43,1.2h-.2a1.58,1.58,0,0,0-1.62-1,1.25,1.25,0,0,0-1.38,1.09c0,1.79,4,1.34,4,4.09,0,1.63-1.41,2.74-3.53,2.74a4.07,4.07,0,0,1-2.14-.52,12.62,12.62,0,0,0,.39-1.54h.24a1.73,1.73,0,0,0,1.85,1.31c1,0,1.56-.56,1.56-1.24C117,9.29,113,9.77,113,7Zm-4.24-2.44c.3,0,.66.06,1.1.06s.8,0,1.09-.06c-.07,1.07-.1,2-.1,3.36V9.59c0,1.36,0,2.29.1,3.36-.29,0-.65-.06-1.09-.06s-.8,0-1.1.06c.08-1.07.11-2,.11-3.36V7.95C108.88,6.59,108.85,5.66,108.77,4.59Zm-8.54,0c.3,0,.66.06,1.09.06s1.06-.06,2-.06A3.87,3.87,0,0,1,105.6,5a1.84,1.84,0,0,1,.86,1.6c0,1.18-.74,1.93-2.06,2.23.85,1.37,1.86,2.75,2.84,4.12-.4,0-.8-.06-1.2-.06s-.81,0-1.21.06l-2.38-3.85h-.12v.5c0,1.36,0,2.29.11,3.36-.3,0-.65-.06-1.1-.06s-.79,0-1.09.06c.09-1.07.12-2,.12-3.36V7.95C100.35,6.59,100.32,5.66,100.23,4.59Zm-5.6,0a3.43,3.43,0,0,0,.5-.06c1.13,2.76,2.69,6.45,3.7,8.42-.42,0-.8-.06-1.17-.06s-.76,0-1.13.06c-.28-.82-.59-1.66-.92-2.48l-1.7,0-1.39,0a22.22,22.22,0,0,0-.9,2.48,6,6,0,0,0-.63-.06c-.21,0-.41,0-.67.06C91,11.6,93,7.29,94.12,4.53A3.74,3.74,0,0,0,94.63,4.59Zm-10.17,0c.29,0,.65.06,1.1.06.61,0,1.3-.06,1.94-.06a3.74,3.74,0,0,1,2.31.5,1.88,1.88,0,0,1,.83,1.63c0,1.85-1.44,2.59-3.43,2.59h-.68c0,1.21,0,2.42.1,3.63-.28,0-.65-.06-1.08-.06s-.81,0-1.1.06c.08-1.07.1-2,.1-3.36V7.95C84.56,6.59,84.54,5.66,84.46,4.59Zm-10.87,0c.79,0,1.59.06,2.37.06,1.31,0,2.42,0,2.78-.06a2.72,2.72,0,0,0-.05.51,3.13,3.13,0,0,0,.05.55c-1-.06-2.61-.15-3-.15-.07.89-.07,1.76-.07,2.64,1.15,0,2-.05,3-.1a2.36,2.36,0,0,0-.06.55,3.15,3.15,0,0,0,.06.49c-1-.07-2-.11-3-.11,0,.51,0,1,0,1.55s0,1,0,1.51a28.53,28.53,0,0,0,3-.16,3.06,3.06,0,0,0-.05.54,2.49,2.49,0,0,0,.05.52c-.49,0-1.11-.06-2.33-.06-2.17,0-2.53,0-2.82.06.08-1.07.11-2,.11-3.36V7.95C73.69,6.59,73.66,5.66,73.59,4.59Zm-10.49,0c.3,0,.66.06,1.1.06s1.24-.06,2.41-.06c3,0,5.13.89,5.13,3.94a4.4,4.4,0,0,1-4.61,4.42c-1.33,0-2.23-.06-2.93-.06-.44,0-.8,0-1.1.06.09-1.07.11-2,.11-3.36V7.95C63.21,6.59,63.18,5.66,63.1,4.59Zm-10.64,0c.79,0,1.59.06,2.37.06,1.31,0,2.43,0,2.79-.06a2.25,2.25,0,0,0-.06.51,2.59,2.59,0,0,0,.06.55c-1-.06-2.61-.15-3-.15-.07.89-.07,1.76-.07,2.64,1.16,0,2-.05,3-.1a2.74,2.74,0,0,0-.07.55,3.33,3.33,0,0,0,.07.49c-1-.07-2-.11-3-.11,0,.51,0,1,0,1.55s0,1,0,1.51a28.37,28.37,0,0,0,3.05-.16,2.53,2.53,0,0,0-.06.54,2.1,2.1,0,0,0,.06.52c-.48,0-1.11-.06-2.33-.06-2.17,0-2.53,0-2.83.06.08-1.07.11-2,.11-3.36V7.95C52.56,6.59,52.54,5.66,52.46,4.59ZM48,4.59c.29,0,.65.06,1.09.06s.8,0,1.1-.06c-.08,1.07-.11,2-.11,3.36V9.59c0,1.36,0,2.29.11,3.36-.3,0-.65-.06-1.1-.06s-.8,0-1.09.06c.08-1.07.1-2,.1-3.36V7.95C48.08,6.59,48,5.66,48,4.59Zm-8.56,0c.29,0,.65.06,1.1.06s1-.06,2-.06A3.88,3.88,0,0,1,44.77,5a1.85,1.85,0,0,1,.86,1.6c0,1.18-.75,1.93-2.07,2.23.85,1.37,1.87,2.75,2.84,4.12-.4,0-.8-.06-1.2-.06s-.81,0-1.22.06L41.62,9.09h-.12v.5c0,1.36,0,2.29.11,3.36-.29,0-.65-.06-1.09-.06s-.8,0-1.1.06c.09-1.07.11-2,.11-3.36V7.95C39.52,6.59,39.5,5.66,39.41,4.59ZM35,4.59c.3,0,.66.06,1.1.06s.8,0,1.09-.06c-.08,1.07-.11,2-.11,3.36V9.59c0,1.36,0,2.29.11,3.36-.29,0-.65-.06-1.09-.06s-.8,0-1.1.06c.08-1.07.11-2,.11-3.36V7.95C35.11,6.59,35.08,5.66,35,4.59Zm-6.09-.06a3.51,3.51,0,0,0,.51.06,3.33,3.33,0,0,0,.5-.06c1.14,2.76,2.7,6.45,3.7,8.42-.42,0-.8-.06-1.17-.06s-.76,0-1.13.06c-.28-.82-.59-1.66-.92-2.48l-1.7,0-1.39,0a22.85,22.85,0,0,0-.91,2.48,5.79,5.79,0,0,0-.62-.06c-.21,0-.42,0-.67.06C25.77,11.6,27.76,7.29,28.91,4.53Zm-14.57.06a2.55,2.55,0,0,0,.55.06,2.41,2.41,0,0,0,.53-.06c1,1.93,2.1,4.09,3.08,5.79,1.05-1.81,2.14-3.87,3.11-5.79a2.74,2.74,0,0,0,.57.06,2.71,2.71,0,0,0,.56-.06c.35,2.79.81,6.65,1.14,8.36-.36,0-.72-.06-1.08-.06s-.73,0-1.11.06c-.09-1.68-.32-3.74-.53-5.62h0c-1,1.87-2,3.74-3,5.62l-.25,0-.25,0c-.95-1.83-1.9-3.67-2.91-5.5h0c-.28,1.83-.4,3.67-.53,5.5a3.91,3.91,0,0,0-.63-.06,3.69,3.69,0,0,0-.62.06C13.52,10.16,14,7.38,14.33,4.59Z"/><path class="cls-1" d="M136.89.25c10.95,3.25,0,12.3,0,12.3,0-6-8.44-7.72-8.44-7.72L136.89.25h-12v17h11.95C127.81,15.56,127,10,127,10l1.92-2.5c-.69,2.33,3.54,4.77,8,5.06h0c4.46-.29,8.71-2.73,8-5.06l1.92,2.5s-.87,5.56-9.94,7.23h9.86V.25Z"/></g></g></svg>