<svg xmlns="http://www.w3.org/2000/svg" xmlns:xlink="http://www.w3.org/1999/xlink" viewBox="0 0 57.8 84.65"><defs><style>.cls-1{fill:none;}.cls-2{fill:#fff;}.cls-3{clip-path:url(#clip-path);}</style><clipPath id="clip-path"><polygon class="cls-1" points="5.63 20.51 5.63 4.64 52.9 4.64 52.9 20.51 5.63 20.51 5.63 20.51"/></clipPath></defs><title>Ministere-Education-nationale</title><g id="Calque_2" data-name="Calque 2"><g id="Calque_1-2" data-name="Calque 1"><path class="cls-2" d="M57.8,37.74H0V0H57.8ZM.26,37.47H57.54V.26H.26Z"/><path class="cls-2" d="M17.62,47.47l-1.28-2.78v2.2a.67.67,0,0,0,.07.38.36.36,0,0,0,.28.1h.12v.09H15.66v-.09h.12a.33.33,0,0,0,.3-.12.76.76,0,0,0,.05-.36V44.74a.75.75,0,0,0,0-.32.27.27,0,0,0-.12-.12.68.68,0,0,0-.29,0v-.09h.93l1.2,2.58L19,44.17h.93v.09h-.11a.34.34,0,0,0-.3.13.74.74,0,0,0-.05.35V46.9a.65.65,0,0,0,.07.38.36.36,0,0,0,.29.1h.11v.09H18.5v-.09h.12a.33.33,0,0,0,.3-.12A.74.74,0,0,0,19,46.9v-2.2L17.7,47.47Z"/><path class="cls-2" d="M21.55,47.38v.09H20.13v-.09h.12a.35.35,0,0,0,.3-.12.75.75,0,0,0,.06-.37V44.76a1.1,1.1,0,0,0,0-.33.22.22,0,0,0-.1-.11.46.46,0,0,0-.22-.06h-.12v-.09h1.42v.09h-.12a.34.34,0,0,0-.29.12.71.71,0,0,0-.06.37v2.13a1.09,1.09,0,0,0,0,.33.23.23,0,0,0,.1.11.47.47,0,0,0,.22.06Z"/><path class="cls-2" d="M21.6,44.17h.9l2,2.48v-1.9a.67.67,0,0,0-.07-.38.36.36,0,0,0-.29-.1H24v-.09H25.2v.09h-.12a.33.33,0,0,0-.3.13.72.72,0,0,0-.05.35v2.78h-.09l-2.18-2.66v2a.66.66,0,0,0,.07.38.36.36,0,0,0,.28.1h.12v.09H21.79v-.09h.11a.34.34,0,0,0,.3-.12.73.73,0,0,0,.05-.36V44.6a1.56,1.56,0,0,0-.22-.22.87.87,0,0,0-.22-.1l-.21,0Z"/><path class="cls-2" d="M26.81,47.38v.09H25.39v-.09h.12a.35.35,0,0,0,.3-.12.75.75,0,0,0,.06-.37V44.76a1.08,1.08,0,0,0,0-.33.22.22,0,0,0-.1-.11.46.46,0,0,0-.22-.06h-.12v-.09h1.41v.09h-.12a.35.35,0,0,0-.29.12.71.71,0,0,0-.06.37v2.13a1.07,1.07,0,0,0,0,.33.22.22,0,0,0,.1.11.46.46,0,0,0,.22.06Z"/><path class="cls-2" d="M29.21,44.1v1.14h-.09a1.42,1.42,0,0,0-.16-.52.84.84,0,0,0-.32-.31.9.9,0,0,0-.43-.11.59.59,0,0,0-.42.15.47.47,0,0,0-.17.35.42.42,0,0,0,.1.28,2.75,2.75,0,0,0,.72.49,5,5,0,0,1,.63.38.91.91,0,0,1,.26.31.81.81,0,0,1,.09.38.86.86,0,0,1-.29.64,1.05,1.05,0,0,1-.75.27l-.27,0-.31-.09a1.32,1.32,0,0,0-.3-.08.13.13,0,0,0-.1,0,.28.28,0,0,0-.05.15h-.09V46.42h.09a1.61,1.61,0,0,0,.17.53.82.82,0,0,0,.33.29,1,1,0,0,0,.48.12.69.69,0,0,0,.48-.16.5.5,0,0,0,.18-.38.52.52,0,0,0-.07-.25.74.74,0,0,0-.21-.23c-.06,0-.24-.15-.52-.31a5,5,0,0,1-.6-.38,1,1,0,0,1-.27-.31.78.78,0,0,1-.09-.37.81.81,0,0,1,.27-.61,1,1,0,0,1,.69-.26,1.39,1.39,0,0,1,.56.13.57.57,0,0,0,.19.06.14.14,0,0,0,.1,0,.31.31,0,0,0,.06-.15Z"/><path class="cls-2" d="M32.58,44.17l0,.77h-.09a1,1,0,0,0-.07-.29.49.49,0,0,0-.2-.21.71.71,0,0,0-.33-.07h-.46V46.9a.68.68,0,0,0,.06.38.37.37,0,0,0,.28.1h.11v.09h-1.4v-.09h.12a.33.33,0,0,0,.3-.12A.76.76,0,0,0,31,46.9V44.38h-.4a1.17,1.17,0,0,0-.33,0,.46.46,0,0,0-.22.18.72.72,0,0,0-.11.35h-.09l0-.77Z"/><path class="cls-2" d="M33.78,44.35v1.31h.73a.57.57,0,0,0,.38-.09.54.54,0,0,0,.14-.39h.09v1.15H35A1.26,1.26,0,0,0,35,46a.3.3,0,0,0-.14-.13.74.74,0,0,0-.31,0h-.73v1.09a1,1,0,0,0,0,.27.15.15,0,0,0,.07.08.41.41,0,0,0,.19,0h.56a1.69,1.69,0,0,0,.41,0,.62.62,0,0,0,.24-.16,1.82,1.82,0,0,0,.31-.45h.1l-.28.83H32.85v-.09H33a.47.47,0,0,0,.22-.05.21.21,0,0,0,.11-.12,1.14,1.14,0,0,0,0-.32V44.75a.7.7,0,0,0-.06-.39.37.37,0,0,0-.29-.1h-.12v-.09h2.54l0,.72h-.09a1.11,1.11,0,0,0-.11-.36.4.4,0,0,0-.18-.15,1.1,1.1,0,0,0-.34,0Zm-.05-1.25h.54l.26.84h-.09Z"/><path class="cls-2" d="M39.15,47.47h-.88l-1.12-1.54h-.35v1a.66.66,0,0,0,.07.38.34.34,0,0,0,.28.11h.13v.09H35.87v-.09H36a.33.33,0,0,0,.3-.14.77.77,0,0,0,.05-.36V44.76a.67.67,0,0,0-.07-.39.36.36,0,0,0-.28-.11h-.12v-.09h1.2a2.86,2.86,0,0,1,.77.08.89.89,0,0,1,.42.28.74.74,0,0,1,.17.49.77.77,0,0,1-.2.53,1.12,1.12,0,0,1-.61.32l.68.95a1.74,1.74,0,0,0,.4.43,1,1,0,0,0,.44.14Zm-2.34-1.7h.14a1.08,1.08,0,0,0,.71-.2.66.66,0,0,0,.24-.52.68.68,0,0,0-.19-.5.69.69,0,0,0-.51-.19,2,2,0,0,0-.38,0Z"/><path class="cls-2" d="M40.15,44.35v1.31h.73a.57.57,0,0,0,.38-.09.54.54,0,0,0,.14-.39h.09v1.15H41.4a1.26,1.26,0,0,0-.07-.31.3.3,0,0,0-.14-.13.74.74,0,0,0-.31,0h-.73v1.09a1,1,0,0,0,0,.27.15.15,0,0,0,.07.08.41.41,0,0,0,.19,0H41a1.69,1.69,0,0,0,.41,0,.62.62,0,0,0,.24-.16,1.87,1.87,0,0,0,.31-.45H42l-.29.83H39.21v-.09h.12a.46.46,0,0,0,.22-.05.21.21,0,0,0,.11-.12,1.19,1.19,0,0,0,0-.32V44.75a.7.7,0,0,0-.06-.39.37.37,0,0,0-.29-.1h-.12v-.09h2.54l0,.72h-.1a1.16,1.16,0,0,0-.11-.36.4.4,0,0,0-.18-.15,1.09,1.09,0,0,0-.34,0Z"/><path class="cls-2" d="M8.63,53.77v-.09h.12a.32.32,0,0,0,.3-.14.75.75,0,0,0,.05-.36V51.05A.67.67,0,0,0,9,50.66a.35.35,0,0,0-.28-.11H8.63v-.09H10a2.92,2.92,0,0,1,1.13.17,1.34,1.34,0,0,1,.62.56,1.73,1.73,0,0,1,.24.9,1.66,1.66,0,0,1-.42,1.15,1.84,1.84,0,0,1-1.43.52Zm.94-.24a2.48,2.48,0,0,0,.52.07,1.24,1.24,0,0,0,.94-.4A1.75,1.75,0,0,0,11,51a1.26,1.26,0,0,0-1-.39,2,2,0,0,0-.5.07Z"/><path class="cls-2" d="M13.18,50.65V52h.73a.6.6,0,0,0,.38-.09.55.55,0,0,0,.14-.39h.09v1.15h-.09a1.22,1.22,0,0,0-.07-.31.31.31,0,0,0-.14-.14.74.74,0,0,0-.31,0h-.73v1.09a1,1,0,0,0,0,.27.14.14,0,0,0,.07.07.4.4,0,0,0,.18,0H14a1.5,1.5,0,0,0,.41,0,.6.6,0,0,0,.24-.15,1.84,1.84,0,0,0,.31-.46h.1l-.28.83H12.24v-.09h.12a.47.47,0,0,0,.22-.06.2.2,0,0,0,.1-.12,1.1,1.1,0,0,0,0-.32V51a.7.7,0,0,0-.06-.39.38.38,0,0,0-.29-.1h-.12v-.09h2.54l0,.72h-.1a1.14,1.14,0,0,0-.11-.36.39.39,0,0,0-.18-.15,1.09,1.09,0,0,0-.34,0Z"/><path class="cls-2" d="M19.29,52.85l.08,0-.28.9H16.53v-.09h.13a.34.34,0,0,0,.3-.14.79.79,0,0,0,.05-.36V51.05a.68.68,0,0,0-.07-.39.35.35,0,0,0-.28-.11h-.13v-.09H18v.09a.92.92,0,0,0-.37,0,.3.3,0,0,0-.15.13,1.06,1.06,0,0,0,0,.37v2.07a.68.68,0,0,0,0,.28.17.17,0,0,0,.09.07,1.46,1.46,0,0,0,.38,0h.24a1.68,1.68,0,0,0,.53-.06.7.7,0,0,0,.28-.2A1.64,1.64,0,0,0,19.29,52.85Z"/><path class="cls-2" d="M19.6,51.65v-.11a1.09,1.09,0,0,0,.34-.28A.38.38,0,0,0,20,51a.18.18,0,0,0,0-.11.08.08,0,0,0-.06,0l-.07,0-.11,0a.24.24,0,0,1-.17-.07.27.27,0,0,1,0-.37.36.36,0,0,1,.24-.09.4.4,0,0,1,.29.14.48.48,0,0,1,.13.34.76.76,0,0,1-.22.52A1.05,1.05,0,0,1,19.6,51.65Z"/><path class="cls-2" d="M21.72,50.65V52h.72a.6.6,0,0,0,.38-.09.55.55,0,0,0,.14-.39h.09v1.15H23a1.14,1.14,0,0,0-.07-.31.3.3,0,0,0-.14-.14.74.74,0,0,0-.31,0h-.72v1.09a1.15,1.15,0,0,0,0,.27.15.15,0,0,0,.07.07.41.41,0,0,0,.19,0h.56a1.5,1.5,0,0,0,.41,0,.6.6,0,0,0,.24-.15,1.92,1.92,0,0,0,.31-.46h.1l-.28.83H20.78v-.09h.12a.46.46,0,0,0,.22-.06.21.21,0,0,0,.11-.12,1.2,1.2,0,0,0,0-.32V51a.71.71,0,0,0-.06-.39.38.38,0,0,0-.29-.1h-.12v-.09h2.54l0,.72h-.09a1.22,1.22,0,0,0-.11-.36.4.4,0,0,0-.18-.15,1.09,1.09,0,0,0-.34,0Zm1-1.25-.72.84H22l.26-.84Z"/><path class="cls-2" d="M23.81,53.77v-.09h.12a.33.33,0,0,0,.3-.14.77.77,0,0,0,.05-.36V51.05a.67.67,0,0,0-.07-.39.35.35,0,0,0-.28-.11h-.12v-.09h1.34a2.92,2.92,0,0,1,1.12.17,1.34,1.34,0,0,1,.62.56,1.72,1.72,0,0,1,.23.9,1.65,1.65,0,0,1-.42,1.15,1.84,1.84,0,0,1-1.43.52Zm.94-.24a2.47,2.47,0,0,0,.52.07,1.24,1.24,0,0,0,.94-.4,1.75,1.75,0,0,0,0-2.15,1.26,1.26,0,0,0-1-.39,2,2,0,0,0-.5.07Z"/><path class="cls-2" d="M29.7,50.56v-.09h1.17v.09h-.12a.33.33,0,0,0-.3.16.74.74,0,0,0-.05.35v1.34a2.36,2.36,0,0,1-.1.77,1,1,0,0,1-.39.47,1.38,1.38,0,0,1-.78.2,1.48,1.48,0,0,1-.82-.19,1,1,0,0,1-.4-.5,2.75,2.75,0,0,1-.08-.81V51.05a.64.64,0,0,0-.08-.4.34.34,0,0,0-.27-.09h-.12v-.09h1.43v.09h-.13a.32.32,0,0,0-.29.13.71.71,0,0,0-.06.37v1.44a3.28,3.28,0,0,0,0,.44,1,1,0,0,0,.13.39.71.71,0,0,0,.27.23.92.92,0,0,0,.43.09,1.17,1.17,0,0,0,.58-.14.75.75,0,0,0,.35-.36,2.08,2.08,0,0,0,.09-.74V51.05a.69.69,0,0,0-.07-.39.36.36,0,0,0-.28-.11Z"/><path class="cls-2" d="M33.92,50.39,34,51.51h-.07a1.42,1.42,0,0,0-.43-.72,1,1,0,0,0-.67-.22,1.09,1.09,0,0,0-.59.17,1.12,1.12,0,0,0-.42.53,2.37,2.37,0,0,0-.15.91,1.92,1.92,0,0,0,.14.77,1.07,1.07,0,0,0,.43.5,1.25,1.25,0,0,0,.66.18,1.13,1.13,0,0,0,.57-.14,1.86,1.86,0,0,0,.54-.54l.08,0a1.74,1.74,0,0,1-.58.64,1.46,1.46,0,0,1-.79.21,1.49,1.49,0,0,1-1.27-.61,1.74,1.74,0,0,1-.34-1.07,1.89,1.89,0,0,1,.22-.91,1.6,1.6,0,0,1,.61-.64,1.65,1.65,0,0,1,.85-.23,1.55,1.55,0,0,1,.71.18.37.37,0,0,0,.15.05.17.17,0,0,0,.11,0,.39.39,0,0,0,.09-.18Z"/><path class="cls-2" d="M36.52,52.66H35.24l-.22.52a.82.82,0,0,0-.08.29.17.17,0,0,0,.07.13.63.63,0,0,0,.31.08v.09h-1v-.09a.56.56,0,0,0,.27-.1,1.49,1.49,0,0,0,.27-.47L36,50.39h.08l1.15,2.75a1.24,1.24,0,0,0,.25.43.52.52,0,0,0,.32.11v.09h-1.3v-.09a.48.48,0,0,0,.27-.07.17.17,0,0,0,.07-.14,1,1,0,0,0-.1-.34Zm-.07-.18-.56-1.34-.57,1.34Z"/><path class="cls-2" d="M40.17,50.47l0,.77h-.09a1,1,0,0,0-.07-.29.48.48,0,0,0-.2-.21.69.69,0,0,0-.33-.07H39v2.52a.69.69,0,0,0,.07.38.37.37,0,0,0,.28.1h.12v.09h-1.4v-.09h.12a.34.34,0,0,0,.3-.13.76.76,0,0,0,.05-.36V50.67h-.4a1.1,1.1,0,0,0-.33,0,.45.45,0,0,0-.22.18.71.71,0,0,0-.11.35h-.09l0-.77Z"/><path class="cls-2" d="M41.87,53.68v.09H40.46v-.09h.12a.35.35,0,0,0,.3-.12.74.74,0,0,0,.06-.38V51.05a1.08,1.08,0,0,0,0-.33.21.21,0,0,0-.1-.1.45.45,0,0,0-.22-.06h-.12v-.09h1.41v.09h-.12a.35.35,0,0,0-.29.12.72.72,0,0,0-.06.38v2.13a1.1,1.1,0,0,0,0,.33.22.22,0,0,0,.1.11.47.47,0,0,0,.22.06Z"/><path class="cls-2" d="M43.82,50.39a1.5,1.5,0,0,1,1.11.49,1.69,1.69,0,0,1,.47,1.22,1.74,1.74,0,0,1-.47,1.25,1.58,1.58,0,0,1-2.29,0,1.73,1.73,0,0,1-.46-1.25,1.67,1.67,0,0,1,.54-1.28A1.58,1.58,0,0,1,43.82,50.39Zm0,.18a.87.87,0,0,0-.71.33,1.85,1.85,0,0,0-.33,1.2,2,2,0,0,0,.35,1.24.86.86,0,0,0,.7.33,1,1,0,0,0,.77-.36,1.77,1.77,0,0,0,.3-1.14,2,2,0,0,0-.33-1.26A.9.9,0,0,0,43.77,50.57Z"/><path class="cls-2" d="M45.53,50.47h.9l2,2.47V51a.67.67,0,0,0-.07-.38.36.36,0,0,0-.29-.1H48v-.09h1.15v.09H49a.34.34,0,0,0-.3.13.74.74,0,0,0-.05.35v2.78h-.09l-2.18-2.66v2a.68.68,0,0,0,.07.38.37.37,0,0,0,.28.1h.12v.09H45.71v-.09h.12a.34.34,0,0,0,.3-.13.75.75,0,0,0,.05-.36V50.9a1.55,1.55,0,0,0-.22-.22.83.83,0,0,0-.22-.1l-.21,0Z"/><path class="cls-2" d="M10.12,56.76H11l2,2.47v-1.9A.64.64,0,0,0,13,57a.36.36,0,0,0-.28-.1h-.12v-.09h1.15v.09h-.12a.33.33,0,0,0-.3.13.74.74,0,0,0-.05.35v2.78h-.09L11,57.46v2a.68.68,0,0,0,.06.38.37.37,0,0,0,.29.1h.12v.09H10.3V60h.11a.34.34,0,0,0,.3-.13.75.75,0,0,0,.05-.35v-2.3a1.35,1.35,0,0,0-.22-.22.78.78,0,0,0-.22-.1l-.21,0Z"/><path class="cls-2" d="M16.06,59H14.78l-.22.52a.84.84,0,0,0-.08.29.17.17,0,0,0,.07.13.63.63,0,0,0,.31.08v.09h-1V60a.57.57,0,0,0,.27-.09,1.49,1.49,0,0,0,.27-.48l1.16-2.71h.09l1.15,2.74a1.29,1.29,0,0,0,.25.43.52.52,0,0,0,.32.11v.09H16V60a.48.48,0,0,0,.27-.07.17.17,0,0,0,.07-.14,1,1,0,0,0-.1-.34ZM16,58.78l-.56-1.34-.57,1.34Z"/><path class="cls-2" d="M19.71,56.76l0,.77h-.09a.91.91,0,0,0-.07-.29.49.49,0,0,0-.2-.21.69.69,0,0,0-.33-.07h-.46v2.52a.66.66,0,0,0,.07.38.36.36,0,0,0,.28.1h.11v.09h-1.4V60h.12a.33.33,0,0,0,.3-.13.73.73,0,0,0,.05-.35V57h-.4a1.1,1.1,0,0,0-.33,0,.45.45,0,0,0-.22.18.74.74,0,0,0-.11.35H17l0-.77Z"/><path class="cls-2" d="M21.41,60v.09H20V60h.12a.35.35,0,0,0,.3-.12.75.75,0,0,0,.06-.38V57.35a1.16,1.16,0,0,0,0-.33.23.23,0,0,0-.1-.11.46.46,0,0,0-.22-.06H20v-.09h1.41v.09h-.12A.35.35,0,0,0,21,57a.7.7,0,0,0-.06.37v2.13a1.15,1.15,0,0,0,0,.33.22.22,0,0,0,.1.1.45.45,0,0,0,.22.06Z"/><path class="cls-2" d="M23.35,56.69a1.49,1.49,0,0,1,1.11.49,1.68,1.68,0,0,1,.47,1.22,1.74,1.74,0,0,1-.47,1.25,1.59,1.59,0,0,1-2.29,0,1.73,1.73,0,0,1-.46-1.25,1.67,1.67,0,0,1,.54-1.28A1.58,1.58,0,0,1,23.35,56.69Zm0,.18a.87.87,0,0,0-.71.33,1.85,1.85,0,0,0-.33,1.2,2,2,0,0,0,.35,1.24.85.85,0,0,0,.7.33,1,1,0,0,0,.77-.36,1.76,1.76,0,0,0,.3-1.14A2,2,0,0,0,24,57.19.9.9,0,0,0,23.31,56.86Z"/><path class="cls-2" d="M25.06,56.76H26l2,2.47v-1.9a.65.65,0,0,0-.07-.38.36.36,0,0,0-.28-.1h-.12v-.09h1.15v.09h-.12a.34.34,0,0,0-.3.13.75.75,0,0,0-.05.35v2.78H28.1l-2.18-2.66v2a.67.67,0,0,0,.07.38.37.37,0,0,0,.29.1h.12v.09H25.25V60h.12a.33.33,0,0,0,.3-.13.73.73,0,0,0,.05-.35v-2.3A1.43,1.43,0,0,0,25.5,57a.81.81,0,0,0-.22-.1l-.22,0Z"/><path class="cls-2" d="M31,59H29.73l-.22.52a.82.82,0,0,0-.08.29.17.17,0,0,0,.07.13.63.63,0,0,0,.31.08v.09h-1V60a.57.57,0,0,0,.27-.09,1.5,1.5,0,0,0,.27-.48l1.16-2.71h.08l1.15,2.74a1.27,1.27,0,0,0,.25.43.52.52,0,0,0,.31.11v.09H31V60a.48.48,0,0,0,.27-.07.17.17,0,0,0,.07-.14,1,1,0,0,0-.1-.34Zm-.07-.18-.56-1.34-.57,1.34Z"/><path class="cls-2" d="M35.18,59.15l.08,0-.28.9H32.43V60h.12a.33.33,0,0,0,.3-.14.77.77,0,0,0,.05-.36V57.35a.67.67,0,0,0-.07-.39.35.35,0,0,0-.28-.11h-.12v-.09h1.49v.09a.89.89,0,0,0-.37,0,.29.29,0,0,0-.14.13,1,1,0,0,0,0,.37v2.07a.67.67,0,0,0,0,.28.17.17,0,0,0,.09.08,1.61,1.61,0,0,0,.38,0h.24a1.75,1.75,0,0,0,.53-.06.69.69,0,0,0,.28-.2A1.59,1.59,0,0,0,35.18,59.15Z"/><path class="cls-2" d="M36.41,56.94v1.31h.72a.6.6,0,0,0,.38-.09.55.55,0,0,0,.14-.39h.09v1.15h-.09a1.18,1.18,0,0,0-.07-.31.3.3,0,0,0-.14-.14.75.75,0,0,0-.31,0h-.72v1.09a1,1,0,0,0,0,.27.15.15,0,0,0,.07.07.4.4,0,0,0,.18,0h.56a1.51,1.51,0,0,0,.41,0,.6.6,0,0,0,.24-.15,1.91,1.91,0,0,0,.31-.46h.1l-.29.83H35.47V60h.12a.47.47,0,0,0,.22-.06.21.21,0,0,0,.11-.12,1.11,1.11,0,0,0,0-.32V57.33a.71.71,0,0,0-.06-.39.39.39,0,0,0-.29-.1h-.12v-.09H38l0,.72H38a1.13,1.13,0,0,0-.11-.36.38.38,0,0,0-.18-.15,1.09,1.09,0,0,0-.34,0Z"/><path class="cls-2" d="M38.68,60.89v-.11a.79.79,0,0,0,.39-.26.58.58,0,0,0,.14-.37.13.13,0,0,0,0-.08l0,0-.12,0-.09,0a.25.25,0,0,1-.19-.07.26.26,0,0,1-.07-.19.27.27,0,0,1,.09-.21.32.32,0,0,1,.22-.08.38.38,0,0,1,.29.14.54.54,0,0,1,.12.37.73.73,0,0,1-.17.47A1.14,1.14,0,0,1,38.68,60.89Z"/><path class="cls-2" d="M41,60.06V60h.12a.33.33,0,0,0,.3-.14.76.76,0,0,0,.05-.36V57.35A.69.69,0,0,0,41.4,57a.36.36,0,0,0-.28-.11H41v-.09h1.34a3,3,0,0,1,1.13.17,1.34,1.34,0,0,1,.62.56,1.72,1.72,0,0,1,.23.9,1.65,1.65,0,0,1-.42,1.15,1.84,1.84,0,0,1-1.43.52Zm.94-.24a2.47,2.47,0,0,0,.52.07,1.23,1.23,0,0,0,.94-.4,1.74,1.74,0,0,0,0-2.15,1.26,1.26,0,0,0-1-.4,2,2,0,0,0-.5.07Z"/><path class="cls-2" d="M45.55,56.94v1.31h.73a.59.59,0,0,0,.38-.09.55.55,0,0,0,.14-.39h.09v1.15h-.09a1.18,1.18,0,0,0-.07-.31.31.31,0,0,0-.14-.14.75.75,0,0,0-.31,0h-.73v1.09a1,1,0,0,0,0,.27.15.15,0,0,0,.07.07.4.4,0,0,0,.18,0h.56a1.51,1.51,0,0,0,.41,0,.6.6,0,0,0,.24-.15,1.89,1.89,0,0,0,.31-.46h.1l-.28.83H44.61V60h.12a.47.47,0,0,0,.22-.06.21.21,0,0,0,.11-.12,1.14,1.14,0,0,0,0-.32V57.33a.71.71,0,0,0-.06-.39.38.38,0,0,0-.29-.1h-.12v-.09h2.54l0,.72h-.1a1.15,1.15,0,0,0-.11-.36A.39.39,0,0,0,46.8,57a1.1,1.1,0,0,0-.34,0Z"/><path class="cls-2" d="M10.4,65.44l.08,0-.28.9H7.65v-.09h.12a.33.33,0,0,0,.3-.14.78.78,0,0,0,.05-.36V63.64a.68.68,0,0,0-.07-.39.35.35,0,0,0-.28-.11H7.65v-.09H9.14v.09a.89.89,0,0,0-.37,0,.3.3,0,0,0-.15.13,1.09,1.09,0,0,0,0,.37v2.07a.68.68,0,0,0,0,.28.18.18,0,0,0,.09.08,1.59,1.59,0,0,0,.38,0h.24a1.71,1.71,0,0,0,.53-.06.69.69,0,0,0,.28-.2A1.6,1.6,0,0,0,10.4,65.44Z"/><path class="cls-2" d="M10.71,64.24v-.11a1.08,1.08,0,0,0,.34-.28.38.38,0,0,0,.06-.22.18.18,0,0,0,0-.11.08.08,0,0,0-.06,0l-.07,0-.11,0a.25.25,0,0,1-.25-.25.24.24,0,0,1,.08-.19.35.35,0,0,1,.24-.09.4.4,0,0,1,.29.14.48.48,0,0,1,.13.34.75.75,0,0,1-.22.52A1,1,0,0,1,10.71,64.24Z"/><path class="cls-2" d="M12.84,63.24v1.3h.73a.59.59,0,0,0,.38-.08.54.54,0,0,0,.14-.39h.09v1.15h-.09A1.26,1.26,0,0,0,14,64.9a.29.29,0,0,0-.14-.13.72.72,0,0,0-.31,0h-.73v1.09a1,1,0,0,0,0,.27.15.15,0,0,0,.07.08.4.4,0,0,0,.19,0h.56a1.49,1.49,0,0,0,.41,0,.6.6,0,0,0,.24-.15,1.82,1.82,0,0,0,.31-.45h.1l-.28.83H11.9v-.09H12a.47.47,0,0,0,.22-.06.21.21,0,0,0,.11-.12,1.17,1.17,0,0,0,0-.32V63.63a.71.71,0,0,0-.06-.39.37.37,0,0,0-.29-.1H11.9v-.09h2.54l0,.72h-.09a1.16,1.16,0,0,0-.11-.36.38.38,0,0,0-.18-.15,1.08,1.08,0,0,0-.34,0Z"/><path class="cls-2" d="M14.77,63.06h.9l2,2.48v-1.9a.66.66,0,0,0-.07-.38.37.37,0,0,0-.28-.1h-.12v-.09h1.15v.09h-.12a.33.33,0,0,0-.3.13.74.74,0,0,0-.05.35v2.78h-.09l-2.18-2.66v2a.69.69,0,0,0,.06.38.37.37,0,0,0,.29.1h.12v.09H15v-.09h.12a.34.34,0,0,0,.3-.13.76.76,0,0,0,.05-.35V63.49a1.59,1.59,0,0,0-.22-.22.8.8,0,0,0-.22-.1.74.74,0,0,0-.22,0Z"/><path class="cls-2" d="M20.72,63v1.14h-.09a1.4,1.4,0,0,0-.16-.52.8.8,0,0,0-.32-.31.88.88,0,0,0-.43-.11.59.59,0,0,0-.42.15.48.48,0,0,0-.17.35.42.42,0,0,0,.1.27,2.66,2.66,0,0,0,.72.49,5,5,0,0,1,.63.38.94.94,0,0,1,.26.31.83.83,0,0,1,.09.38.85.85,0,0,1-.29.64,1.06,1.06,0,0,1-.75.27l-.27,0-.31-.09a1.45,1.45,0,0,0-.3-.08.13.13,0,0,0-.1,0,.3.3,0,0,0-.05.15h-.09V65.3h.09a1.65,1.65,0,0,0,.17.53.81.81,0,0,0,.33.29,1,1,0,0,0,.48.12.69.69,0,0,0,.48-.16.49.49,0,0,0,.18-.38.5.5,0,0,0-.07-.25.71.71,0,0,0-.21-.23,5.57,5.57,0,0,0-.52-.31,5.23,5.23,0,0,1-.6-.38,1,1,0,0,1-.27-.31.77.77,0,0,1-.09-.38.81.81,0,0,1,.27-.61,1,1,0,0,1,.69-.26,1.4,1.4,0,0,1,.56.13.58.58,0,0,0,.19.06.14.14,0,0,0,.1,0,.28.28,0,0,0,.06-.15Z"/><path class="cls-2" d="M22.25,63.24v1.3H23a.59.59,0,0,0,.38-.08.55.55,0,0,0,.14-.39h.09v1.15H23.5a1.35,1.35,0,0,0-.07-.31.3.3,0,0,0-.14-.13.72.72,0,0,0-.31,0h-.72v1.09a.93.93,0,0,0,0,.27.14.14,0,0,0,.07.08.39.39,0,0,0,.18,0h.56a1.48,1.48,0,0,0,.41,0,.59.59,0,0,0,.24-.15,1.86,1.86,0,0,0,.31-.45h.1l-.28.83H21.31v-.09h.12a.47.47,0,0,0,.22-.06.21.21,0,0,0,.1-.12,1.12,1.12,0,0,0,0-.32V63.63a.71.71,0,0,0-.06-.39.37.37,0,0,0-.29-.1h-.12v-.09h2.54l0,.72h-.1a1.12,1.12,0,0,0-.11-.36.37.37,0,0,0-.18-.15,1.08,1.08,0,0,0-.34,0Z"/><path class="cls-2" d="M25.79,66.27v.09H24.38v-.09h.12a.36.36,0,0,0,.3-.12.76.76,0,0,0,.06-.37V63.64a1.09,1.09,0,0,0,0-.33.23.23,0,0,0-.1-.11.48.48,0,0,0-.22-.06h-.12v-.09h1.41v.09h-.12a.35.35,0,0,0-.29.12.72.72,0,0,0-.06.37v2.13a1.09,1.09,0,0,0,0,.33.21.21,0,0,0,.1.1.44.44,0,0,0,.22.06Z"/><path class="cls-2" d="M29,63l.08,1H29a1.44,1.44,0,0,0-.33-.59,1,1,0,0,0-.76-.28,1.08,1.08,0,0,0-1,.5,1.8,1.8,0,0,0-.27,1,2,2,0,0,0,.18.86,1.27,1.27,0,0,0,.48.57,1.15,1.15,0,0,0,.61.18,1.31,1.31,0,0,0,.35,0,1.35,1.35,0,0,0,.33-.14v-1a.9.9,0,0,0,0-.32.25.25,0,0,0-.12-.12.65.65,0,0,0-.28,0v-.09h1.28v.09h-.06a.27.27,0,0,0-.26.13.85.85,0,0,0,0,.35v1a2.43,2.43,0,0,1-.55.22,2.32,2.32,0,0,1-.61.07,1.76,1.76,0,0,1-1.45-.61,1.64,1.64,0,0,1-.37-1.06A1.86,1.86,0,0,1,27,63.19a1.68,1.68,0,0,1,.86-.21,1.86,1.86,0,0,1,.33,0,3.22,3.22,0,0,1,.42.13l.18.05a.1.1,0,0,0,.08,0,.3.3,0,0,0,0-.17Z"/><path class="cls-2" d="M29.45,63.06h.9l2,2.48v-1.9a.66.66,0,0,0-.07-.38.36.36,0,0,0-.28-.1h-.11v-.09H33v.09h-.12a.34.34,0,0,0-.3.13.75.75,0,0,0-.05.35v2.78h-.09l-2.18-2.66v2a.69.69,0,0,0,.07.38.37.37,0,0,0,.29.1h.12v.09H29.63v-.09h.12a.34.34,0,0,0,.3-.13.73.73,0,0,0,.05-.35V63.49a1.64,1.64,0,0,0-.22-.22.79.79,0,0,0-.22-.1.74.74,0,0,0-.22,0Z"/><path class="cls-2" d="M34.15,63.24v1.3h.72a.59.59,0,0,0,.38-.08.54.54,0,0,0,.14-.39h.09v1.15H35.4a1.22,1.22,0,0,0-.07-.31.3.3,0,0,0-.14-.13.71.71,0,0,0-.31,0h-.72v1.09a1,1,0,0,0,0,.27.14.14,0,0,0,.07.08.4.4,0,0,0,.18,0H35a1.5,1.5,0,0,0,.41,0,.6.6,0,0,0,.24-.15,1.92,1.92,0,0,0,.31-.45H36l-.29.83H33.21v-.09h.12a.48.48,0,0,0,.22-.06.21.21,0,0,0,.11-.12,1.21,1.21,0,0,0,0-.32V63.63a.71.71,0,0,0-.06-.39.37.37,0,0,0-.29-.1h-.12v-.09h2.54l0,.72H35.7a1.14,1.14,0,0,0-.11-.36.37.37,0,0,0-.18-.15,1.09,1.09,0,0,0-.34,0Z"/><path class="cls-2" d="M38.19,66.36l-1.28-2.78v2.2a.68.68,0,0,0,.07.38.37.37,0,0,0,.28.1h.12v.09H36.24v-.09h.12a.33.33,0,0,0,.3-.13.72.72,0,0,0,.05-.35V63.63a.76.76,0,0,0,0-.32.27.27,0,0,0-.12-.12.68.68,0,0,0-.29,0v-.09h.93l1.2,2.58,1.18-2.58h.93v.09h-.11a.34.34,0,0,0-.3.13.74.74,0,0,0-.05.35v2.16a.67.67,0,0,0,.07.38.37.37,0,0,0,.29.1h.11v.09h-1.4v-.09h.12a.33.33,0,0,0,.3-.13.74.74,0,0,0,.05-.35v-2.2l-1.27,2.78Z"/><path class="cls-2" d="M41.63,63.24v1.3h.72a.6.6,0,0,0,.38-.08.54.54,0,0,0,.14-.39H43v1.15h-.09a1.34,1.34,0,0,0-.07-.31.31.31,0,0,0-.14-.13.72.72,0,0,0-.31,0h-.72v1.09a1,1,0,0,0,0,.27.15.15,0,0,0,.07.08.4.4,0,0,0,.18,0h.56a1.48,1.48,0,0,0,.41,0,.59.59,0,0,0,.24-.15,1.92,1.92,0,0,0,.31-.45h.1l-.28.83H40.69v-.09h.12a.48.48,0,0,0,.22-.06.21.21,0,0,0,.1-.12,1.13,1.13,0,0,0,0-.32V63.63a.71.71,0,0,0-.06-.39.37.37,0,0,0-.29-.1h-.12v-.09h2.54l0,.72h-.1a1.09,1.09,0,0,0-.11-.36.37.37,0,0,0-.18-.15,1.09,1.09,0,0,0-.34,0Z"/><path class="cls-2" d="M43.56,63.06h.9l2,2.48v-1.9a.66.66,0,0,0-.07-.38.36.36,0,0,0-.28-.1H46v-.09h1.15v.09H47a.33.33,0,0,0-.3.13.72.72,0,0,0-.05.35v2.78H46.6l-2.18-2.66v2a.68.68,0,0,0,.07.38.37.37,0,0,0,.28.1h.12v.09H43.75v-.09h.11a.34.34,0,0,0,.3-.13.73.73,0,0,0,.05-.35V63.49a1.6,1.6,0,0,0-.22-.22.79.79,0,0,0-.22-.1.73.73,0,0,0-.21,0Z"/><path class="cls-2" d="M50.11,63.06l0,.77h-.09a1,1,0,0,0-.07-.29.5.5,0,0,0-.2-.21.71.71,0,0,0-.33-.07H49v2.52a.68.68,0,0,0,.07.38.37.37,0,0,0,.28.1h.11v.09h-1.4v-.09h.12a.34.34,0,0,0,.3-.13.75.75,0,0,0,.05-.35V63.26h-.4a1.11,1.11,0,0,0-.33,0,.44.44,0,0,0-.22.18.72.72,0,0,0-.11.35h-.09l0-.77Z"/><path class="cls-2" d="M10,69.28v1.14H9.93a1.4,1.4,0,0,0-.16-.52.82.82,0,0,0-.32-.31A.88.88,0,0,0,9,69.47a.59.59,0,0,0-.42.15.47.47,0,0,0-.17.35.42.42,0,0,0,.1.27,2.63,2.63,0,0,0,.72.49,5.22,5.22,0,0,1,.63.38.92.92,0,0,1,.26.31.82.82,0,0,1,.09.38.85.85,0,0,1-.29.65,1.05,1.05,0,0,1-.75.27l-.27,0-.31-.09a1.43,1.43,0,0,0-.3-.08.12.12,0,0,0-.1,0,.28.28,0,0,0-.05.15H8.07V71.6h.09a1.63,1.63,0,0,0,.17.53.81.81,0,0,0,.33.29,1,1,0,0,0,.48.12.69.69,0,0,0,.48-.16A.5.5,0,0,0,9.8,72a.51.51,0,0,0-.07-.24.74.74,0,0,0-.21-.23c-.06,0-.24-.15-.52-.31a5,5,0,0,1-.6-.38,1,1,0,0,1-.27-.31A.78.78,0,0,1,8,70.14a.81.81,0,0,1,.27-.61A1,1,0,0,1,9,69.28a1.39,1.39,0,0,1,.56.13.59.59,0,0,0,.19.06.15.15,0,0,0,.1,0,.31.31,0,0,0,.07-.15Z"/><path class="cls-2" d="M12.88,69.44v-.09H14v.09h-.12a.33.33,0,0,0-.3.16.74.74,0,0,0-.05.35v1.34a2.33,2.33,0,0,1-.1.77,1,1,0,0,1-.39.47,1.39,1.39,0,0,1-.79.2,1.48,1.48,0,0,1-.82-.19,1,1,0,0,1-.4-.5,2.8,2.8,0,0,1-.08-.81V69.93a.65.65,0,0,0-.08-.4.34.34,0,0,0-.27-.09h-.12v-.09H12v.09h-.13a.33.33,0,0,0-.29.13.73.73,0,0,0-.06.37v1.44a3.17,3.17,0,0,0,0,.44.93.93,0,0,0,.13.39.69.69,0,0,0,.27.23.93.93,0,0,0,.43.09,1.16,1.16,0,0,0,.58-.14.76.76,0,0,0,.35-.36,2.09,2.09,0,0,0,.09-.75V69.93a.68.68,0,0,0-.07-.39.36.36,0,0,0-.28-.11Z"/><path class="cls-2" d="M15.12,71.11v1a.68.68,0,0,0,.07.39.35.35,0,0,0,.28.11h.13v.09H14.18v-.09h.12a.33.33,0,0,0,.3-.14.8.8,0,0,0,.05-.36V69.93a.69.69,0,0,0-.07-.39.36.36,0,0,0-.28-.11h-.12v-.09h1.21a2.13,2.13,0,0,1,.7.09,1,1,0,0,1,.43.31.79.79,0,0,1,.18.51.86.86,0,0,1-.27.66,1.05,1.05,0,0,1-.75.25l-.26,0Zm0-.14.23,0h.17a.58.58,0,0,0,.44-.2.72.72,0,0,0,.18-.51.92.92,0,0,0-.09-.4.6.6,0,0,0-.25-.27.73.73,0,0,0-.36-.09,1.49,1.49,0,0,0-.32,0Z"/><path class="cls-2" d="M17.92,69.53v1.3h.72a.58.58,0,0,0,.38-.09.54.54,0,0,0,.14-.39h.09v1.15h-.09a1.16,1.16,0,0,0-.07-.31.29.29,0,0,0-.14-.13.71.71,0,0,0-.31,0h-.72V72.1a1,1,0,0,0,0,.27.16.16,0,0,0,.07.08.43.43,0,0,0,.19,0h.56a1.49,1.49,0,0,0,.41,0,.61.61,0,0,0,.24-.15,1.83,1.83,0,0,0,.31-.46h.1l-.29.83H17v-.09h.12a.46.46,0,0,0,.22-.06.2.2,0,0,0,.11-.12,1.18,1.18,0,0,0,0-.32V69.93a.69.69,0,0,0-.07-.39.37.37,0,0,0-.29-.1H17v-.09h2.54l0,.72h-.1a1.16,1.16,0,0,0-.11-.36.4.4,0,0,0-.18-.15,1.11,1.11,0,0,0-.34,0Zm1-1.25-.72.84h-.08l.26-.84Z"/><path class="cls-2" d="M23.29,72.65H22.4l-1.12-1.54h-.35v1a.66.66,0,0,0,.07.39.35.35,0,0,0,.28.11h.13v.09H20v-.09h.12a.33.33,0,0,0,.3-.14.78.78,0,0,0,.05-.36V69.93a.68.68,0,0,0-.07-.39.36.36,0,0,0-.28-.11H20v-.09h1.2a2.86,2.86,0,0,1,.77.08.89.89,0,0,1,.42.28.74.74,0,0,1,.17.49.76.76,0,0,1-.2.53,1.11,1.11,0,0,1-.61.32l.68.95a1.79,1.79,0,0,0,.4.43,1,1,0,0,0,.44.14ZM20.94,71h.14a1.07,1.07,0,0,0,.71-.2.66.66,0,0,0,.24-.52.66.66,0,0,0-.71-.7,2.09,2.09,0,0,0-.38,0Z"/><path class="cls-2" d="M24.78,72.56v.09H23.37v-.09h.12a.35.35,0,0,0,.3-.12.74.74,0,0,0,.06-.37V69.93a1.1,1.1,0,0,0,0-.33.22.22,0,0,0-.1-.11.46.46,0,0,0-.22-.06h-.12v-.09h1.41v.09h-.12a.35.35,0,0,0-.29.12.7.7,0,0,0-.06.37v2.13a1,1,0,0,0,0,.33.2.2,0,0,0,.1.1.43.43,0,0,0,.22.06Z"/><path class="cls-2" d="M25.94,69.53v1.3h.72a.59.59,0,0,0,.38-.09.54.54,0,0,0,.14-.39h.09v1.15h-.09a1.16,1.16,0,0,0-.07-.31.29.29,0,0,0-.14-.13.72.72,0,0,0-.31,0h-.72V72.1a1,1,0,0,0,0,.27.15.15,0,0,0,.07.08.42.42,0,0,0,.18,0h.56a1.48,1.48,0,0,0,.41,0,.59.59,0,0,0,.24-.15,1.83,1.83,0,0,0,.31-.46h.1l-.28.83H25v-.09h.12a.47.47,0,0,0,.22-.06.2.2,0,0,0,.11-.12,1.11,1.11,0,0,0,0-.32V69.93a.71.71,0,0,0-.06-.39.38.38,0,0,0-.29-.1H25v-.09h2.54l0,.72h-.09a1.11,1.11,0,0,0-.11-.36.39.39,0,0,0-.18-.15,1.11,1.11,0,0,0-.34,0Z"/><path class="cls-2" d="M30.32,69.44v-.09h1.17v.09h-.12a.33.33,0,0,0-.3.16A.73.73,0,0,0,31,70v1.34a2.33,2.33,0,0,1-.1.77,1,1,0,0,1-.39.47,1.38,1.38,0,0,1-.78.2,1.48,1.48,0,0,1-.82-.19,1,1,0,0,1-.4-.5,2.81,2.81,0,0,1-.08-.81V69.93a.64.64,0,0,0-.08-.4.34.34,0,0,0-.27-.09H28v-.09H29.4v.09h-.13a.33.33,0,0,0-.29.13.73.73,0,0,0-.06.37v1.44a3.16,3.16,0,0,0,0,.44.93.93,0,0,0,.13.39.68.68,0,0,0,.27.23.93.93,0,0,0,.43.09,1.17,1.17,0,0,0,.58-.14A.76.76,0,0,0,30.7,72a2.09,2.09,0,0,0,.09-.75V69.93a.69.69,0,0,0-.07-.39.36.36,0,0,0-.28-.11Z"/><path class="cls-2" d="M34.91,72.65H34l-1.12-1.54h-.35v1a.67.67,0,0,0,.07.39.35.35,0,0,0,.28.11H33v.09H31.63v-.09h.12a.34.34,0,0,0,.3-.14.79.79,0,0,0,.05-.36V69.93a.67.67,0,0,0-.07-.39.36.36,0,0,0-.28-.11h-.12v-.09h1.2a2.86,2.86,0,0,1,.77.08.89.89,0,0,1,.42.28.73.73,0,0,1,.17.49.77.77,0,0,1-.2.53,1.11,1.11,0,0,1-.61.32l.68.95a1.77,1.77,0,0,0,.4.43,1,1,0,0,0,.44.14ZM32.57,71h.14a1.08,1.08,0,0,0,.71-.2.66.66,0,0,0,.24-.52.69.69,0,0,0-.19-.5.7.7,0,0,0-.51-.19,2.1,2.1,0,0,0-.38,0Z"/><path class="cls-2" d="M37.16,69.53v1.3h.72a.59.59,0,0,0,.38-.09.54.54,0,0,0,.14-.39h.09v1.15H38.4a1.2,1.2,0,0,0-.07-.31.29.29,0,0,0-.14-.13.72.72,0,0,0-.31,0h-.72V72.1a1,1,0,0,0,0,.27.15.15,0,0,0,.07.08.43.43,0,0,0,.18,0H38a1.48,1.48,0,0,0,.41,0,.6.6,0,0,0,.24-.15,1.9,1.9,0,0,0,.31-.46H39l-.29.83H36.22v-.09h.12a.47.47,0,0,0,.22-.06.2.2,0,0,0,.11-.12,1.18,1.18,0,0,0,0-.32V69.93a.71.71,0,0,0-.06-.39.38.38,0,0,0-.29-.1h-.12v-.09h2.54l0,.72h-.1a1.11,1.11,0,0,0-.11-.36.4.4,0,0,0-.18-.15,1.12,1.12,0,0,0-.34,0Z"/><path class="cls-2" d="M42,69.35l0,.77H42a1,1,0,0,0-.07-.29.49.49,0,0,0-.2-.21.71.71,0,0,0-.33-.07h-.46v2.52a.68.68,0,0,0,.07.38.37.37,0,0,0,.29.1h.11v.09H40v-.09h.12a.33.33,0,0,0,.3-.13.72.72,0,0,0,.05-.35V69.56h-.4a1.09,1.09,0,0,0-.33,0,.46.46,0,0,0-.22.18.71.71,0,0,0-.11.36h-.09l0-.77Z"/><path class="cls-2" d="M43.44,72.65v-.09h.12a.33.33,0,0,0,.3-.13.77.77,0,0,0,.05-.36V69.93a.67.67,0,0,0-.07-.39.36.36,0,0,0-.28-.11h-.12v-.09h1.34a2.93,2.93,0,0,1,1.13.17,1.33,1.33,0,0,1,.62.56,1.73,1.73,0,0,1,.24.9,1.65,1.65,0,0,1-.42,1.15,1.84,1.84,0,0,1-1.43.51Zm.94-.24a2.48,2.48,0,0,0,.52.07,1.23,1.23,0,0,0,.94-.4,1.75,1.75,0,0,0,0-2.15,1.26,1.26,0,0,0-1-.4,2.06,2.06,0,0,0-.5.07Z"/><path class="cls-2" d="M48,69.53v1.3h.73a.59.59,0,0,0,.38-.09.54.54,0,0,0,.14-.39h.09v1.15h-.09a1.26,1.26,0,0,0-.07-.31.29.29,0,0,0-.14-.13.71.71,0,0,0-.31,0H48V72.1a1,1,0,0,0,0,.27.16.16,0,0,0,.07.08.44.44,0,0,0,.19,0h.56a1.49,1.49,0,0,0,.41,0,.6.6,0,0,0,.24-.15,1.88,1.88,0,0,0,.31-.46h.1l-.29.83H47.06v-.09h.12a.46.46,0,0,0,.22-.06.2.2,0,0,0,.11-.12,1.2,1.2,0,0,0,0-.32V69.93a.71.71,0,0,0-.06-.39.38.38,0,0,0-.29-.1h-.12v-.09H49.6l0,.72h-.09a1.14,1.14,0,0,0-.11-.36.4.4,0,0,0-.18-.15,1.11,1.11,0,0,0-.34,0Z"/><path class="cls-2" d="M13.1,78l.08,0-.28.9H10.35v-.09h.12a.33.33,0,0,0,.3-.14.78.78,0,0,0,.05-.36V76.23a.7.7,0,0,0-.07-.39.36.36,0,0,0-.28-.11h-.12v-.09h1.49v.09a.89.89,0,0,0-.37,0,.3.3,0,0,0-.15.13,1,1,0,0,0,0,.37v2.07a.66.66,0,0,0,0,.28.17.17,0,0,0,.09.08,1.6,1.6,0,0,0,.38,0H12a1.76,1.76,0,0,0,.53-.06.7.7,0,0,0,.28-.2A1.65,1.65,0,0,0,13.1,78Z"/><path class="cls-2" d="M15.57,77.84H14.29l-.22.52a.81.81,0,0,0-.08.29.16.16,0,0,0,.07.13.6.6,0,0,0,.31.08v.09h-1v-.09a.57.57,0,0,0,.27-.09,1.51,1.51,0,0,0,.27-.47L15,75.57h.08l1.15,2.75a1.27,1.27,0,0,0,.25.43.52.52,0,0,0,.31.11v.09h-1.3v-.09a.49.49,0,0,0,.27-.07.17.17,0,0,0,.07-.14,1,1,0,0,0-.1-.34Zm-.07-.18-.56-1.33-.57,1.33Z"/><path class="cls-2" d="M21.23,78.95h-.88L19.23,77.4h-.35v1a.68.68,0,0,0,.07.39.35.35,0,0,0,.28.11h.13v.09H17.95v-.09h.12a.33.33,0,0,0,.3-.14.76.76,0,0,0,.05-.36V76.23a.69.69,0,0,0-.07-.39.36.36,0,0,0-.28-.11h-.12v-.09h1.2a2.94,2.94,0,0,1,.77.08.91.91,0,0,1,.42.28.73.73,0,0,1,.17.49.77.77,0,0,1-.2.53,1.12,1.12,0,0,1-.61.32l.68.95a1.66,1.66,0,0,0,.4.43,1,1,0,0,0,.44.14Zm-2.34-1.7H19a1.08,1.08,0,0,0,.71-.2.65.65,0,0,0,.24-.52.67.67,0,0,0-.19-.5.69.69,0,0,0-.51-.2,2.11,2.11,0,0,0-.38,0Z"/><path class="cls-2" d="M22.23,75.83v1.31H23a.58.58,0,0,0,.38-.09.55.55,0,0,0,.14-.39h.09V77.8h-.09a1.27,1.27,0,0,0-.07-.31.3.3,0,0,0-.14-.13.72.72,0,0,0-.31,0h-.73V78.4a1,1,0,0,0,0,.27.16.16,0,0,0,.07.08.43.43,0,0,0,.19,0h.56a1.5,1.5,0,0,0,.41,0,.58.58,0,0,0,.24-.15,1.82,1.82,0,0,0,.31-.45h.1l-.28.83H21.29v-.09h.12a.47.47,0,0,0,.22-.06.2.2,0,0,0,.11-.12,1.18,1.18,0,0,0,0-.32V76.22a.71.71,0,0,0-.06-.39.38.38,0,0,0-.29-.1h-.12v-.09h2.54l0,.72h-.09a1.16,1.16,0,0,0-.11-.36.39.39,0,0,0-.18-.15,1,1,0,0,0-.34,0Z"/><path class="cls-2" d="M27.23,75.57l.08,1.12h-.08A1.4,1.4,0,0,0,26.8,76a1,1,0,0,0-.67-.22,1,1,0,0,0-1,.7,2.36,2.36,0,0,0-.15.91,2,2,0,0,0,.14.78,1.08,1.08,0,0,0,.43.5,1.23,1.23,0,0,0,.66.18,1.13,1.13,0,0,0,.57-.14,1.86,1.86,0,0,0,.54-.55l.07,0a1.72,1.72,0,0,1-.58.64A1.46,1.46,0,0,1,26,79a1.49,1.49,0,0,1-1.27-.61,1.74,1.74,0,0,1-.34-1.07,1.9,1.9,0,0,1,.22-.91,1.61,1.61,0,0,1,.61-.64,1.65,1.65,0,0,1,.85-.23,1.54,1.54,0,0,1,.71.18.4.4,0,0,0,.15.05.17.17,0,0,0,.12,0,.37.37,0,0,0,.09-.18Z"/><path class="cls-2" d="M28.58,77.18h1.53v-.95a1.1,1.1,0,0,0,0-.33.21.21,0,0,0-.1-.1.43.43,0,0,0-.22-.06h-.12v-.09H31v.09h-.12a.47.47,0,0,0-.22.06.2.2,0,0,0-.11.12,1.13,1.13,0,0,0,0,.32v2.13a1.12,1.12,0,0,0,0,.33.22.22,0,0,0,.1.1.46.46,0,0,0,.22.06H31v.09H29.64v-.09h.12a.35.35,0,0,0,.3-.12.72.72,0,0,0,.06-.38v-1H28.58v1a1.11,1.11,0,0,0,0,.33.22.22,0,0,0,.1.1.45.45,0,0,0,.22.06h.12v.09H27.64v-.09h.12a.35.35,0,0,0,.3-.12.74.74,0,0,0,.06-.38V76.23a1.13,1.13,0,0,0,0-.33.21.21,0,0,0-.1-.1.45.45,0,0,0-.22-.06h-.12v-.09h1.41v.09h-.12a.47.47,0,0,0-.22.06.21.21,0,0,0-.11.12,1.15,1.15,0,0,0,0,.32Z"/><path class="cls-2" d="M32.19,75.83v1.31h.73a.58.58,0,0,0,.38-.09.54.54,0,0,0,.14-.39h.09V77.8h-.09a1.31,1.31,0,0,0-.07-.31.31.31,0,0,0-.14-.13.72.72,0,0,0-.31,0h-.73V78.4a1,1,0,0,0,0,.27.16.16,0,0,0,.07.08.43.43,0,0,0,.19,0H33a1.49,1.49,0,0,0,.41,0,.58.58,0,0,0,.24-.15,1.8,1.8,0,0,0,.31-.45h.1l-.28.83H31.25v-.09h.12a.47.47,0,0,0,.22-.06.21.21,0,0,0,.11-.12,1.16,1.16,0,0,0,0-.32V76.22a.71.71,0,0,0-.06-.39.38.38,0,0,0-.29-.1h-.12v-.09H33.8l0,.72h-.1a1.1,1.1,0,0,0-.11-.36.38.38,0,0,0-.18-.15,1,1,0,0,0-.34,0Z"/><path class="cls-2" d="M37.56,78.95h-.88L35.56,77.4h-.35v1a.68.68,0,0,0,.07.39.35.35,0,0,0,.28.11h.13v.09H34.28v-.09h.12a.33.33,0,0,0,.3-.14.79.79,0,0,0,.05-.36V76.23a.68.68,0,0,0-.07-.39.36.36,0,0,0-.28-.11h-.12v-.09h1.2a3,3,0,0,1,.77.08.91.91,0,0,1,.42.28.73.73,0,0,1,.17.49.77.77,0,0,1-.2.53,1.11,1.11,0,0,1-.61.32l.68.95a1.65,1.65,0,0,0,.4.43,1,1,0,0,0,.44.14Zm-2.34-1.7h.14a1.08,1.08,0,0,0,.71-.2.66.66,0,0,0,.24-.52.68.68,0,0,0-.19-.5.69.69,0,0,0-.51-.2,2.1,2.1,0,0,0-.38,0Z"/><path class="cls-2" d="M40.52,75.57l.07,1.12h-.07a1.4,1.4,0,0,0-.43-.73,1.05,1.05,0,0,0-.67-.22,1,1,0,0,0-1,.7,2.36,2.36,0,0,0-.15.91,1.92,1.92,0,0,0,.14.78,1.07,1.07,0,0,0,.43.5,1.23,1.23,0,0,0,.66.18,1.12,1.12,0,0,0,.57-.14,1.86,1.86,0,0,0,.54-.55l.08,0a1.72,1.72,0,0,1-.58.64,1.46,1.46,0,0,1-.79.21A1.49,1.49,0,0,1,38,78.41a1.75,1.75,0,0,1-.34-1.07,1.89,1.89,0,0,1,.22-.91,1.61,1.61,0,0,1,.61-.64,1.66,1.66,0,0,1,.85-.23,1.55,1.55,0,0,1,.71.18.39.39,0,0,0,.15.05.17.17,0,0,0,.12,0,.39.39,0,0,0,.09-.18Z"/><path class="cls-2" d="M41.87,77.18H43.4v-.95a1.08,1.08,0,0,0,0-.33.21.21,0,0,0-.1-.1.44.44,0,0,0-.22-.06h-.12v-.09h1.41v.09h-.12a.47.47,0,0,0-.22.06.2.2,0,0,0-.11.12,1.12,1.12,0,0,0,0,.32v2.13a1.12,1.12,0,0,0,0,.33.23.23,0,0,0,.1.1.46.46,0,0,0,.22.06h.12v.09H42.93v-.09H43a.35.35,0,0,0,.29-.12.71.71,0,0,0,.06-.38v-1H41.87v1a1.11,1.11,0,0,0,0,.33.23.23,0,0,0,.1.1.45.45,0,0,0,.22.06h.12v.09H40.93v-.09H41a.35.35,0,0,0,.3-.12.73.73,0,0,0,.06-.38V76.23a1.15,1.15,0,0,0,0-.33.21.21,0,0,0-.1-.1.45.45,0,0,0-.22-.06h-.12v-.09h1.42v.09h-.12a.47.47,0,0,0-.22.06.21.21,0,0,0-.1.12,1.11,1.11,0,0,0,0,.32Z"/><path class="cls-2" d="M45.48,75.83v1.31h.72a.58.58,0,0,0,.38-.09.54.54,0,0,0,.14-.39h.09V77.8h-.09a1.28,1.28,0,0,0-.07-.31.3.3,0,0,0-.14-.13.71.71,0,0,0-.31,0h-.72V78.4a1,1,0,0,0,0,.27.16.16,0,0,0,.07.08.43.43,0,0,0,.19,0h.56a1.49,1.49,0,0,0,.41,0,.6.6,0,0,0,.24-.15,1.8,1.8,0,0,0,.31-.45h.1l-.29.83H44.54v-.09h.12a.47.47,0,0,0,.22-.06.21.21,0,0,0,.11-.12,1.21,1.21,0,0,0,0-.32V76.22a.7.7,0,0,0-.06-.39.38.38,0,0,0-.29-.1h-.12v-.09h2.54l0,.72H47a1.11,1.11,0,0,0-.11-.36.38.38,0,0,0-.18-.15,1,1,0,0,0-.34,0Z"/><polygon class="cls-2" points="57.8 84.65 0 84.65 0 37.6 0.26 37.6 0.26 84.39 57.53 84.39 57.53 37.6 57.8 37.6 57.8 84.65"/><path class="cls-2" d="M8.05,31.87a.6.6,0,0,1-.37-.09,1.91,1.91,0,0,1-.42-.55c-.16-.28-.34-.57-.51-.82h-.2v.25c0,.13,0,.25,0,.38a1.44,1.44,0,0,0,0,.46.3.3,0,0,0,.29.2v.13H5.65V31.7a.31.31,0,0,0,.23-.09A.45.45,0,0,0,6,31.35a6,6,0,0,0,0-.69v-.79A3.36,3.36,0,0,0,5.94,29c0-.13-.13-.18-.29-.2v-.13H7.06a1.08,1.08,0,0,1,.67.16.77.77,0,0,1,.3.62.93.93,0,0,1-.69.86,8.09,8.09,0,0,1,.49.71,3.54,3.54,0,0,0,.42.57.35.35,0,0,0,.2.12v.13a1.7,1.7,0,0,1-.39,0ZM6.84,28.92a1.26,1.26,0,0,0-.28,0c0,.28,0,.78,0,1.17h.21a.59.59,0,0,0,.65-.61.57.57,0,0,0-.56-.61Z"/><path class="cls-2" d="M9.6,29l-.18-.11.38-.57.45.08L9.6,29Zm.87,2.79c0,.06-.07.07-.29.07H8.67v-.11a.27.27,0,0,0,.27-.29,4.42,4.42,0,0,0,0-.44v-1.1a1,1,0,0,0,0-.38c0-.1-.1-.15-.24-.16v-.11h1.82c0,.11,0,.23,0,.34s0,.18,0,.28h-.14c0-.3-.16-.38-.62-.38H9.44c0,.15,0,.2,0,.43v.45H9.6c.4,0,.53-.06.55-.27h.14c0,.06,0,.19,0,.38s0,.32,0,.38h-.14c0-.22-.12-.28-.52-.28H9.42c0,.25,0,.49,0,.74s0,.22.12.24a1.15,1.15,0,0,0,.27,0c.42,0,.57-.09.66-.41l.15,0a2.63,2.63,0,0,1-.16.57Z"/><path class="cls-2" d="M12.09,30.68H12l-.09-.2c.37,0,.57-.2.57-.5a.5.5,0,0,0-.51-.53l-.15,0c0,.24,0,.48,0,.72v.68a2,2,0,0,0,0,.7.23.23,0,0,0,.24.16v.11H11v-.11a.27.27,0,0,0,.27-.29c0-.12,0-.19,0-.57v-1a1,1,0,0,0,0-.38c0-.1-.11-.15-.24-.16v-.11h.46l.6,0c.55,0,.88.27.88.72a.8.8,0,0,1-.89.73Z"/><path class="cls-2" d="M15.62,29.43a.51.51,0,0,0-.07.29c0,.17,0,.3,0,.54,0,.09,0,.36,0,.63a1,1,0,0,1-.16.6,1,1,0,0,1-.86.39,1,1,0,0,1-.61-.16.84.84,0,0,1-.38-.82c0-.42,0-.6,0-.74a3.4,3.4,0,0,0,0-.6c0-.14-.1-.2-.26-.21v-.11h1v.11a.26.26,0,0,0-.22.11.63.63,0,0,0-.05.31c0,.25,0,.49,0,.73,0,.67,0,.8.14.94a.58.58,0,0,0,.44.18.59.59,0,0,0,.59-.39,2.3,2.3,0,0,0,.06-.73v-.38c0-.44,0-.58-.05-.64a.25.25,0,0,0-.2-.12v-.11h.81v.11a.25.25,0,0,0-.18.09Z"/><path class="cls-2" d="M18,31.65a1.19,1.19,0,0,1-.79.19l-.63,0h-.4v-.11c.18,0,.25-.11.27-.29a5.09,5.09,0,0,0,0-.57v-.74a2.06,2.06,0,0,0,0-.62.25.25,0,0,0-.24-.16v-.11h1.32c.36,0,.68.17.68.57s-.19.5-.56.6a.68.68,0,0,1,.63.7.64.64,0,0,1-.26.54Zm-.85-2.21H17c0,.25,0,.69,0,.85h.17c.38,0,.6-.16.6-.44s-.2-.43-.54-.43Zm0,1.09h-.24c0,.11,0,.12,0,.3v.23a1.37,1.37,0,0,0,0,.41c0,.1.12.14.29.14a.46.46,0,0,0,.52-.51.56.56,0,0,0-.6-.59Z"/><path class="cls-2" d="M20.47,31.78c0,.05-.08.07-.28.07h-.3l-.72,0h-.46v-.11a.23.23,0,0,0,.19-.08c.07-.08.09-.18.09-.47s0-.35,0-.55v-.42a2.1,2.1,0,0,0,0-.7.25.25,0,0,0-.24-.16v-.11H19.8v.11c-.2,0-.28.1-.31.29a5.55,5.55,0,0,0,0,.57v.65c0,.54,0,.61.05.66s.12.06.29.06a.84.84,0,0,0,.43-.08.5.5,0,0,0,.23-.34l.15,0a2.68,2.68,0,0,1-.16.57Z"/><path class="cls-2" d="M21.82,31.83h-.95v-.11c.18,0,.25-.11.27-.29a5.09,5.09,0,0,0,0-.57v-.66c0-.1,0-.2,0-.32a1.08,1.08,0,0,0,0-.38c0-.1-.11-.15-.24-.16v-.11h1v.11a.28.28,0,0,0-.27.29c0,.11,0,.22,0,.57v.66a2.1,2.1,0,0,0,0,.7.23.23,0,0,0,.24.16v.11Z"/><path class="cls-2" d="M25.46,32.53a1.94,1.94,0,0,1-.93-.27,4.45,4.45,0,0,1-.6-.41l-.31,0a1.22,1.22,0,0,1-1.31-1.29,1.33,1.33,0,0,1,1.39-1.4A1.24,1.24,0,0,1,25,30.47a1.39,1.39,0,0,1-.72,1.26l.42.23a1.82,1.82,0,0,0,.93.34.93.93,0,0,0,.45-.11l.05.14a1.21,1.21,0,0,1-.69.2Zm-1.84-3.08a.86.86,0,0,0-.81,1c0,.68.4,1.21.91,1.21a.87.87,0,0,0,.82-1c0-.67-.4-1.19-.91-1.19Z"/><path class="cls-2" d="M27.73,29.43a.52.52,0,0,0-.07.29c0,.17,0,.3,0,.54,0,.09,0,.36,0,.63a1,1,0,0,1-.16.6,1,1,0,0,1-.86.39,1,1,0,0,1-.61-.16.84.84,0,0,1-.38-.82c0-.42,0-.6,0-.74a3.4,3.4,0,0,0,0-.6c0-.14-.1-.2-.26-.21v-.11h1v.11c-.12,0-.18,0-.22.11a.61.61,0,0,0-.06.31c0,.25,0,.49,0,.73,0,.67,0,.8.14.94a.58.58,0,0,0,.44.18.59.59,0,0,0,.59-.39,2.31,2.31,0,0,0,.06-.73v-.38c0-.44,0-.58-.05-.64a.24.24,0,0,0-.2-.12v-.11h.81v.11a.26.26,0,0,0-.18.09Z"/><path class="cls-2" d="M30.1,31.77c0,.06-.07.07-.29.07H28.3v-.11a.27.27,0,0,0,.27-.29,4.39,4.39,0,0,0,0-.44v-1.1a1,1,0,0,0,0-.38c0-.1-.1-.15-.24-.16v-.11h1.82c0,.11,0,.23,0,.34s0,.18,0,.28H30c0-.3-.16-.38-.62-.38h-.29c0,.15,0,.2,0,.43v.45h.18c.4,0,.53-.06.55-.27h.14c0,.06,0,.19,0,.38s0,.32,0,.38h-.14c0-.22-.12-.28-.52-.28h-.21c0,.25,0,.49,0,.74s0,.22.12.24a1.16,1.16,0,0,0,.27,0c.42,0,.57-.09.66-.41l.15,0a2.63,2.63,0,0,1-.16.57Z"/><path class="cls-2" d="M33.7,29.45c0-.34-.2-.47-.73-.47h-.33c0,.32,0,.55,0,1.06h.25c.44,0,.57-.08.59-.33h.17c0,.13,0,.27,0,.4s0,.35,0,.53h-.17c0-.28-.14-.34-.64-.34h-.21v.53c0,.1,0,.22,0,.34s0,.48.33.5v.13H31.71V31.7a.33.33,0,0,0,.33-.35,6.77,6.77,0,0,0,0-.69V29.48A1.28,1.28,0,0,0,32,29a.3.3,0,0,0-.29-.2v-.13h2.17c0,.09,0,.24,0,.44a2.91,2.91,0,0,0,0,.32Z"/><path class="cls-2" d="M36.3,31.86a.5.5,0,0,1-.31-.07,1.54,1.54,0,0,1-.34-.45c-.13-.23-.28-.47-.42-.68h-.17v.21c0,.1,0,.21,0,.31a1.16,1.16,0,0,0,0,.38.24.24,0,0,0,.24.16v.11h-1v-.11a.24.24,0,0,0,.19-.08.35.35,0,0,0,.08-.21,5,5,0,0,0,0-.57v-.66a2.85,2.85,0,0,0,0-.7c0-.11-.11-.15-.24-.16v-.11h1.16a.9.9,0,0,1,.56.13.64.64,0,0,1,.25.51.77.77,0,0,1-.57.71,6.68,6.68,0,0,1,.4.59,2.85,2.85,0,0,0,.35.47.28.28,0,0,0,.16.1v.11a1.43,1.43,0,0,1-.32,0Zm-1-2.43-.23,0c0,.23,0,.65,0,1h.17a.49.49,0,0,0,.53-.5.47.47,0,0,0-.47-.51Z"/><path class="cls-2" d="M39.11,31.83h-.93v-.11c.12,0,.2-.07.2-.18a.74.74,0,0,0-.05-.21L38.21,31h-.75l-.08.22a1.51,1.51,0,0,0-.09.37c0,.11.05.17.18.17v.11h-.77v-.11a.16.16,0,0,0,.12-.05,1.38,1.38,0,0,0,.26-.5l.37-.94c.1-.25.25-.66.36-1h.26c0,.12.12.31.17.45l.55,1.4a4,4,0,0,0,.21.47.29.29,0,0,0,.2.16v.11Zm-1.26-1.9c-.1.26-.24.61-.3.8h.58l-.28-.8Z"/><path class="cls-2" d="M41.88,29.46a.68.68,0,0,0-.06.34c0,.35,0,.89,0,1.16v.59c0,.09,0,.23,0,.28h-.27c-.25-.33-.78-1-.78-1l-.79-1c0,.08,0,0,0,.28v.25c0,.29,0,.58,0,.87a.73.73,0,0,0,.06.32.2.2,0,0,0,.21.11v.11h-.83v-.11c.26,0,.27-.22.27-.42s0-.3,0-.55v-.82c0-.32,0-.4-.07-.49s-.09-.09-.21-.1v-.11h.67a4.62,4.62,0,0,0,.39.49c.38.46.72.86,1,1.26v-.85a3,3,0,0,0,0-.59.25.25,0,0,0-.24-.21v-.11h.82v.11a.22.22,0,0,0-.22.12Z"/><path class="cls-2" d="M44.59,31.74a1.93,1.93,0,0,1-.78.14l0,.16h.07a.23.23,0,0,1,.25.23c0,.21-.17.36-.43.36a.59.59,0,0,1-.23,0l.05-.15.14,0c.11,0,.18-.05.18-.15s0-.12-.1-.12a.15.15,0,0,0-.09,0l-.09,0,.08-.31a1.18,1.18,0,0,1-.8-.36,1.35,1.35,0,0,1-.37-1,1.28,1.28,0,0,1,1.43-1.34,2.41,2.41,0,0,1,.76.11c0,.09,0,.18,0,.26s0,.21,0,.3h-.15a.57.57,0,0,0-.64-.42.86.86,0,0,0-.88,1c0,.7.39,1.21.93,1.21a.61.61,0,0,0,.64-.47l.15,0a3.44,3.44,0,0,0-.09.56Z"/><path class="cls-2" d="M47.29,31.83h-.93v-.11c.12,0,.2-.07.2-.18a.75.75,0,0,0-.05-.21L46.39,31h-.75l-.08.22a1.46,1.46,0,0,0-.09.37c0,.11.05.17.17.17v.11h-.77v-.11a.17.17,0,0,0,.12-.05,1.41,1.41,0,0,0,.26-.5l.37-.94c.1-.25.25-.66.36-1h.26c0,.12.12.31.17.45l.55,1.4a4,4,0,0,0,.21.47.29.29,0,0,0,.2.16v.11ZM46,29.92c-.1.26-.24.61-.3.8h.58l-.28-.8Z"/><path class="cls-2" d="M48.56,31.83h-.95v-.11c.18,0,.25-.11.27-.29a4.86,4.86,0,0,0,0-.57v-.66c0-.1,0-.2,0-.32a1.08,1.08,0,0,0,0-.38c0-.1-.11-.15-.24-.16v-.11h1v.11a.27.27,0,0,0-.27.29,5.68,5.68,0,0,0,0,.57v.66a2.13,2.13,0,0,0,0,.7.23.23,0,0,0,.24.16v.11Z"/><path class="cls-2" d="M49.77,31.88a1.65,1.65,0,0,1-.65-.13c0-.15,0-.37-.07-.56l.15,0a.59.59,0,0,0,.6.48c.28,0,.46-.14.46-.36s-.12-.3-.3-.4l-.41-.26a.78.78,0,0,1-.44-.71c0-.44.33-.72.84-.72a1.37,1.37,0,0,1,.64.14c0,.09,0,.12,0,.24s0,.18,0,.29h-.15a.48.48,0,0,0-.5-.43.38.38,0,0,0-.42.37c0,.19.13.31.33.44l.33.22c.32.21.49.4.49.72s-.37.71-.92.71Z"/><path class="cls-2" d="M52.89,31.77c0,.06-.07.07-.29.07H51.09v-.11a.27.27,0,0,0,.27-.29c0-.12,0-.24,0-.44v-1.1a1,1,0,0,0,0-.38c0-.1-.1-.15-.24-.16v-.11h1.82c0,.11,0,.23,0,.34s0,.18,0,.28h-.14c0-.3-.16-.38-.62-.38h-.29c0,.15,0,.2,0,.43v.45H52c.4,0,.53-.06.55-.27h.14c0,.06,0,.19,0,.38s0,.32,0,.38h-.14c0-.22-.12-.28-.52-.28h-.21c0,.25,0,.49,0,.74s0,.22.12.24a1.16,1.16,0,0,0,.27,0c.42,0,.57-.09.66-.41l.15,0a2.5,2.5,0,0,1-.16.57Z"/><path class="cls-2" d="M7,25.17s-.09.06-.23.06H5.32l0-.08A.3.3,0,0,0,5.57,25a1,1,0,0,0,.15-.39c0-.21.07-.33.15-.72l.06-.3A3.45,3.45,0,0,0,6,23c0-.17-.06-.24-.22-.25l0-.08h1l0,.08a.28.28,0,0,0-.24.11c-.09.12-.15.28-.29,1l0,.25c-.06.31-.08.42-.1.56a.74.74,0,0,0,0,.12c0,.15.07.19.32.19.43,0,.59-.09.73-.4l.1,0a2.66,2.66,0,0,1-.22.5Z"/><path class="cls-2" d="M8.11,23.33a.18.18,0,0,1-.19-.18.22.22,0,0,1,.23-.23.17.17,0,0,1,.19.18.22.22,0,0,1-.23.23Zm-.41,1.94c-.08,0-.12,0-.12-.11a1,1,0,0,1,0-.18c0-.2.12-.47.16-.62A2.08,2.08,0,0,0,7.83,24s0-.07-.07-.07l-.15,0h0v-.11a1.8,1.8,0,0,1,.51-.13c.06,0,.08,0,.08.06a2.36,2.36,0,0,1-.09.43L8,24.43a2.93,2.93,0,0,0-.12.56.08.08,0,0,0,.09.09A.73.73,0,0,0,8.21,25v.11a1.84,1.84,0,0,1-.52.14Z"/><path class="cls-2" d="M9.78,25.09a.83.83,0,0,1-.59.18c-.3,0-.47,0-.47-.12a1.08,1.08,0,0,1,0-.23l.2-.86.18-.81a1.94,1.94,0,0,0,.05-.33s0-.07-.06-.07l-.17,0v-.11H9a1.82,1.82,0,0,1,.46-.11s.08,0,.08.06a3.06,3.06,0,0,1-.08.42l-.11.5-.06.28a1.27,1.27,0,0,1,.64-.2.31.31,0,0,1,.34.35,1.48,1.48,0,0,1-.48,1Zm0-1.22a.56.56,0,0,0-.26.08.72.72,0,0,0-.23.17,1.3,1.3,0,0,0-.15.44,2.61,2.61,0,0,0-.08.44c0,.07.08.11.23.11a.46.46,0,0,0,.39-.21,1.6,1.6,0,0,0,.26-.81c0-.14-.06-.22-.17-.22Z"/><path class="cls-2" d="M11.08,24.62H11a1.06,1.06,0,0,0,0,.18c0,.2.07.3.2.3a1,1,0,0,0,.5-.21l0,.13a1.33,1.33,0,0,1-.69.25c-.24,0-.36-.14-.36-.39a1.09,1.09,0,0,1,.91-1.17c.24,0,.38.11.38.3,0,.35-.37.61-.86.61Zm.39-.76c-.18,0-.37.25-.47.61h0c.35,0,.62-.18.62-.43a.19.19,0,0,0-.19-.19Z"/><path class="cls-2" d="M13.46,24.2h-.12a1,1,0,0,0,0-.15c0-.07-.06-.12-.16-.12A.23.23,0,0,0,13,24a1.83,1.83,0,0,0-.28.84l-.07.37-.33,0c0-.14.06-.26.09-.39l.08-.35A2.49,2.49,0,0,0,12.6,24c0-.09,0-.14-.07-.14l-.09,0-.1,0v-.11a1.77,1.77,0,0,1,.49-.14.06.06,0,0,1,.07.05.84.84,0,0,1,0,.16.79.79,0,0,1,.43-.22.46.46,0,0,1,.25.1,2.25,2.25,0,0,0-.14.39Z"/><path class="cls-2" d="M14.74,23.94h-.31l-.16.78a1.55,1.55,0,0,0,0,.29.07.07,0,0,0,.08.08l.17,0h0v.11a1.68,1.68,0,0,1-.51.13c-.08,0-.13,0-.13-.11a1.22,1.22,0,0,1,0-.28c0-.13.06-.24.09-.39l.12-.56h-.2l0-.12c.26,0,.34-.25.42-.47l.18,0-.09.45h.32l0,.19Z"/><path class="cls-2" d="M15.9,23.47l-.12-.1.46-.52.34.08-.68.54Zm-.42,1.15h-.11a1.06,1.06,0,0,0,0,.18c0,.2.07.3.2.3a1,1,0,0,0,.5-.21l0,.13a1.32,1.32,0,0,1-.68.25c-.24,0-.36-.14-.36-.39A1.09,1.09,0,0,1,16,23.71c.24,0,.38.11.38.3,0,.35-.37.61-.85.61Zm.39-.76c-.18,0-.37.25-.47.61h0c.35,0,.62-.18.62-.43a.19.19,0,0,0-.19-.19Z"/><path class="cls-2" d="M22.41,22.44l-.12-.1.46-.52.35.08-.69.54Zm.72.81H23s0-.06,0-.08c0-.21-.14-.28-.51-.28h-.37c-.08.31-.13.59-.2.92h.14a2.55,2.55,0,0,0,.43,0,.32.32,0,0,0,.27-.26h.1c-.05.22-.12.54-.14.73h-.1a.62.62,0,0,0,0-.06c0-.16-.1-.22-.41-.22h-.32c0,.09,0,0-.09.45a2.58,2.58,0,0,0-.06.41c0,.13.07.17.32.17.48,0,.63-.08.77-.4l.09,0a2.14,2.14,0,0,1-.23.52s-.09.05-.25.05H21v-.08a.29.29,0,0,0,.23-.12,1,1,0,0,0,.15-.39c.05-.21.06-.3.15-.72l.06-.3a3.53,3.53,0,0,0,.08-.57c0-.17-.06-.24-.22-.25l0-.08h1.72c0,.17-.08.37-.11.55Z"/><path class="cls-2" d="M25,23.94h-.26a.42.42,0,0,1,.06.23.63.63,0,0,1-.67.62.62.62,0,0,1-.2,0c-.09.06-.12.08-.12.12s0,.06.21.11l.3.09c.3.09.45.19.45.4a.82.82,0,0,1-.91.72c-.42,0-.67-.2-.67-.52s.19-.44.5-.51c-.19-.07-.23-.1-.23-.16s.11-.19.34-.31a.39.39,0,0,1-.17-.34.64.64,0,0,1,.67-.63.66.66,0,0,1,.25,0H25l0,.18Zm-.72-.08a.43.43,0,0,0-.37.47c0,.18.1.3.25.3a.43.43,0,0,0,.36-.47c0-.19-.1-.31-.24-.31Zm.06,1.53-.44-.15a.53.53,0,0,0-.44.48c0,.21.18.34.45.34s.63-.22.63-.47c0-.09-.06-.15-.19-.2Z"/><path class="cls-2" d="M26.42,25.27c-.07,0-.09,0-.13-.23a1.4,1.4,0,0,1-.68.23c-.23,0-.36-.12-.36-.32a1.48,1.48,0,0,1,.25-.72,1,1,0,0,1,.84-.52,1.9,1.9,0,0,1,.49.07l0,.06a5.29,5.29,0,0,0-.24,1.08c0,.1,0,.16.07.16l.2-.06v.12a2,2,0,0,1-.44.13Zm-.17-1.4c-.15,0-.3.11-.43.33a1.6,1.6,0,0,0-.25.74c0,.12.06.18.15.18a.9.9,0,0,0,.48-.22.58.58,0,0,0,.12-.27,5.76,5.76,0,0,0,.15-.7.56.56,0,0,0-.23-.06Z"/><path class="cls-2" d="M28.1,23c-.13.51-.25,1.07-.37,1.6a2,2,0,0,0-.06.34c0,.06,0,.08.09.08L28,25v.11a2,2,0,0,1-.53.14.1.1,0,0,1-.11-.11,1.86,1.86,0,0,1,.07-.36c.12-.5.25-1,.35-1.51a3.45,3.45,0,0,0,.07-.36s0-.07-.06-.07l-.17,0v-.11a2,2,0,0,1,.51-.12c.05,0,.08,0,.08.06a1.73,1.73,0,0,1-.06.32Z"/><path class="cls-2" d="M29,23.33a.18.18,0,0,1-.19-.18.22.22,0,0,1,.23-.23.17.17,0,0,1,.19.18.22.22,0,0,1-.23.23Zm-.41,1.94c-.08,0-.12,0-.12-.11a1.1,1.1,0,0,1,0-.18c.05-.2.12-.47.16-.62a1.9,1.9,0,0,0,.08-.39s0-.07-.07-.07l-.15,0h0v-.11a1.79,1.79,0,0,1,.51-.13c.06,0,.08,0,.08.06a2.31,2.31,0,0,1-.09.43l-.06.22a3,3,0,0,0-.12.56.08.08,0,0,0,.09.09.73.73,0,0,0,.21-.05v.11a1.87,1.87,0,0,1-.52.14Z"/><path class="cls-2" d="M30.53,23.94h-.31l-.16.78A1.53,1.53,0,0,0,30,25c0,.05,0,.08.08.08l.17,0h0v.11a1.66,1.66,0,0,1-.51.13c-.08,0-.13,0-.13-.11a1.22,1.22,0,0,1,0-.28c0-.13.06-.24.09-.39l.12-.56h-.2l0-.12c.26,0,.34-.25.42-.47l.18,0-.09.45h.31l0,.19Z"/><path class="cls-2" d="M31.69,23.47l-.12-.1.46-.52.34.08-.68.54Zm-.42,1.15h-.11a1.05,1.05,0,0,0,0,.18c0,.2.07.3.2.3a1,1,0,0,0,.5-.21l0,.13a1.32,1.32,0,0,1-.69.25c-.23,0-.36-.14-.36-.39a1.09,1.09,0,0,1,.91-1.17c.24,0,.38.11.38.3,0,.35-.37.61-.86.61Zm.39-.76c-.18,0-.38.25-.47.61h0c.35,0,.62-.18.62-.43a.19.19,0,0,0-.19-.19Z"/><path class="cls-2" d="M38.86,23.25h-.11s0-.07,0-.09a.24.24,0,0,0-.07-.18c-.07-.07-.2-.09-.49-.09h-.28c-.07.31-.13.61-.2.93h.22c.42,0,.5,0,.58-.28h.1a6.93,6.93,0,0,0-.14.74h-.11a.47.47,0,0,0,0-.06.2.2,0,0,0-.07-.16c-.07,0-.14-.06-.37-.06h-.25l-.05.25a4,4,0,0,0-.1.64.22.22,0,0,0,.22.25l0,.08H36.8v-.08A.3.3,0,0,0,37,25a1,1,0,0,0,.15-.39c.05-.22.07-.33.15-.72l.06-.3A3.38,3.38,0,0,0,37.5,23c0-.17-.06-.24-.22-.25V22.7H39c0,.17-.08.37-.11.55Z"/><path class="cls-2" d="M40.15,24.2H40A1,1,0,0,0,40,24c0-.07-.06-.12-.15-.12a.23.23,0,0,0-.16.09,1.84,1.84,0,0,0-.28.84l-.07.37-.33,0,.09-.39.08-.35A2.52,2.52,0,0,0,39.3,24c0-.09,0-.14-.07-.14l-.09,0L39,24v-.11a1.77,1.77,0,0,1,.49-.14.06.06,0,0,1,.07.05.77.77,0,0,1,0,.16.8.8,0,0,1,.43-.22.46.46,0,0,1,.25.1,2.32,2.32,0,0,0-.14.39Z"/><path class="cls-2" d="M41.65,25.27c-.07,0-.09,0-.13-.23a1.39,1.39,0,0,1-.69.23c-.23,0-.36-.12-.36-.32a1.48,1.48,0,0,1,.25-.72,1,1,0,0,1,.84-.52,1.9,1.9,0,0,1,.49.07l0,.06a5.21,5.21,0,0,0-.23,1.08c0,.1,0,.16.07.16l.2-.06v.12a2,2,0,0,1-.44.13Zm-.17-1.4c-.15,0-.3.11-.43.33a1.59,1.59,0,0,0-.25.74c0,.12.06.18.15.18a.91.91,0,0,0,.48-.22.57.57,0,0,0,.12-.27,5.76,5.76,0,0,0,.15-.7.56.56,0,0,0-.23-.06Z"/><path class="cls-2" d="M43.45,23.94h-.31l-.16.78a1.59,1.59,0,0,0,0,.29c0,.05,0,.08.08.08l.17,0h0v.11a1.67,1.67,0,0,1-.51.13c-.08,0-.13,0-.13-.11a1.19,1.19,0,0,1,0-.28c0-.13.06-.24.09-.39l.12-.56h-.2l0-.12c.26,0,.34-.25.42-.47l.18,0-.09.45h.31l0,.19Z"/><path class="cls-2" d="M44.2,24.62h-.11a1.06,1.06,0,0,0,0,.18c0,.2.07.3.2.3a1,1,0,0,0,.5-.21l0,.13a1.33,1.33,0,0,1-.69.25c-.24,0-.36-.14-.36-.39a1.09,1.09,0,0,1,.91-1.17c.24,0,.38.11.38.3,0,.35-.37.61-.86.61Zm.39-.76c-.18,0-.37.25-.47.61h0c.35,0,.62-.18.62-.43a.19.19,0,0,0-.19-.19Z"/><path class="cls-2" d="M46.57,24.2h-.12a1,1,0,0,0,0-.15c0-.07-.06-.12-.16-.12a.23.23,0,0,0-.16.09,1.85,1.85,0,0,0-.28.84l-.07.37-.33,0,.09-.39.08-.35a2.49,2.49,0,0,0,.08-.47c0-.09,0-.14-.07-.14l-.09,0-.09,0v-.11a1.77,1.77,0,0,1,.49-.14.06.06,0,0,1,.07.05.85.85,0,0,1,0,.16.8.8,0,0,1,.43-.22.47.47,0,0,1,.25.1,2.11,2.11,0,0,0-.14.39Z"/><path class="cls-2" d="M48.08,25.27a.11.11,0,0,1-.12-.11,1.63,1.63,0,0,1,.06-.32l0-.16a4.36,4.36,0,0,0,.14-.7c0-.06,0-.09-.08-.09a.64.64,0,0,0-.28.11.77.77,0,0,0-.26.22,1.42,1.42,0,0,0-.11.35c-.06.28-.1.47-.13.64l-.33,0c.08-.29.13-.52.19-.78a2.6,2.6,0,0,0,.08-.45c0-.09,0-.13-.08-.13l-.19,0v-.11a1.72,1.72,0,0,1,.47-.12c.08,0,.11,0,.11.23v0a1.79,1.79,0,0,1,.79-.26c.12,0,.17,0,.17.11a2.33,2.33,0,0,1-.1.51c0,.18-.09.36-.1.44a1.27,1.27,0,0,0,0,.22.08.08,0,0,0,.08.09.64.64,0,0,0,.2,0v.11a2.29,2.29,0,0,1-.51.13Z"/><path class="cls-2" d="M49.67,23.33a.18.18,0,0,1-.19-.18.23.23,0,0,1,.23-.23.17.17,0,0,1,.19.18.22.22,0,0,1-.23.23Zm-.41,1.94c-.08,0-.12,0-.12-.11a1,1,0,0,1,0-.18c0-.2.12-.47.16-.62A1.94,1.94,0,0,0,49.4,24s0-.07-.06-.07l-.15,0h0v-.11a1.8,1.8,0,0,1,.52-.13c.06,0,.08,0,.08.06a2.27,2.27,0,0,1-.09.43l-.06.22a3,3,0,0,0-.12.56.08.08,0,0,0,.09.09.72.72,0,0,0,.21-.05v.11a1.87,1.87,0,0,1-.52.14Z"/><path class="cls-2" d="M51.16,23.94h-.32l-.16.78a1.5,1.5,0,0,0,0,.29c0,.05,0,.08.08.08l.17,0h0v.11a1.66,1.66,0,0,1-.51.13c-.08,0-.13,0-.13-.11a1.23,1.23,0,0,1,0-.28c0-.13.06-.24.09-.39l.12-.56h-.2l0-.12c.26,0,.34-.25.42-.47l.18,0-.09.45h.31l0,.19Z"/><path class="cls-2" d="M52.33,23.47l-.12-.1.46-.52.34.08-.68.54Zm-.42,1.15H51.8a1,1,0,0,0,0,.18c0,.2.07.3.2.3a1,1,0,0,0,.5-.21l0,.13a1.33,1.33,0,0,1-.69.25c-.23,0-.36-.14-.36-.39a1.09,1.09,0,0,1,.91-1.17c.24,0,.38.11.38.3,0,.35-.37.61-.86.61Zm.39-.76c-.18,0-.37.25-.47.61h0c.35,0,.62-.18.62-.43a.19.19,0,0,0-.19-.19Z"/><path class="cls-2" d="M34.57,24.56a.46.46,0,1,0-.46-.46.46.46,0,0,0,.46.46Z"/><path class="cls-2" d="M18.79,24.56a.46.46,0,1,0-.46-.46.46.46,0,0,0,.46.46Z"/><line class="cls-2" x1="5.56" y1="26.94" x2="52.79" y2="26.94"/><rect class="cls-2" x="5.56" y="26.85" width="47.23" height="0.18"/><path class="cls-2" d="M16.77,15.51c0-.07.07-.07.11-.15s0-.07,0-.07a.44.44,0,0,0-.29.32s0,0,.07,0a.3.3,0,0,0,.14-.15Z"/><path class="cls-2" d="M23.6,20.2a6.93,6.93,0,0,0,.65-.25V20c.54-.22.94-.69,1.48-.87,0,0,.11.07.18,0a1.46,1.46,0,0,1,1.16-.54s0,.07,0,.07.07,0,.07,0l-.43.32s0,.07,0,.07.29-.22.47-.29c0,0,0,.11-.07.14a11.1,11.1,0,0,0-1.73,1.7H24.32s0-.07,0-.07c-1.26.11-2.49.07-3.75.07.72-.11,1.44-.32,2.17-.4a3.77,3.77,0,0,0,.9,0Z"/><path class="cls-2" d="M36.45,11.25a2.39,2.39,0,0,0-.61,0,5.21,5.21,0,0,0-.79.22,2.45,2.45,0,0,1,.69-.36,3,3,0,0,1,.54-.15,1.2,1.2,0,0,1,.61,0c.18.07.47.07.51.18s-.11.43-.33.58c0,.07.11.11.11.18A.26.26,0,0,1,37,12c-.07,0-.14.14-.22.22s0,.11.07.11c-.14.18.07.54-.14.61a1.58,1.58,0,0,1-.83,0c.14,0,.32,0,.43-.11v-.15s0,0-.07,0a.12.12,0,0,1-.07,0,.16.16,0,0,0-.11-.14.62.62,0,0,1-.54-.22.5.5,0,0,1,.32,0c.11,0,.07-.18.18-.25h.11c.22-.29.65-.36.72-.65,0-.07-.22-.07-.36-.11Z"/><g class="cls-3"><path class="cls-2" d="M8.51,4.57a13.13,13.13,0,0,0-2.92,0c0,1.41.07,3.3,0,4.71-.11,3.94,0,7.76-.11,12.26H16.38c.29-.9,1-1,1.55-1.24a4.21,4.21,0,0,1,.58-.24c.11,0,.22-.12.33,0-.4.22-.76.41-1.12.63a6.1,6.1,0,0,0,1.81,0,5.08,5.08,0,0,0,.87-.45,2.39,2.39,0,0,0-.69.32s-.14,0-.14,0,.14-.11.22-.18.07,0,.07,0c1.16-.9,2.74-.69,4.08-1.16l.33-.22c.18-.07.32-.25.54-.36a1.57,1.57,0,0,0,.61-.83.13.13,0,0,0,0-.07,5.58,5.58,0,0,1-1.59,1.19,6.76,6.76,0,0,1-2.38.43c0-.07.11.31.18.31s.07.17.14.17h.11s0-.45.07-.45.18-.23.14-.23-.33.56-.51.45c.07-.07,0,.23.11.23h.14l.07-.69c.54-.33,1-.85,1.55-1.14a.47.47,0,0,1-.29-.1c.07,0,0-.17.07-.17.4-.11.72-.36,1.12-.5-.15,0-.72.09-.86,0,.07,0-.25-.12-.25-.12v-.11a2.6,2.6,0,0,1,.54,0l.16,0c0-.07.26,0,.33-.11s0,0,0,0a.78.78,0,0,1,.5-.22c0-.07-.13-.1-.13-.17s0-.14.06-.14h0c-.07,0,0,0,0,0a2.29,2.29,0,0,0,.32-.82s-.07.11-.07.07a2.23,2.23,0,0,1-1.48.79h-.18a1.28,1.28,0,0,1-.61-.11c-.14-.07-.22-.22-.36-.33a4.16,4.16,0,0,0-.9-.45,8.11,8.11,0,0,0-2.78-.41,6,6,0,0,1,1.26-.36,5.42,5.42,0,0,1,1.84-.37,1.25,1.25,0,0,0-.36,0,6,6,0,0,0-1.55.22c-.36.07-.8.22-1.16.29a6,6,0,0,1-.69.25v-.11c0-.43.91-.87,1.49-.9a7.26,7.26,0,0,1,2,.07,9.76,9.76,0,0,1,1.4.25c.18,0,.23.29.38.32s.44,0,.66.14c0-.07,0-.14,0-.22s.33,0,.47,0-.25-.51-.4-.76a.12.12,0,0,1,0-.07,4.23,4.23,0,0,0,.87.72c.18.07.47.18.4,0-.18-.4-1-.72-1-1.08v-.14a3.44,3.44,0,0,0-.9-.07v-.14c0-.07.43-.22.36-.33s.23-.43.16-.65,0-.4,0-.61c-.11-.61-.19-1.15-.26-1.73s.43-1.23.76-1.84a3.13,3.13,0,0,1,1-1.16,3.2,3.2,0,0,1,.69-1.16,3.6,3.6,0,0,1,1.27-.79C21,4.53,14.75,4.57,8.51,4.57Zm10.9,14c-.07,0-.22,0-.18,0s.29-.18.43-.25.18-.11.25-.07.18.07.25.14C20,18.54,19.66,18.43,19.41,18.54Zm-1.16-3.61s.11,0,.11,0a.35.35,0,0,1-.29.36,3.9,3.9,0,0,1,.87.22c0,.07-.11,0-.14,0,.18.11.4,0,.58.18-.11.11-.22,0-.32,0a9.46,9.46,0,0,1,3.25,1.3,9.89,9.89,0,0,1-2.49.76.82.82,0,0,1-.29,0s0,.11,0,.11a.58.58,0,0,0-.36.07c-.14.07-.36.6-.47.49a1.15,1.15,0,0,0,.15.42h-.29a2.83,2.83,0,0,1,0-.56c-.18,0-.4-.14-.58-.1l-.76.2c-.4.14-.72.41-1.16.55,0,0,0-.07,0-.1s.18-.16.25-.27-.15-.08-.19-.08c.29-.4,0-.62.9-.95v-.11c0-.14.44-.22.51-.4s.25-.25.43-.32c0,0-.07,0-.07-.11s-.27.07-.41,0a.54.54,0,0,1,.24-.13.11.11,0,0,1-.08-.05c0-.07.07-.15.18-.18s.33,0,.43-.14c-.25,0-.54.07-.79-.07A1.94,1.94,0,0,1,18.25,14.93Zm.51-1.44a.14.14,0,0,1-.11,0,.14.14,0,0,0,0-.11c-.36.4-.87.58-1.15,1s-.36.83-.83.94c-.14,0,0-.11,0-.07a12.15,12.15,0,0,0-2.78,2.49.13.13,0,0,1,0-.07A11,11,0,0,0,15,15.83a5,5,0,0,0,1.23-1,7,7,0,0,1,2-1.59,1.4,1.4,0,0,1,.94,0C19.08,13.42,18.9,13.38,18.76,13.49Z"/><path class="cls-2" d="M18,16.38a.63.63,0,0,0-.19,0Z"/><path class="cls-2" d="M37.82,18.36a1,1,0,0,0,0-.8c-.22-.32.22-.43.36-.65s-.07-.29-.11-.47-.18,0-.25-.15c.25-.11.65-.32.47-.65s-.29-.47-.07-.65.65-.11.76-.36c.18-.43-.22-.8-.43-1.16a5.57,5.57,0,0,0-.4-.58,3.06,3.06,0,0,1-.4-.76c-.11-.29,0-.54,0-.83a5.07,5.07,0,0,0-.25-1.63c-.11-.25-.14-.54-.25-.79a1.08,1.08,0,0,0-.18-.43.31.31,0,0,1,0-.25,3.75,3.75,0,0,0,.43-.36.4.4,0,0,0-.14-.54c-.25-.11-.22.25-.4.32h-.11c0-.11,0-.14.11-.22s0-.11,0-.11-.29,0-.32-.11a2.94,2.94,0,0,0-1.41-1,1.78,1.78,0,0,0,.43.07,1.34,1.34,0,0,0,.76-.07c.18-.07.22-.36.29-.54s0-.36-.11-.47a1.79,1.79,0,0,0-.76-.61H53c0,5.34,0,10.69-.07,16-6.75.11-13.5,0-20.25,0a3.51,3.51,0,0,1,1.26-1.88,2.13,2.13,0,0,1,.51-.14,16.16,16.16,0,0,1,1.84.25.53.53,0,0,1,.22.07,1.47,1.47,0,0,0,.69,0,.88.88,0,0,0,.65-.54Z"/></g><rect class="cls-1" x="6.11" y="5.38" width="45.87" height="16.19"/></g></g></svg>