<svg xmlns="http://www.w3.org/2000/svg" viewBox="0 0 108 50.11"><defs><style>.cls-1{fill:#fff;}</style></defs><title>Vivendi-Create-Joy</title><g id="Calque_2" data-name="Calque 2"><g id="Calque_1-2" data-name="Calque 1"><path class="cls-1" d="M74.75,27.87c-4.5,0-8.62,1.3-11.3,3.66a9.7,9.7,0,0,0-3.31,7.76,8.2,8.2,0,0,0,2.19,5.27c2.55,2.88,6.31,4,11,4,11,0,13.74-6,13.84-11.94V27.89Zm-1.37,2.42a2,2,0,0,1,0,1,4.36,4.36,0,0,1-.64,1.46l-1-2.81Zm-4.74,12a2.39,2.39,0,0,1-.35.57l-.42.17-.41.07a4.74,4.74,0,0,1-.48-.23c-.23-.12-.47-.25-.7-.4s-.47-.3-.68-.45l-.43-.33a3.75,3.75,0,0,1,.62-.24l.67-.21.58-.17a2.79,2.79,0,0,1,.7-.11,1.33,1.33,0,0,1,.63.14,1.38,1.38,0,0,1,.53.56A2.54,2.54,0,0,1,68.64,42.33Zm-.87-7.25a6.43,6.43,0,0,1-2.21-1.43l1.52-.87a2,2,0,0,1,1.26.76A4.82,4.82,0,0,1,69.08,35,2.7,2.7,0,0,1,67.77,35.08Zm6.05,9.86a2.43,2.43,0,0,1-.36.83,2.87,2.87,0,0,1-.63.67,2.7,2.7,0,0,1-.77.43l-.42.1a1.65,1.65,0,0,1-.4.06,9.93,9.93,0,0,1,.9-1.87,4.88,4.88,0,0,1,1.42-1.51.93.93,0,0,0,.1.18,1.25,1.25,0,0,1,.1.19A1.71,1.71,0,0,1,73.82,44.94Zm2.86-6.26a3,3,0,0,1-.51,1,3.43,3.43,0,0,1-.89.81,4.72,4.72,0,0,1-1.06.53,2.42,2.42,0,0,1-1.13.13,2.21,2.21,0,0,1-1-.36,2.84,2.84,0,0,1-.75-.75,3.78,3.78,0,0,1-.5-1,2.13,2.13,0,0,1-.12-1.16,1.66,1.66,0,0,1,.44-.81,3,3,0,0,1,.82-.57,10,10,0,0,1,1.09-.44,3.3,3.3,0,0,1,2.09,0,2.15,2.15,0,0,1,1.43,1.47A1.93,1.93,0,0,1,76.69,38.67Zm.42-4.37a5.36,5.36,0,0,1-.25-1.3A5.5,5.5,0,0,1,77,31.54a3.76,3.76,0,0,1,.51-1.29,1.9,1.9,0,0,1,1-.8,10.8,10.8,0,0,1,.39,1.46,4.31,4.31,0,0,1,.05,1.39,2.38,2.38,0,0,1-.51,1.18A2.78,2.78,0,0,1,77.11,34.3Zm2.66,8.59a2,2,0,0,1-1-1.23,1.93,1.93,0,0,1,1.56.07,2,2,0,0,1,1,1.21A2,2,0,0,1,79.77,42.89Zm3.76-6.17a4.18,4.18,0,0,1-1,.68,6.58,6.58,0,0,1-1.07.44l-.66.21a1.69,1.69,0,0,1,.24-1.67,3,3,0,0,1,1.41-1l.37-.09a2.4,2.4,0,0,1,.55.22,2.27,2.27,0,0,1,.5.3A1,1,0,0,1,83.54,36.72Z"/><path class="cls-1" d="M72.81,38.17a2.1,2.1,0,0,0,.53,1.65L75,39.27l-.63-1.48C73.65,37.54,72.9,37.65,72.81,38.17Z"/><path class="cls-1" d="M2.83,39.1a3.7,3.7,0,0,1,.31-1,2.07,2.07,0,0,1,.57-.72,1.4,1.4,0,0,1,.88-.28,2,2,0,0,1,.59.07.84.84,0,0,1,.38.23,1.59,1.59,0,0,1,.26.45c.07.19.16.42.24.7a.38.38,0,0,1,0,.27.31.31,0,0,1-.14.18.36.36,0,0,1-.23,0,.31.31,0,0,1-.21-.16l-.12-.17-.21-.28L5,38.15A.86.86,0,0,0,4.82,38a.55.55,0,0,0-.65.21,2.73,2.73,0,0,0-.43.84,5.71,5.71,0,0,0-.23,1,6.12,6.12,0,0,0-.07.78,1.78,1.78,0,0,0,.16.74,2.32,2.32,0,0,0,.4.61,1.81,1.81,0,0,0,.56.41,1.45,1.45,0,0,0,.61.15,1.54,1.54,0,0,0,.71-.17,6.23,6.23,0,0,0,.65-.37,5.58,5.58,0,0,1,.67-.37A1.78,1.78,0,0,1,8,41.7a1.67,1.67,0,0,1-.3,1.05,2,2,0,0,1-.74.58,3.13,3.13,0,0,1-.93.25,7.56,7.56,0,0,1-.86.05A2.86,2.86,0,0,1,4,43.43a1.63,1.63,0,0,1-.73-.64,2.9,2.9,0,0,1-.38-1.08,9,9,0,0,1-.11-1.51A6.61,6.61,0,0,1,2.83,39.1Z"/><path class="cls-1" d="M8.15,37.65h.22l.21,0h.12s0,.06.06.15,0,.19,0,.29,0,.2,0,.29a.35.35,0,0,0,.06.15c.31-.18.57-.33.79-.44a7,7,0,0,1,.73-.31,2.13,2.13,0,0,1,.74-.15l.53,0a3,3,0,0,1,.68.12,1.47,1.47,0,0,1,.59.33.82.82,0,0,1,.25.64s0,.07,0,.13,0,.09,0,.09a1.18,1.18,0,0,1-.16.24,1.55,1.55,0,0,1-.17.2h-.34a.61.61,0,0,0-.25-.27,4.15,4.15,0,0,0-.44-.27l-.43-.22-.23-.11a.54.54,0,0,0-.43,0,2.12,2.12,0,0,0-.53.33,3.78,3.78,0,0,0-.51.53,2.58,2.58,0,0,0-.37.59,1.19,1.19,0,0,0,0,.29c0,.13,0,.35,0,.66s0,.72,0,1.23,0,1.18,0,2l-.85.38-.1-.44s0-.17,0-.44-.07-.59-.11-1l-.11-1.11c0-.38-.06-.69-.07-.93s0-.31,0-.61,0-.61,0-.94,0-.64,0-.93,0-.5,0-.61Z"/><path class="cls-1" d="M13.6,39.34a8.18,8.18,0,0,1,.59-1,2.14,2.14,0,0,1,.54-.53,1.56,1.56,0,0,1,.59-.24,4.31,4.31,0,0,1,.74-.05l.57,0a.85.85,0,0,1,.4.12.58.58,0,0,1,.23.33,2.22,2.22,0,0,1,.08.67,2.37,2.37,0,0,1-.18,1,1.24,1.24,0,0,1-1,.73l-.58,0-.45,0q-.18,0-.18.17a2.62,2.62,0,0,0,.12.8,2.43,2.43,0,0,0,.34.68,1.72,1.72,0,0,0,.49.47,1.09,1.09,0,0,0,.58.17,3.46,3.46,0,0,0,1-.16c.33-.1.66-.22,1-.34s.65-.25,1-.35a3.07,3.07,0,0,1,1-.16,1.54,1.54,0,0,1-.21.82,1.68,1.68,0,0,1-.55.55,2.63,2.63,0,0,1-.76.33,5.81,5.81,0,0,1-.85.16c-.29,0-.56,0-.83,0h-.65a2.59,2.59,0,0,1-2.3-1,5.59,5.59,0,0,1-.7-3.12Zm2.24-1.09a1.88,1.88,0,0,0-.4.35l-.41.47a4.05,4.05,0,0,0-.34.45c.27,0,.63,0,1.08-.05s.81-.05,1.08-.05a3.17,3.17,0,0,0-.23-.8c-.12-.28-.28-.43-.48-.45A.39.39,0,0,0,15.84,38.25Z"/><path class="cls-1" d="M24.09,41.65a4.21,4.21,0,0,1-.79.69,3.88,3.88,0,0,1-.83.43,4.31,4.31,0,0,1-.87.21,7.06,7.06,0,0,1-.89.05,1.06,1.06,0,0,1-.63-.18,1.39,1.39,0,0,1-.41-.45,1.94,1.94,0,0,1-.22-.58,2.91,2.91,0,0,1-.06-.56,8.12,8.12,0,0,1,.18-1.67A6.13,6.13,0,0,1,20.1,38,3.49,3.49,0,0,1,21,36.9a2,2,0,0,1,1.29-.44,2.67,2.67,0,0,1,.47,0,1.3,1.3,0,0,1,.45.17,1,1,0,0,1,.33.36,1.19,1.19,0,0,1,.14.6,9.8,9.8,0,0,0-1.49.1,2.33,2.33,0,0,0-1.09.44,2.09,2.09,0,0,0-.67,1,5.38,5.38,0,0,0-.23,1.74.84.84,0,0,0,.21.6,1.36,1.36,0,0,0,.53.41,1.5,1.5,0,0,0,.66.13.92.92,0,0,0,.6-.23,4.31,4.31,0,0,0,.6-.46c.24-.21.46-.43.68-.64l.58-.57a1.51,1.51,0,0,1,.28-.25h.09s.07,0,.07,0l.07.15a2.69,2.69,0,0,1,.11.27c0,.1.07.2.1.28a.85.85,0,0,0,.06.15l.19.33.32.54.32.53a2.85,2.85,0,0,1,.18.33.28.28,0,0,1,0,.1,1,1,0,0,1,0,.12,1.12,1.12,0,0,1,0,.12c0,.06,0,.09,0,.09a1.07,1.07,0,0,1-.15.24,1.59,1.59,0,0,1-.17.2l-.08,0-.1,0-.15,0a1.82,1.82,0,0,1-.19-.24l-.31-.41-.31-.41-.19-.23Z"/><path class="cls-1" d="M26.19,37.94H24.5V36.65h2.08c0-.06,0-.16,0-.31s0-.3,0-.45,0-.31,0-.45v-.31c0-.29,0-.66.08-1.1s.07-.87.1-1.28.06-.76.09-1.06a2.82,2.82,0,0,1,.06-.44h.34c.07,0,.11.16.13.49s0,.75,0,1.26,0,1.06,0,1.67.06,1.19.11,1.75a1.57,1.57,0,0,0,.63.18,2.4,2.4,0,0,0,.51-.05l.58-.13a3.47,3.47,0,0,1,.82-.05s0,.08,0,.18,0,.2,0,.3a2.91,2.91,0,0,1,0,.29c0,.09,0,.14-.06.14l-.47.11-.71.14-.72.13a3.49,3.49,0,0,1-.47.05v.18c0,.07,0,.16,0,.26s0,.19,0,.27v.16a9.72,9.72,0,0,0,.1,1.48,4.64,4.64,0,0,0,1,2.27,6.62,6.62,0,0,0,1,1v.56a2.39,2.39,0,0,1-1.62-.6,3.81,3.81,0,0,1-1-1.45,6.91,6.91,0,0,1-.44-1.9,10.63,10.63,0,0,1,0-2Z"/><path class="cls-1" d="M29.79,39.34a8.39,8.39,0,0,1,.59-1,2.09,2.09,0,0,1,.54-.53,1.56,1.56,0,0,1,.59-.24,4.28,4.28,0,0,1,.74-.05l.57,0a.85.85,0,0,1,.4.12.58.58,0,0,1,.23.33,2.14,2.14,0,0,1,.08.67,2.37,2.37,0,0,1-.18,1,1.23,1.23,0,0,1-1,.73l-.59,0-.45,0c-.12,0-.18.07-.18.17a2.59,2.59,0,0,0,.12.8,2.4,2.4,0,0,0,.34.68,1.71,1.71,0,0,0,.49.47,1.08,1.08,0,0,0,.58.17,3.44,3.44,0,0,0,1-.16c.33-.1.66-.22,1-.34s.65-.25,1-.35a3.07,3.07,0,0,1,1-.16,1.54,1.54,0,0,1-.21.82,1.68,1.68,0,0,1-.55.55,2.63,2.63,0,0,1-.76.33,5.81,5.81,0,0,1-.85.16c-.29,0-.56,0-.83,0h-.66a2.59,2.59,0,0,1-2.3-1,5.57,5.57,0,0,1-.7-3.12ZM32,38.28a1.82,1.82,0,0,0-.37.33l-.38.44a5,5,0,0,0-.32.42c.26,0,.59,0,1,0s.76,0,1,0a3.08,3.08,0,0,0-.22-.75c-.11-.26-.26-.4-.45-.42A.36.36,0,0,0,32,38.28Z"/><path class="cls-1" d="M39.5,44.27a2.7,2.7,0,0,1,.62-.87,2.63,2.63,0,0,1,.88-.53,2.85,2.85,0,0,1,1-.18,1.9,1.9,0,0,1,.63.08.56.56,0,0,1,.31.28,1.27,1.27,0,0,1,.11.54q0,.35,0,.87c0,.14,0,.33,0,.55a2.73,2.73,0,0,1-.1.64,1.2,1.2,0,0,1-.28.51.58.58,0,0,1-.55.13s0-.2.08-.48a7.27,7.27,0,0,0,.12-.92,3.39,3.39,0,0,0,0-.91c-.06-.27-.2-.41-.43-.41a1.6,1.6,0,0,0-1.18.49A2.69,2.69,0,0,0,40,45.31v.1a1.08,1.08,0,0,0,0,.12,2.53,2.53,0,0,0,.21,1,4,4,0,0,0,.53.91,3.24,3.24,0,0,0,.7.69,1.29,1.29,0,0,0,.74.27,3.17,3.17,0,0,0,1.26-.26,3.08,3.08,0,0,0,1-.73,3.6,3.6,0,0,0,.71-1.16,4.24,4.24,0,0,0,.26-1.55,7.93,7.93,0,0,0-.2-1.77,15.21,15.21,0,0,0-.5-1.75c-.21-.57-.43-1.13-.67-1.66L43.37,38V37a1,1,0,0,1,.78.5,5.71,5.71,0,0,1,.67,1.28,14.4,14.4,0,0,1,.55,1.72c.16.63.3,1.24.41,1.83S46,43.48,46,44A9.34,9.34,0,0,1,46.14,45a4.71,4.71,0,0,1-.34,1.87,3.86,3.86,0,0,1-.9,1.32,3.8,3.8,0,0,1-1.3.79,4.51,4.51,0,0,1-1.5.26,2.35,2.35,0,0,1-1.18-.3,2.73,2.73,0,0,1-.89-.81,4,4,0,0,1-.56-1.22,5.6,5.6,0,0,1-.19-1.5A2.83,2.83,0,0,1,39.5,44.27Z"/><path class="cls-1" d="M46.89,38.21a1.81,1.81,0,0,1,1.54-.68,2.68,2.68,0,0,1,1,.23,3.29,3.29,0,0,1,1,.65,3.47,3.47,0,0,1,.74,1,3.12,3.12,0,0,1,.29,1.36A3.16,3.16,0,0,1,50.88,43a2.09,2.09,0,0,1-1.65.7,2.26,2.26,0,0,1-1.07-.27,3,3,0,0,1-.91-.74,3.62,3.62,0,0,1-.64-1.1,3.85,3.85,0,0,1-.23-1.36A3.22,3.22,0,0,1,46.89,38.21Zm.37,3.27a2.6,2.6,0,0,0,.57.69,2.64,2.64,0,0,0,.74.45,1.93,1.93,0,0,0,.73.16.91.91,0,0,0,.54-.16,1.29,1.29,0,0,0,.38-.43,2.05,2.05,0,0,0,.21-.63,4,4,0,0,0,.06-.73A2,2,0,0,0,50,39.27a1.85,1.85,0,0,0-1.3-.44,1.66,1.66,0,0,0-.6.12,1.82,1.82,0,0,0-.54.33,1.6,1.6,0,0,0-.39.56,1.82,1.82,0,0,0-.15.77A1.76,1.76,0,0,0,47.26,41.49Z"/><path class="cls-1" d="M51.92,45.17a12.83,12.83,0,0,1,.36-1.68q.23-.79.49-1.44c.17-.43.32-.8.46-1.09a4.75,4.75,0,0,0-.43-1.11c-.2-.38-.4-.78-.6-1.2a10.54,10.54,0,0,1-.53-1.33,5.16,5.16,0,0,1-.24-1.5h.44c.06.09.15.28.28.56l.48,1c.19.37.39.75.61,1.14a8.31,8.31,0,0,0,.67,1c.07-.13.16-.36.3-.7a9.63,9.63,0,0,1,.5-1,6.44,6.44,0,0,1,.7-1,2,2,0,0,1,.91-.65,3.58,3.58,0,0,1-.24,1.17c-.16.45-.34.9-.54,1.34s-.39.84-.58,1.2a8.28,8.28,0,0,0-.37.75l-.21.5-.3.75-.35.89-.35.9-.3.76c-.09.22-.15.39-.19.5a3.77,3.77,0,0,0-.16,1c0,.32,0,.66,0,1v.64a2.8,2.8,0,0,0,0,.53c0,.18,0,.1.1.28a2.9,2.9,0,0,0,.23.43c-.07.24-.16.38-.29.41a1.53,1.53,0,0,1-.42.05.5.5,0,0,1-.49-.33,1,1,0,0,1-.08-.56c0-.31,0-.31,0-.58s0-.51,0-.65A9,9,0,0,1,51.92,45.17Z"/><rect class="cls-1" x="19.26" y="8.64" width="3.81" height="12.79"/><rect class="cls-1" x="19.26" y="3.36" width="3.81" height="3.48"/><rect class="cls-1" x="99.92" y="8.64" width="3.81" height="12.79"/><rect class="cls-1" x="99.93" y="3.36" width="3.8" height="3.48"/><path class="cls-1" d="M70.09,11.45c2.4,0,4.1,1,4,3.25v6.73h3.81V14.51a5.3,5.3,0,0,0-1.45-3.89C75.12,9.1,73,8.25,70.09,8.25s-5,.85-6.4,2.37a5.31,5.31,0,0,0-1.46,3.89v6.92H66V14.7C66,12.49,67.69,11.45,70.09,11.45Z"/><polygon class="cls-1" points="13.4 8.64 8.92 18.06 4.29 8.64 0 8.64 6.59 21.43 11.23 21.43 17.64 8.64 13.4 8.64"/><polygon class="cls-1" points="38.19 8.64 33.71 18.06 29.08 8.64 24.79 8.64 31.38 21.43 36.02 21.43 42.43 8.64 38.19 8.64"/><path class="cls-1" d="M49.23,18.09a4.15,4.15,0,0,1-1.84-.78l12.35-2.44a7.72,7.72,0,0,0-.28-1.69c-.23-.85-1.72-5.09-8.56-4.92a9.26,9.26,0,0,0-6.13,2.23,6.29,6.29,0,0,0-2.1,4.67,5.76,5.76,0,0,0,2.53,4.69c1.54,1.12,3.57,1.59,6.34,1.59h7.13V18.28H51.82A15,15,0,0,1,49.23,18.09Zm2.09-6.88c2.26,0,3.52.84,4,1.76l-9,1.71a3.23,3.23,0,0,1,.84-1.86A5.49,5.49,0,0,1,51.32,11.21Z"/><path class="cls-1" d="M93.16,0V8.38H89c-1.34,0-4.7.23-6.91,2.33a5.94,5.94,0,0,0-1.8,4.48A5.88,5.88,0,0,0,82,19.32a8.72,8.72,0,0,0,6.49,2.49c2.8,0,5.08-.72,6.58-2.18A7,7,0,0,0,97,14.42V0Zm0,14.48c0,2-1,4-4.62,4a4.65,4.65,0,0,1-3.67-1.34,2.74,2.74,0,0,1-.73-1.76,3.24,3.24,0,0,1,1.1-2.6A5.71,5.71,0,0,1,89,11.55h4.14Z"/><path class="cls-1" d="M100.2,49.26a1.71,1.71,0,0,1-.41.11h-.5a1,1,0,0,0-.28.05l0-1.76a3.67,3.67,0,0,1-.64.06c-.33,0-.73,0-1.18,0a14,14,0,0,1-1.44-.16,7.09,7.09,0,0,1-1.4-.36,3.21,3.21,0,0,1-1-.61,1.18,1.18,0,0,1-.41-.91,2.25,2.25,0,0,1,.15-.74,2.87,2.87,0,0,1,.42-.77,2.48,2.48,0,0,1,.67-.62,1.65,1.65,0,0,1,.91-.25,1,1,0,0,1-.15.53,5.85,5.85,0,0,1-.32.49c-.11.16-.22.32-.32.49a1,1,0,0,0-.15.53.73.73,0,0,0,.16.43,2.15,2.15,0,0,0,.4.4,2.32,2.32,0,0,0,.54.3,1.75,1.75,0,0,0,.56.14,8.36,8.36,0,0,0,.86,0l1,0,1.19-.09V44h.89a.64.64,0,0,1,.12.45q0,.32,0,.71c0,.26,0,.52,0,.78a1.61,1.61,0,0,0,.12.66,5.59,5.59,0,0,0,.7-.11l1.33-.24q.76-.13,1.61-.24a12.35,12.35,0,0,1,1.55-.11,4,4,0,0,1,2.17.47A1.78,1.78,0,0,1,108,48c0,.06,0,.16,0,.29s0,.2,0,.21a2.74,2.74,0,0,1-.09.46l-.13.53c0,.17-.08.32-.12.44s-.07.18-.08.18h-.87s0-.07,0-.13,0-.12,0-.19,0-.13,0-.19a.74.74,0,0,0,0-.13,1.44,1.44,0,0,1,.07-.29l.15-.51c.05-.18.1-.35.14-.51a.76.76,0,0,0,0-.29.41.41,0,0,0,0-.33.9.9,0,0,0-.48-.6.56.56,0,0,0-.37,0,.83.83,0,0,0-.31-.07h-.43l-.42,0h-1.5c-.37,0-.73,0-1.08.07a10.14,10.14,0,0,0-1.12.18q-.59.13-1.35.34Z"/><path class="cls-1" d="M104.17,38.14q.1.13,0,.44a1.59,1.59,0,0,1-.3.41,1.53,1.53,0,0,1-.39.27,4.28,4.28,0,0,1-.58.22l-.87.26a1,1,0,0,1,.55.31,2.65,2.65,0,0,1,.54.71,2.89,2.89,0,0,1,.31,1,1.91,1.91,0,0,1-.17,1.07,1.33,1.33,0,0,1-.32.34,5.63,5.63,0,0,1-.5.36,4.38,4.38,0,0,1-.5.29,1,1,0,0,1-.34.11,8,8,0,0,1-1.83.22A10.71,10.71,0,0,1,97.81,44v-.65a.9.9,0,0,1,.57-.18,7.87,7.87,0,0,1,.85,0l1,.05a3.59,3.59,0,0,0,.9-.07,1.28,1.28,0,0,0,.67-.35A1.1,1.1,0,0,0,102,42a1.81,1.81,0,0,0-.29-1.08,2,2,0,0,0-.73-.62,3.32,3.32,0,0,0-1-.3c-.35-.05-.68-.09-1-.12l-.81-.08c-.23,0-.37-.09-.43-.19v-.47q1.2.07,2.14,0a11,11,0,0,0,1.67-.18,5.58,5.58,0,0,0,1.29-.4,3.6,3.6,0,0,0,1-.65A.6.6,0,0,1,104.17,38.14Z"/><path class="cls-1" d="M102.87,33a5.58,5.58,0,0,0-1.32.23,2,2,0,0,0-.92.57,1.57,1.57,0,0,0-.34,1.08,1.54,1.54,0,0,0,.28,1,1.77,1.77,0,0,0,.75.55,3.29,3.29,0,0,0,1.06.22,7.71,7.71,0,0,0,1.24,0v.33a.6.6,0,0,1,0,.08v.08a.85.85,0,0,1-.19.17,1.25,1.25,0,0,1-.22.14l-.73.14-1.11.2-1.11.19-.73.12-.14,0-.28.06-.29.06-.17,0a.4.4,0,0,1-.17,0,.13.13,0,0,1-.07-.09,1.28,1.28,0,0,1,0-.15,1.51,1.51,0,0,0-.07-.23.43.43,0,0,1,.27-.27,3.55,3.55,0,0,1,.5-.17l.62-.16a2.1,2.1,0,0,0,.61-.26,2.72,2.72,0,0,1-.78-.49,1.44,1.44,0,0,1-.34-.51,1.41,1.41,0,0,1-.08-.52c0-.17,0-.34,0-.5a2,2,0,0,1,.47-1.32,3.5,3.5,0,0,1,1.22-.9,6.67,6.67,0,0,1,1.65-.51,10,10,0,0,1,1.78-.16h.19l.12.06.13.09.11.09.05.06a.39.39,0,0,1-.05.14l-.11.2a1.45,1.45,0,0,1-.13.19.43.43,0,0,1-.12.12Z"/><path class="cls-1" d="M99.74,32.22a4.55,4.55,0,0,1-1.14-.43,2.83,2.83,0,0,1-.85-.7,1.47,1.47,0,0,1-.33-.95,5,5,0,0,1,0-.65,1.83,1.83,0,0,1,.11-.43,1.9,1.9,0,0,1,.21-.38l.34-.5H91.38L91,27.86l.41-.31c.86-.07,1.71-.12,2.56-.15s1.7,0,2.55,0h5l.36.15.7.32c.25.12.48.25.69.37s.32.22.32.3a2.37,2.37,0,0,1,.33,1.29,3.52,3.52,0,0,1-.33,1.28,1.37,1.37,0,0,1-.44.49,3.6,3.6,0,0,1-.71.41,5.42,5.42,0,0,1-.8.28,2.74,2.74,0,0,1-.69.11A5.26,5.26,0,0,1,99.74,32.22Zm2-.89a3.34,3.34,0,0,0,.63-.55,2.11,2.11,0,0,0,.34-.53,1.18,1.18,0,0,0,.1-.31,1.92,1.92,0,0,0-.14-.79,1,1,0,0,0-.39-.47,1.75,1.75,0,0,0-.64-.22,5.52,5.52,0,0,0-.86-.06,4.41,4.41,0,0,0-1,.1,2.69,2.69,0,0,0-.81.32,1.81,1.81,0,0,0-.56.54,1.38,1.38,0,0,0-.22.78.75.75,0,0,0,0,.17.31.31,0,0,0,0,.12,3.66,3.66,0,0,0,1,.92,2.8,2.8,0,0,0,1.43.36A2.44,2.44,0,0,0,101.73,31.33Z"/></g></g></svg>